%TF.GenerationSoftware,KiCad,Pcbnew,(6.0.7-1)-1*%
%TF.CreationDate,2022-10-27T12:50:35+02:00*%
%TF.ProjectId,ESE_RuizHerbelinAsfary,4553455f-5275-4697-9a48-657262656c69,rev?*%
%TF.SameCoordinates,Original*%
%TF.FileFunction,Soldermask,Bot*%
%TF.FilePolarity,Negative*%
%FSLAX46Y46*%
G04 Gerber Fmt 4.6, Leading zero omitted, Abs format (unit mm)*
G04 Created by KiCad (PCBNEW (6.0.7-1)-1) date 2022-10-27 12:50:35*
%MOMM*%
%LPD*%
G01*
G04 APERTURE LIST*
G04 Aperture macros list*
%AMRoundRect*
0 Rectangle with rounded corners*
0 $1 Rounding radius*
0 $2 $3 $4 $5 $6 $7 $8 $9 X,Y pos of 4 corners*
0 Add a 4 corners polygon primitive as box body*
4,1,4,$2,$3,$4,$5,$6,$7,$8,$9,$2,$3,0*
0 Add four circle primitives for the rounded corners*
1,1,$1+$1,$2,$3*
1,1,$1+$1,$4,$5*
1,1,$1+$1,$6,$7*
1,1,$1+$1,$8,$9*
0 Add four rect primitives between the rounded corners*
20,1,$1+$1,$2,$3,$4,$5,0*
20,1,$1+$1,$4,$5,$6,$7,0*
20,1,$1+$1,$6,$7,$8,$9,0*
20,1,$1+$1,$8,$9,$2,$3,0*%
G04 Aperture macros list end*
%ADD10R,1.700000X1.700000*%
%ADD11O,1.700000X1.700000*%
%ADD12RoundRect,0.250000X-0.600000X-0.725000X0.600000X-0.725000X0.600000X0.725000X-0.600000X0.725000X0*%
%ADD13O,1.700000X1.950000*%
%ADD14C,0.800000*%
%ADD15C,6.400000*%
%ADD16RoundRect,0.250000X-0.600000X-0.750000X0.600000X-0.750000X0.600000X0.750000X-0.600000X0.750000X0*%
%ADD17O,1.700000X2.000000*%
%ADD18C,1.200000*%
%ADD19C,3.400000*%
G04 APERTURE END LIST*
D10*
%TO.C,J102*%
X121000000Y-28780000D03*
D11*
X121000000Y-31320000D03*
X121000000Y-33860000D03*
X121000000Y-36400000D03*
%TD*%
D12*
%TO.C,J204*%
X105800000Y-61910000D03*
D13*
X108300000Y-61910000D03*
X110800000Y-61910000D03*
%TD*%
D12*
%TO.C,J202*%
X42780000Y-54780000D03*
D13*
X45280000Y-54780000D03*
X47780000Y-54780000D03*
X50280000Y-54780000D03*
X52780000Y-54780000D03*
X55280000Y-54780000D03*
X57780000Y-54780000D03*
%TD*%
D12*
%TO.C,J203*%
X28790000Y-61825000D03*
D13*
X31290000Y-61825000D03*
X33790000Y-61825000D03*
%TD*%
D12*
%TO.C,J201*%
X42780000Y-61760000D03*
D13*
X45280000Y-61760000D03*
X47780000Y-61760000D03*
X50280000Y-61760000D03*
X52780000Y-61760000D03*
X55280000Y-61760000D03*
X57780000Y-61760000D03*
%TD*%
D12*
%TO.C,J207*%
X87030000Y-61910000D03*
D13*
X89530000Y-61910000D03*
X92030000Y-61910000D03*
X94530000Y-61910000D03*
X97030000Y-61910000D03*
%TD*%
D12*
%TO.C,J503*%
X83550000Y-17490000D03*
D13*
X86050000Y-17490000D03*
X88550000Y-17490000D03*
%TD*%
D14*
%TO.C,H103*%
X118302944Y-61697056D03*
X120000000Y-62400000D03*
X120000000Y-57600000D03*
X121697056Y-61697056D03*
X117600000Y-60000000D03*
X122400000Y-60000000D03*
X121697056Y-58302944D03*
D15*
X120000000Y-60000000D03*
D14*
X118302944Y-58302944D03*
%TD*%
D16*
%TO.C,J401*%
X49690000Y-17570000D03*
D17*
X52190000Y-17570000D03*
%TD*%
D10*
%TO.C,J105*%
X121000000Y-41900000D03*
D11*
X121000000Y-44440000D03*
X121000000Y-46980000D03*
X121000000Y-49520000D03*
%TD*%
D18*
%TO.C,C402*%
X57070000Y-22850000D03*
X57070000Y-24850000D03*
%TD*%
%TO.C,C401*%
X72040000Y-24590000D03*
X72040000Y-26590000D03*
%TD*%
%TO.C,C505*%
X83480000Y-27500000D03*
X85480000Y-27500000D03*
%TD*%
D12*
%TO.C,J205*%
X67620000Y-61920000D03*
D13*
X70120000Y-61920000D03*
X72620000Y-61920000D03*
X75120000Y-61920000D03*
X77620000Y-61920000D03*
%TD*%
D14*
%TO.C,H102*%
X118302944Y-21697056D03*
X118302944Y-18302944D03*
X120000000Y-22400000D03*
X120000000Y-17600000D03*
D15*
X120000000Y-20000000D03*
D14*
X121697056Y-21697056D03*
X122400000Y-20000000D03*
X121697056Y-18302944D03*
X117600000Y-20000000D03*
%TD*%
%TO.C,H104*%
X20000000Y-62400000D03*
D15*
X20000000Y-60000000D03*
D14*
X21697056Y-58302944D03*
X22400000Y-60000000D03*
X21697056Y-61697056D03*
X18302944Y-61697056D03*
X20000000Y-57600000D03*
X17600000Y-60000000D03*
X18302944Y-58302944D03*
%TD*%
D10*
%TO.C,J103*%
X18080000Y-28680000D03*
D11*
X18080000Y-31220000D03*
X18080000Y-33760000D03*
X18080000Y-36300000D03*
%TD*%
D19*
%TO.C,S401*%
X62980000Y-18320000D03*
X67680000Y-18320000D03*
X72380000Y-18320000D03*
%TD*%
D12*
%TO.C,J206*%
X67620000Y-54995000D03*
D13*
X70120000Y-54995000D03*
X72620000Y-54995000D03*
X75120000Y-54995000D03*
X77620000Y-54995000D03*
%TD*%
D12*
%TO.C,J208*%
X87030000Y-54980000D03*
D13*
X89530000Y-54980000D03*
X92030000Y-54980000D03*
X94530000Y-54980000D03*
X97030000Y-54980000D03*
%TD*%
D10*
%TO.C,J104*%
X22300000Y-42250000D03*
D11*
X22300000Y-44790000D03*
X22300000Y-47330000D03*
X22300000Y-49870000D03*
%TD*%
D12*
%TO.C,J501*%
X28500000Y-17640000D03*
D13*
X31000000Y-17640000D03*
X33500000Y-17640000D03*
X36000000Y-17640000D03*
X38500000Y-17640000D03*
X41000000Y-17640000D03*
%TD*%
D14*
%TO.C,H101*%
X20000000Y-17600000D03*
D15*
X20000000Y-20000000D03*
D14*
X17600000Y-20000000D03*
X21697056Y-18302944D03*
X18302944Y-18302944D03*
X22400000Y-20000000D03*
X20000000Y-22400000D03*
X18302944Y-21697056D03*
X21697056Y-21697056D03*
%TD*%
D10*
%TO.C,J101*%
X18000000Y-42250000D03*
D11*
X18000000Y-44790000D03*
X18000000Y-47330000D03*
X18000000Y-49870000D03*
%TD*%
D12*
%TO.C,J502*%
X98960000Y-17620000D03*
D13*
X101460000Y-17620000D03*
X103960000Y-17620000D03*
X106460000Y-17620000D03*
X108960000Y-17620000D03*
X111460000Y-17620000D03*
%TD*%
M02*
