%TF.GenerationSoftware,KiCad,Pcbnew,(6.0.7-1)-1*%
%TF.CreationDate,2022-10-27T12:50:35+02:00*%
%TF.ProjectId,ESE_RuizHerbelinAsfary,4553455f-5275-4697-9a48-657262656c69,rev?*%
%TF.SameCoordinates,Original*%
%TF.FileFunction,Legend,Top*%
%TF.FilePolarity,Positive*%
%FSLAX46Y46*%
G04 Gerber Fmt 4.6, Leading zero omitted, Abs format (unit mm)*
G04 Created by KiCad (PCBNEW (6.0.7-1)-1) date 2022-10-27 12:50:35*
%MOMM*%
%LPD*%
G01*
G04 APERTURE LIST*
%ADD10C,0.200000*%
%ADD11C,0.300000*%
%ADD12C,0.150000*%
%ADD13C,0.120000*%
%ADD14C,0.152400*%
%ADD15C,0.254000*%
%ADD16C,0.203200*%
%ADD17C,0.127000*%
%ADD18C,0.340000*%
G04 APERTURE END LIST*
D10*
X60655000Y-41660000D02*
X64880000Y-41660000D01*
X64830000Y-33790000D02*
X64840000Y-42180000D01*
X60615000Y-38165000D02*
X60625000Y-46555000D01*
X69195000Y-33875000D02*
X69205000Y-42265000D01*
X64800000Y-33770000D02*
X69220000Y-33770000D01*
D11*
X55508571Y-15407142D02*
X56651428Y-15407142D01*
X56080000Y-15978571D02*
X56080000Y-14835714D01*
D12*
X67035238Y-51827142D02*
X66987619Y-51874761D01*
X66844761Y-51922380D01*
X66749523Y-51922380D01*
X66606666Y-51874761D01*
X66511428Y-51779523D01*
X66463809Y-51684285D01*
X66416190Y-51493809D01*
X66416190Y-51350952D01*
X66463809Y-51160476D01*
X66511428Y-51065238D01*
X66606666Y-50970000D01*
X66749523Y-50922380D01*
X66844761Y-50922380D01*
X66987619Y-50970000D01*
X67035238Y-51017619D01*
X67606666Y-51922380D02*
X67511428Y-51874761D01*
X67463809Y-51827142D01*
X67416190Y-51731904D01*
X67416190Y-51446190D01*
X67463809Y-51350952D01*
X67511428Y-51303333D01*
X67606666Y-51255714D01*
X67749523Y-51255714D01*
X67844761Y-51303333D01*
X67892380Y-51350952D01*
X67940000Y-51446190D01*
X67940000Y-51731904D01*
X67892380Y-51827142D01*
X67844761Y-51874761D01*
X67749523Y-51922380D01*
X67606666Y-51922380D01*
X68797142Y-51255714D02*
X68797142Y-51922380D01*
X68368571Y-51255714D02*
X68368571Y-51779523D01*
X68416190Y-51874761D01*
X68511428Y-51922380D01*
X68654285Y-51922380D01*
X68749523Y-51874761D01*
X68797142Y-51827142D01*
X69416190Y-51922380D02*
X69320952Y-51874761D01*
X69273333Y-51779523D01*
X69273333Y-50922380D01*
X70178095Y-51874761D02*
X70082857Y-51922380D01*
X69892380Y-51922380D01*
X69797142Y-51874761D01*
X69749523Y-51779523D01*
X69749523Y-51398571D01*
X69797142Y-51303333D01*
X69892380Y-51255714D01*
X70082857Y-51255714D01*
X70178095Y-51303333D01*
X70225714Y-51398571D01*
X70225714Y-51493809D01*
X69749523Y-51589047D01*
X71082857Y-51255714D02*
X71082857Y-51922380D01*
X70654285Y-51255714D02*
X70654285Y-51779523D01*
X70701904Y-51874761D01*
X70797142Y-51922380D01*
X70940000Y-51922380D01*
X71035238Y-51874761D01*
X71082857Y-51827142D01*
X71559047Y-51922380D02*
X71559047Y-51255714D01*
X71559047Y-51446190D02*
X71606666Y-51350952D01*
X71654285Y-51303333D01*
X71749523Y-51255714D01*
X71844761Y-51255714D01*
X73463809Y-51922380D02*
X72892380Y-51922380D01*
X73178095Y-51922380D02*
X73178095Y-50922380D01*
X73082857Y-51065238D01*
X72987619Y-51160476D01*
X72892380Y-51208095D01*
X28502857Y-58632380D02*
X28502857Y-57632380D01*
X28979047Y-57965714D02*
X28979047Y-58632380D01*
X28979047Y-58060952D02*
X29026666Y-58013333D01*
X29121904Y-57965714D01*
X29264761Y-57965714D01*
X29360000Y-58013333D01*
X29407619Y-58108571D01*
X29407619Y-58632380D01*
X29740952Y-57965714D02*
X30121904Y-57965714D01*
X29883809Y-58632380D02*
X29883809Y-57775238D01*
X29931428Y-57680000D01*
X30026666Y-57632380D01*
X30121904Y-57632380D01*
X30455238Y-58632380D02*
X30455238Y-57965714D01*
X30455238Y-58156190D02*
X30502857Y-58060952D01*
X30550476Y-58013333D01*
X30645714Y-57965714D01*
X30740952Y-57965714D01*
X31502857Y-58632380D02*
X31502857Y-58108571D01*
X31455238Y-58013333D01*
X31360000Y-57965714D01*
X31169523Y-57965714D01*
X31074285Y-58013333D01*
X31502857Y-58584761D02*
X31407619Y-58632380D01*
X31169523Y-58632380D01*
X31074285Y-58584761D01*
X31026666Y-58489523D01*
X31026666Y-58394285D01*
X31074285Y-58299047D01*
X31169523Y-58251428D01*
X31407619Y-58251428D01*
X31502857Y-58203809D01*
X33264761Y-58632380D02*
X32693333Y-58632380D01*
X32979047Y-58632380D02*
X32979047Y-57632380D01*
X32883809Y-57775238D01*
X32788571Y-57870476D01*
X32693333Y-57918095D01*
X108400952Y-22802380D02*
X108400952Y-21802380D01*
X108734285Y-22516666D01*
X109067619Y-21802380D01*
X109067619Y-22802380D01*
X109686666Y-22802380D02*
X109591428Y-22754761D01*
X109543809Y-22707142D01*
X109496190Y-22611904D01*
X109496190Y-22326190D01*
X109543809Y-22230952D01*
X109591428Y-22183333D01*
X109686666Y-22135714D01*
X109829523Y-22135714D01*
X109924761Y-22183333D01*
X109972380Y-22230952D01*
X110020000Y-22326190D01*
X110020000Y-22611904D01*
X109972380Y-22707142D01*
X109924761Y-22754761D01*
X109829523Y-22802380D01*
X109686666Y-22802380D01*
X110305714Y-22135714D02*
X110686666Y-22135714D01*
X110448571Y-21802380D02*
X110448571Y-22659523D01*
X110496190Y-22754761D01*
X110591428Y-22802380D01*
X110686666Y-22802380D01*
X111400952Y-22754761D02*
X111305714Y-22802380D01*
X111115238Y-22802380D01*
X111020000Y-22754761D01*
X110972380Y-22659523D01*
X110972380Y-22278571D01*
X111020000Y-22183333D01*
X111115238Y-22135714D01*
X111305714Y-22135714D01*
X111400952Y-22183333D01*
X111448571Y-22278571D01*
X111448571Y-22373809D01*
X110972380Y-22469047D01*
X112305714Y-22135714D02*
X112305714Y-22802380D01*
X111877142Y-22135714D02*
X111877142Y-22659523D01*
X111924761Y-22754761D01*
X112020000Y-22802380D01*
X112162857Y-22802380D01*
X112258095Y-22754761D01*
X112305714Y-22707142D01*
X112781904Y-22802380D02*
X112781904Y-22135714D01*
X112781904Y-22326190D02*
X112829523Y-22230952D01*
X112877142Y-22183333D01*
X112972380Y-22135714D01*
X113067619Y-22135714D01*
X114115238Y-21897619D02*
X114162857Y-21850000D01*
X114258095Y-21802380D01*
X114496190Y-21802380D01*
X114591428Y-21850000D01*
X114639047Y-21897619D01*
X114686666Y-21992857D01*
X114686666Y-22088095D01*
X114639047Y-22230952D01*
X114067619Y-22802380D01*
X114686666Y-22802380D01*
X85485238Y-51647142D02*
X85437619Y-51694761D01*
X85294761Y-51742380D01*
X85199523Y-51742380D01*
X85056666Y-51694761D01*
X84961428Y-51599523D01*
X84913809Y-51504285D01*
X84866190Y-51313809D01*
X84866190Y-51170952D01*
X84913809Y-50980476D01*
X84961428Y-50885238D01*
X85056666Y-50790000D01*
X85199523Y-50742380D01*
X85294761Y-50742380D01*
X85437619Y-50790000D01*
X85485238Y-50837619D01*
X86056666Y-51742380D02*
X85961428Y-51694761D01*
X85913809Y-51647142D01*
X85866190Y-51551904D01*
X85866190Y-51266190D01*
X85913809Y-51170952D01*
X85961428Y-51123333D01*
X86056666Y-51075714D01*
X86199523Y-51075714D01*
X86294761Y-51123333D01*
X86342380Y-51170952D01*
X86390000Y-51266190D01*
X86390000Y-51551904D01*
X86342380Y-51647142D01*
X86294761Y-51694761D01*
X86199523Y-51742380D01*
X86056666Y-51742380D01*
X87247142Y-51075714D02*
X87247142Y-51742380D01*
X86818571Y-51075714D02*
X86818571Y-51599523D01*
X86866190Y-51694761D01*
X86961428Y-51742380D01*
X87104285Y-51742380D01*
X87199523Y-51694761D01*
X87247142Y-51647142D01*
X87866190Y-51742380D02*
X87770952Y-51694761D01*
X87723333Y-51599523D01*
X87723333Y-50742380D01*
X88628095Y-51694761D02*
X88532857Y-51742380D01*
X88342380Y-51742380D01*
X88247142Y-51694761D01*
X88199523Y-51599523D01*
X88199523Y-51218571D01*
X88247142Y-51123333D01*
X88342380Y-51075714D01*
X88532857Y-51075714D01*
X88628095Y-51123333D01*
X88675714Y-51218571D01*
X88675714Y-51313809D01*
X88199523Y-51409047D01*
X89532857Y-51075714D02*
X89532857Y-51742380D01*
X89104285Y-51075714D02*
X89104285Y-51599523D01*
X89151904Y-51694761D01*
X89247142Y-51742380D01*
X89390000Y-51742380D01*
X89485238Y-51694761D01*
X89532857Y-51647142D01*
X90009047Y-51742380D02*
X90009047Y-51075714D01*
X90009047Y-51266190D02*
X90056666Y-51170952D01*
X90104285Y-51123333D01*
X90199523Y-51075714D01*
X90294761Y-51075714D01*
X91342380Y-50837619D02*
X91390000Y-50790000D01*
X91485238Y-50742380D01*
X91723333Y-50742380D01*
X91818571Y-50790000D01*
X91866190Y-50837619D01*
X91913809Y-50932857D01*
X91913809Y-51028095D01*
X91866190Y-51170952D01*
X91294761Y-51742380D01*
X91913809Y-51742380D01*
X24930952Y-22692380D02*
X24930952Y-21692380D01*
X25264285Y-22406666D01*
X25597619Y-21692380D01*
X25597619Y-22692380D01*
X26216666Y-22692380D02*
X26121428Y-22644761D01*
X26073809Y-22597142D01*
X26026190Y-22501904D01*
X26026190Y-22216190D01*
X26073809Y-22120952D01*
X26121428Y-22073333D01*
X26216666Y-22025714D01*
X26359523Y-22025714D01*
X26454761Y-22073333D01*
X26502380Y-22120952D01*
X26550000Y-22216190D01*
X26550000Y-22501904D01*
X26502380Y-22597142D01*
X26454761Y-22644761D01*
X26359523Y-22692380D01*
X26216666Y-22692380D01*
X26835714Y-22025714D02*
X27216666Y-22025714D01*
X26978571Y-21692380D02*
X26978571Y-22549523D01*
X27026190Y-22644761D01*
X27121428Y-22692380D01*
X27216666Y-22692380D01*
X27930952Y-22644761D02*
X27835714Y-22692380D01*
X27645238Y-22692380D01*
X27550000Y-22644761D01*
X27502380Y-22549523D01*
X27502380Y-22168571D01*
X27550000Y-22073333D01*
X27645238Y-22025714D01*
X27835714Y-22025714D01*
X27930952Y-22073333D01*
X27978571Y-22168571D01*
X27978571Y-22263809D01*
X27502380Y-22359047D01*
X28835714Y-22025714D02*
X28835714Y-22692380D01*
X28407142Y-22025714D02*
X28407142Y-22549523D01*
X28454761Y-22644761D01*
X28550000Y-22692380D01*
X28692857Y-22692380D01*
X28788095Y-22644761D01*
X28835714Y-22597142D01*
X29311904Y-22692380D02*
X29311904Y-22025714D01*
X29311904Y-22216190D02*
X29359523Y-22120952D01*
X29407142Y-22073333D01*
X29502380Y-22025714D01*
X29597619Y-22025714D01*
X31216666Y-22692380D02*
X30645238Y-22692380D01*
X30930952Y-22692380D02*
X30930952Y-21692380D01*
X30835714Y-21835238D01*
X30740476Y-21930476D01*
X30645238Y-21978095D01*
X51641904Y-50712380D02*
X52213333Y-50712380D01*
X51927619Y-51712380D02*
X51927619Y-50712380D01*
X52737142Y-50712380D02*
X52927619Y-50712380D01*
X53022857Y-50760000D01*
X53118095Y-50855238D01*
X53165714Y-51045714D01*
X53165714Y-51379047D01*
X53118095Y-51569523D01*
X53022857Y-51664761D01*
X52927619Y-51712380D01*
X52737142Y-51712380D01*
X52641904Y-51664761D01*
X52546666Y-51569523D01*
X52499047Y-51379047D01*
X52499047Y-51045714D01*
X52546666Y-50855238D01*
X52641904Y-50760000D01*
X52737142Y-50712380D01*
X53927619Y-51188571D02*
X53594285Y-51188571D01*
X53594285Y-51712380D02*
X53594285Y-50712380D01*
X54070476Y-50712380D01*
X45878571Y-21067142D02*
X45926190Y-20924285D01*
X45973809Y-20876666D01*
X46069047Y-20829047D01*
X46211904Y-20829047D01*
X46307142Y-20876666D01*
X46354761Y-20924285D01*
X46402380Y-21019523D01*
X46402380Y-21400476D01*
X45402380Y-21400476D01*
X45402380Y-21067142D01*
X45450000Y-20971904D01*
X45497619Y-20924285D01*
X45592857Y-20876666D01*
X45688095Y-20876666D01*
X45783333Y-20924285D01*
X45830952Y-20971904D01*
X45878571Y-21067142D01*
X45878571Y-21400476D01*
X46402380Y-19971904D02*
X45878571Y-19971904D01*
X45783333Y-20019523D01*
X45735714Y-20114761D01*
X45735714Y-20305238D01*
X45783333Y-20400476D01*
X46354761Y-19971904D02*
X46402380Y-20067142D01*
X46402380Y-20305238D01*
X46354761Y-20400476D01*
X46259523Y-20448095D01*
X46164285Y-20448095D01*
X46069047Y-20400476D01*
X46021428Y-20305238D01*
X46021428Y-20067142D01*
X45973809Y-19971904D01*
X45735714Y-19638571D02*
X45735714Y-19257619D01*
X45402380Y-19495714D02*
X46259523Y-19495714D01*
X46354761Y-19448095D01*
X46402380Y-19352857D01*
X46402380Y-19257619D01*
X45735714Y-19067142D02*
X45735714Y-18686190D01*
X45402380Y-18924285D02*
X46259523Y-18924285D01*
X46354761Y-18876666D01*
X46402380Y-18781428D01*
X46402380Y-18686190D01*
X46354761Y-17971904D02*
X46402380Y-18067142D01*
X46402380Y-18257619D01*
X46354761Y-18352857D01*
X46259523Y-18400476D01*
X45878571Y-18400476D01*
X45783333Y-18352857D01*
X45735714Y-18257619D01*
X45735714Y-18067142D01*
X45783333Y-17971904D01*
X45878571Y-17924285D01*
X45973809Y-17924285D01*
X46069047Y-18400476D01*
X46402380Y-17495714D02*
X45735714Y-17495714D01*
X45926190Y-17495714D02*
X45830952Y-17448095D01*
X45783333Y-17400476D01*
X45735714Y-17305238D01*
X45735714Y-17210000D01*
X46402380Y-16876666D02*
X45735714Y-16876666D01*
X45402380Y-16876666D02*
X45450000Y-16924285D01*
X45497619Y-16876666D01*
X45450000Y-16829047D01*
X45402380Y-16876666D01*
X45497619Y-16876666D01*
X46354761Y-16019523D02*
X46402380Y-16114761D01*
X46402380Y-16305238D01*
X46354761Y-16400476D01*
X46259523Y-16448095D01*
X45878571Y-16448095D01*
X45783333Y-16400476D01*
X45735714Y-16305238D01*
X45735714Y-16114761D01*
X45783333Y-16019523D01*
X45878571Y-15971904D01*
X45973809Y-15971904D01*
X46069047Y-16448095D01*
X92794761Y-19787142D02*
X92842380Y-19644285D01*
X92842380Y-19406190D01*
X92794761Y-19310952D01*
X92747142Y-19263333D01*
X92651904Y-19215714D01*
X92556666Y-19215714D01*
X92461428Y-19263333D01*
X92413809Y-19310952D01*
X92366190Y-19406190D01*
X92318571Y-19596666D01*
X92270952Y-19691904D01*
X92223333Y-19739523D01*
X92128095Y-19787142D01*
X92032857Y-19787142D01*
X91937619Y-19739523D01*
X91890000Y-19691904D01*
X91842380Y-19596666D01*
X91842380Y-19358571D01*
X91890000Y-19215714D01*
X92794761Y-18406190D02*
X92842380Y-18501428D01*
X92842380Y-18691904D01*
X92794761Y-18787142D01*
X92699523Y-18834761D01*
X92318571Y-18834761D01*
X92223333Y-18787142D01*
X92175714Y-18691904D01*
X92175714Y-18501428D01*
X92223333Y-18406190D01*
X92318571Y-18358571D01*
X92413809Y-18358571D01*
X92509047Y-18834761D01*
X92842380Y-17930000D02*
X92175714Y-17930000D01*
X92366190Y-17930000D02*
X92270952Y-17882380D01*
X92223333Y-17834761D01*
X92175714Y-17739523D01*
X92175714Y-17644285D01*
X92175714Y-17406190D02*
X92842380Y-17168095D01*
X92175714Y-16930000D01*
X92842380Y-16406190D02*
X92794761Y-16501428D01*
X92747142Y-16549047D01*
X92651904Y-16596666D01*
X92366190Y-16596666D01*
X92270952Y-16549047D01*
X92223333Y-16501428D01*
X92175714Y-16406190D01*
X92175714Y-16263333D01*
X92223333Y-16168095D01*
X92270952Y-16120476D01*
X92366190Y-16072857D01*
X92651904Y-16072857D01*
X92747142Y-16120476D01*
X92794761Y-16168095D01*
X92842380Y-16263333D01*
X92842380Y-16406190D01*
D11*
X45278571Y-15367142D02*
X46421428Y-15367142D01*
D12*
X23396190Y-56666666D02*
X23872380Y-56666666D01*
X23300952Y-56952380D02*
X23634285Y-55952380D01*
X23967619Y-56952380D01*
X24253333Y-56904761D02*
X24348571Y-56952380D01*
X24539047Y-56952380D01*
X24634285Y-56904761D01*
X24681904Y-56809523D01*
X24681904Y-56761904D01*
X24634285Y-56666666D01*
X24539047Y-56619047D01*
X24396190Y-56619047D01*
X24300952Y-56571428D01*
X24253333Y-56476190D01*
X24253333Y-56428571D01*
X24300952Y-56333333D01*
X24396190Y-56285714D01*
X24539047Y-56285714D01*
X24634285Y-56333333D01*
X24967619Y-56285714D02*
X25348571Y-56285714D01*
X25110476Y-56952380D02*
X25110476Y-56095238D01*
X25158095Y-56000000D01*
X25253333Y-55952380D01*
X25348571Y-55952380D01*
X26110476Y-56952380D02*
X26110476Y-56428571D01*
X26062857Y-56333333D01*
X25967619Y-56285714D01*
X25777142Y-56285714D01*
X25681904Y-56333333D01*
X26110476Y-56904761D02*
X26015238Y-56952380D01*
X25777142Y-56952380D01*
X25681904Y-56904761D01*
X25634285Y-56809523D01*
X25634285Y-56714285D01*
X25681904Y-56619047D01*
X25777142Y-56571428D01*
X26015238Y-56571428D01*
X26110476Y-56523809D01*
X26586666Y-56952380D02*
X26586666Y-56285714D01*
X26586666Y-56476190D02*
X26634285Y-56380952D01*
X26681904Y-56333333D01*
X26777142Y-56285714D01*
X26872380Y-56285714D01*
X27110476Y-56285714D02*
X27348571Y-56952380D01*
X27586666Y-56285714D02*
X27348571Y-56952380D01*
X27253333Y-57190476D01*
X27205714Y-57238095D01*
X27110476Y-57285714D01*
X28729523Y-56952380D02*
X28729523Y-55952380D01*
X28729523Y-56428571D02*
X29300952Y-56428571D01*
X29300952Y-56952380D02*
X29300952Y-55952380D01*
X30158095Y-56904761D02*
X30062857Y-56952380D01*
X29872380Y-56952380D01*
X29777142Y-56904761D01*
X29729523Y-56809523D01*
X29729523Y-56428571D01*
X29777142Y-56333333D01*
X29872380Y-56285714D01*
X30062857Y-56285714D01*
X30158095Y-56333333D01*
X30205714Y-56428571D01*
X30205714Y-56523809D01*
X29729523Y-56619047D01*
X30634285Y-56952380D02*
X30634285Y-56285714D01*
X30634285Y-56476190D02*
X30681904Y-56380952D01*
X30729523Y-56333333D01*
X30824761Y-56285714D01*
X30919999Y-56285714D01*
X31253333Y-56952380D02*
X31253333Y-55952380D01*
X31253333Y-56333333D02*
X31348571Y-56285714D01*
X31539047Y-56285714D01*
X31634285Y-56333333D01*
X31681904Y-56380952D01*
X31729523Y-56476190D01*
X31729523Y-56761904D01*
X31681904Y-56857142D01*
X31634285Y-56904761D01*
X31539047Y-56952380D01*
X31348571Y-56952380D01*
X31253333Y-56904761D01*
X32539047Y-56904761D02*
X32443809Y-56952380D01*
X32253333Y-56952380D01*
X32158095Y-56904761D01*
X32110476Y-56809523D01*
X32110476Y-56428571D01*
X32158095Y-56333333D01*
X32253333Y-56285714D01*
X32443809Y-56285714D01*
X32539047Y-56333333D01*
X32586666Y-56428571D01*
X32586666Y-56523809D01*
X32110476Y-56619047D01*
X33158095Y-56952380D02*
X33062857Y-56904761D01*
X33015238Y-56809523D01*
X33015238Y-55952380D01*
X33539047Y-56952380D02*
X33539047Y-56285714D01*
X33539047Y-55952380D02*
X33491428Y-56000000D01*
X33539047Y-56047619D01*
X33586666Y-56000000D01*
X33539047Y-55952380D01*
X33539047Y-56047619D01*
X34015238Y-56285714D02*
X34015238Y-56952380D01*
X34015238Y-56380952D02*
X34062857Y-56333333D01*
X34158095Y-56285714D01*
X34300952Y-56285714D01*
X34396190Y-56333333D01*
X34443809Y-56428571D01*
X34443809Y-56952380D01*
X36253333Y-56952380D02*
X35920000Y-56476190D01*
X35681904Y-56952380D02*
X35681904Y-55952380D01*
X36062857Y-55952380D01*
X36158095Y-56000000D01*
X36205714Y-56047619D01*
X36253333Y-56142857D01*
X36253333Y-56285714D01*
X36205714Y-56380952D01*
X36158095Y-56428571D01*
X36062857Y-56476190D01*
X35681904Y-56476190D01*
X37110476Y-56285714D02*
X37110476Y-56952380D01*
X36681904Y-56285714D02*
X36681904Y-56809523D01*
X36729523Y-56904761D01*
X36824761Y-56952380D01*
X36967619Y-56952380D01*
X37062857Y-56904761D01*
X37110476Y-56857142D01*
X37586666Y-56952380D02*
X37586666Y-56285714D01*
X37586666Y-55952380D02*
X37539047Y-56000000D01*
X37586666Y-56047619D01*
X37634285Y-56000000D01*
X37586666Y-55952380D01*
X37586666Y-56047619D01*
X37967619Y-56285714D02*
X38491428Y-56285714D01*
X37967619Y-56952380D01*
X38491428Y-56952380D01*
X104872857Y-58722380D02*
X104872857Y-57722380D01*
X105349047Y-58055714D02*
X105349047Y-58722380D01*
X105349047Y-58150952D02*
X105396666Y-58103333D01*
X105491904Y-58055714D01*
X105634761Y-58055714D01*
X105730000Y-58103333D01*
X105777619Y-58198571D01*
X105777619Y-58722380D01*
X106110952Y-58055714D02*
X106491904Y-58055714D01*
X106253809Y-58722380D02*
X106253809Y-57865238D01*
X106301428Y-57770000D01*
X106396666Y-57722380D01*
X106491904Y-57722380D01*
X106825238Y-58722380D02*
X106825238Y-58055714D01*
X106825238Y-58246190D02*
X106872857Y-58150952D01*
X106920476Y-58103333D01*
X107015714Y-58055714D01*
X107110952Y-58055714D01*
X107872857Y-58722380D02*
X107872857Y-58198571D01*
X107825238Y-58103333D01*
X107730000Y-58055714D01*
X107539523Y-58055714D01*
X107444285Y-58103333D01*
X107872857Y-58674761D02*
X107777619Y-58722380D01*
X107539523Y-58722380D01*
X107444285Y-58674761D01*
X107396666Y-58579523D01*
X107396666Y-58484285D01*
X107444285Y-58389047D01*
X107539523Y-58341428D01*
X107777619Y-58341428D01*
X107872857Y-58293809D01*
X109063333Y-57817619D02*
X109110952Y-57770000D01*
X109206190Y-57722380D01*
X109444285Y-57722380D01*
X109539523Y-57770000D01*
X109587142Y-57817619D01*
X109634761Y-57912857D01*
X109634761Y-58008095D01*
X109587142Y-58150952D01*
X109015714Y-58722380D01*
X109634761Y-58722380D01*
%TO.C,U501*%
X32355714Y-22837380D02*
X32355714Y-23646904D01*
X32403333Y-23742142D01*
X32450952Y-23789761D01*
X32546190Y-23837380D01*
X32736666Y-23837380D01*
X32831904Y-23789761D01*
X32879523Y-23742142D01*
X32927142Y-23646904D01*
X32927142Y-22837380D01*
X33879523Y-22837380D02*
X33403333Y-22837380D01*
X33355714Y-23313571D01*
X33403333Y-23265952D01*
X33498571Y-23218333D01*
X33736666Y-23218333D01*
X33831904Y-23265952D01*
X33879523Y-23313571D01*
X33927142Y-23408809D01*
X33927142Y-23646904D01*
X33879523Y-23742142D01*
X33831904Y-23789761D01*
X33736666Y-23837380D01*
X33498571Y-23837380D01*
X33403333Y-23789761D01*
X33355714Y-23742142D01*
X34546190Y-22837380D02*
X34641428Y-22837380D01*
X34736666Y-22885000D01*
X34784285Y-22932619D01*
X34831904Y-23027857D01*
X34879523Y-23218333D01*
X34879523Y-23456428D01*
X34831904Y-23646904D01*
X34784285Y-23742142D01*
X34736666Y-23789761D01*
X34641428Y-23837380D01*
X34546190Y-23837380D01*
X34450952Y-23789761D01*
X34403333Y-23742142D01*
X34355714Y-23646904D01*
X34308095Y-23456428D01*
X34308095Y-23218333D01*
X34355714Y-23027857D01*
X34403333Y-22932619D01*
X34450952Y-22885000D01*
X34546190Y-22837380D01*
X35831904Y-23837380D02*
X35260476Y-23837380D01*
X35546190Y-23837380D02*
X35546190Y-22837380D01*
X35450952Y-22980238D01*
X35355714Y-23075476D01*
X35260476Y-23123095D01*
%TO.C,R501*%
X88390952Y-22312380D02*
X88057619Y-21836190D01*
X87819523Y-22312380D02*
X87819523Y-21312380D01*
X88200476Y-21312380D01*
X88295714Y-21360000D01*
X88343333Y-21407619D01*
X88390952Y-21502857D01*
X88390952Y-21645714D01*
X88343333Y-21740952D01*
X88295714Y-21788571D01*
X88200476Y-21836190D01*
X87819523Y-21836190D01*
X89295714Y-21312380D02*
X88819523Y-21312380D01*
X88771904Y-21788571D01*
X88819523Y-21740952D01*
X88914761Y-21693333D01*
X89152857Y-21693333D01*
X89248095Y-21740952D01*
X89295714Y-21788571D01*
X89343333Y-21883809D01*
X89343333Y-22121904D01*
X89295714Y-22217142D01*
X89248095Y-22264761D01*
X89152857Y-22312380D01*
X88914761Y-22312380D01*
X88819523Y-22264761D01*
X88771904Y-22217142D01*
X89962380Y-21312380D02*
X90057619Y-21312380D01*
X90152857Y-21360000D01*
X90200476Y-21407619D01*
X90248095Y-21502857D01*
X90295714Y-21693333D01*
X90295714Y-21931428D01*
X90248095Y-22121904D01*
X90200476Y-22217142D01*
X90152857Y-22264761D01*
X90057619Y-22312380D01*
X89962380Y-22312380D01*
X89867142Y-22264761D01*
X89819523Y-22217142D01*
X89771904Y-22121904D01*
X89724285Y-21931428D01*
X89724285Y-21693333D01*
X89771904Y-21502857D01*
X89819523Y-21407619D01*
X89867142Y-21360000D01*
X89962380Y-21312380D01*
X91248095Y-22312380D02*
X90676666Y-22312380D01*
X90962380Y-22312380D02*
X90962380Y-21312380D01*
X90867142Y-21455238D01*
X90771904Y-21550476D01*
X90676666Y-21598095D01*
%TO.C,J102*%
X119714285Y-25902380D02*
X119714285Y-26616666D01*
X119666666Y-26759523D01*
X119571428Y-26854761D01*
X119428571Y-26902380D01*
X119333333Y-26902380D01*
X120714285Y-26902380D02*
X120142857Y-26902380D01*
X120428571Y-26902380D02*
X120428571Y-25902380D01*
X120333333Y-26045238D01*
X120238095Y-26140476D01*
X120142857Y-26188095D01*
X121333333Y-25902380D02*
X121428571Y-25902380D01*
X121523809Y-25950000D01*
X121571428Y-25997619D01*
X121619047Y-26092857D01*
X121666666Y-26283333D01*
X121666666Y-26521428D01*
X121619047Y-26711904D01*
X121571428Y-26807142D01*
X121523809Y-26854761D01*
X121428571Y-26902380D01*
X121333333Y-26902380D01*
X121238095Y-26854761D01*
X121190476Y-26807142D01*
X121142857Y-26711904D01*
X121095238Y-26521428D01*
X121095238Y-26283333D01*
X121142857Y-26092857D01*
X121190476Y-25997619D01*
X121238095Y-25950000D01*
X121333333Y-25902380D01*
X122047619Y-25997619D02*
X122095238Y-25950000D01*
X122190476Y-25902380D01*
X122428571Y-25902380D01*
X122523809Y-25950000D01*
X122571428Y-25997619D01*
X122619047Y-26092857D01*
X122619047Y-26188095D01*
X122571428Y-26330952D01*
X122000000Y-26902380D01*
X122619047Y-26902380D01*
%TO.C,JP506*%
X42774285Y-23792380D02*
X42774285Y-24506666D01*
X42726666Y-24649523D01*
X42631428Y-24744761D01*
X42488571Y-24792380D01*
X42393333Y-24792380D01*
X43250476Y-24792380D02*
X43250476Y-23792380D01*
X43631428Y-23792380D01*
X43726666Y-23840000D01*
X43774285Y-23887619D01*
X43821904Y-23982857D01*
X43821904Y-24125714D01*
X43774285Y-24220952D01*
X43726666Y-24268571D01*
X43631428Y-24316190D01*
X43250476Y-24316190D01*
X44726666Y-23792380D02*
X44250476Y-23792380D01*
X44202857Y-24268571D01*
X44250476Y-24220952D01*
X44345714Y-24173333D01*
X44583809Y-24173333D01*
X44679047Y-24220952D01*
X44726666Y-24268571D01*
X44774285Y-24363809D01*
X44774285Y-24601904D01*
X44726666Y-24697142D01*
X44679047Y-24744761D01*
X44583809Y-24792380D01*
X44345714Y-24792380D01*
X44250476Y-24744761D01*
X44202857Y-24697142D01*
X45393333Y-23792380D02*
X45488571Y-23792380D01*
X45583809Y-23840000D01*
X45631428Y-23887619D01*
X45679047Y-23982857D01*
X45726666Y-24173333D01*
X45726666Y-24411428D01*
X45679047Y-24601904D01*
X45631428Y-24697142D01*
X45583809Y-24744761D01*
X45488571Y-24792380D01*
X45393333Y-24792380D01*
X45298095Y-24744761D01*
X45250476Y-24697142D01*
X45202857Y-24601904D01*
X45155238Y-24411428D01*
X45155238Y-24173333D01*
X45202857Y-23982857D01*
X45250476Y-23887619D01*
X45298095Y-23840000D01*
X45393333Y-23792380D01*
X46583809Y-23792380D02*
X46393333Y-23792380D01*
X46298095Y-23840000D01*
X46250476Y-23887619D01*
X46155238Y-24030476D01*
X46107619Y-24220952D01*
X46107619Y-24601904D01*
X46155238Y-24697142D01*
X46202857Y-24744761D01*
X46298095Y-24792380D01*
X46488571Y-24792380D01*
X46583809Y-24744761D01*
X46631428Y-24697142D01*
X46679047Y-24601904D01*
X46679047Y-24363809D01*
X46631428Y-24268571D01*
X46583809Y-24220952D01*
X46488571Y-24173333D01*
X46298095Y-24173333D01*
X46202857Y-24220952D01*
X46155238Y-24268571D01*
X46107619Y-24363809D01*
%TO.C,J204*%
X101402380Y-63845714D02*
X102116666Y-63845714D01*
X102259523Y-63893333D01*
X102354761Y-63988571D01*
X102402380Y-64131428D01*
X102402380Y-64226666D01*
X101497619Y-63417142D02*
X101450000Y-63369523D01*
X101402380Y-63274285D01*
X101402380Y-63036190D01*
X101450000Y-62940952D01*
X101497619Y-62893333D01*
X101592857Y-62845714D01*
X101688095Y-62845714D01*
X101830952Y-62893333D01*
X102402380Y-63464761D01*
X102402380Y-62845714D01*
X101402380Y-62226666D02*
X101402380Y-62131428D01*
X101450000Y-62036190D01*
X101497619Y-61988571D01*
X101592857Y-61940952D01*
X101783333Y-61893333D01*
X102021428Y-61893333D01*
X102211904Y-61940952D01*
X102307142Y-61988571D01*
X102354761Y-62036190D01*
X102402380Y-62131428D01*
X102402380Y-62226666D01*
X102354761Y-62321904D01*
X102307142Y-62369523D01*
X102211904Y-62417142D01*
X102021428Y-62464761D01*
X101783333Y-62464761D01*
X101592857Y-62417142D01*
X101497619Y-62369523D01*
X101450000Y-62321904D01*
X101402380Y-62226666D01*
X101735714Y-61036190D02*
X102402380Y-61036190D01*
X101354761Y-61274285D02*
X102069047Y-61512380D01*
X102069047Y-60893333D01*
%TO.C,J202*%
X38402380Y-55005714D02*
X39116666Y-55005714D01*
X39259523Y-55053333D01*
X39354761Y-55148571D01*
X39402380Y-55291428D01*
X39402380Y-55386666D01*
X38497619Y-54577142D02*
X38450000Y-54529523D01*
X38402380Y-54434285D01*
X38402380Y-54196190D01*
X38450000Y-54100952D01*
X38497619Y-54053333D01*
X38592857Y-54005714D01*
X38688095Y-54005714D01*
X38830952Y-54053333D01*
X39402380Y-54624761D01*
X39402380Y-54005714D01*
X38402380Y-53386666D02*
X38402380Y-53291428D01*
X38450000Y-53196190D01*
X38497619Y-53148571D01*
X38592857Y-53100952D01*
X38783333Y-53053333D01*
X39021428Y-53053333D01*
X39211904Y-53100952D01*
X39307142Y-53148571D01*
X39354761Y-53196190D01*
X39402380Y-53291428D01*
X39402380Y-53386666D01*
X39354761Y-53481904D01*
X39307142Y-53529523D01*
X39211904Y-53577142D01*
X39021428Y-53624761D01*
X38783333Y-53624761D01*
X38592857Y-53577142D01*
X38497619Y-53529523D01*
X38450000Y-53481904D01*
X38402380Y-53386666D01*
X38497619Y-52672380D02*
X38450000Y-52624761D01*
X38402380Y-52529523D01*
X38402380Y-52291428D01*
X38450000Y-52196190D01*
X38497619Y-52148571D01*
X38592857Y-52100952D01*
X38688095Y-52100952D01*
X38830952Y-52148571D01*
X39402380Y-52720000D01*
X39402380Y-52100952D01*
%TO.C,JP505*%
X21784285Y-23657380D02*
X21784285Y-24371666D01*
X21736666Y-24514523D01*
X21641428Y-24609761D01*
X21498571Y-24657380D01*
X21403333Y-24657380D01*
X22260476Y-24657380D02*
X22260476Y-23657380D01*
X22641428Y-23657380D01*
X22736666Y-23705000D01*
X22784285Y-23752619D01*
X22831904Y-23847857D01*
X22831904Y-23990714D01*
X22784285Y-24085952D01*
X22736666Y-24133571D01*
X22641428Y-24181190D01*
X22260476Y-24181190D01*
X23736666Y-23657380D02*
X23260476Y-23657380D01*
X23212857Y-24133571D01*
X23260476Y-24085952D01*
X23355714Y-24038333D01*
X23593809Y-24038333D01*
X23689047Y-24085952D01*
X23736666Y-24133571D01*
X23784285Y-24228809D01*
X23784285Y-24466904D01*
X23736666Y-24562142D01*
X23689047Y-24609761D01*
X23593809Y-24657380D01*
X23355714Y-24657380D01*
X23260476Y-24609761D01*
X23212857Y-24562142D01*
X24403333Y-23657380D02*
X24498571Y-23657380D01*
X24593809Y-23705000D01*
X24641428Y-23752619D01*
X24689047Y-23847857D01*
X24736666Y-24038333D01*
X24736666Y-24276428D01*
X24689047Y-24466904D01*
X24641428Y-24562142D01*
X24593809Y-24609761D01*
X24498571Y-24657380D01*
X24403333Y-24657380D01*
X24308095Y-24609761D01*
X24260476Y-24562142D01*
X24212857Y-24466904D01*
X24165238Y-24276428D01*
X24165238Y-24038333D01*
X24212857Y-23847857D01*
X24260476Y-23752619D01*
X24308095Y-23705000D01*
X24403333Y-23657380D01*
X25641428Y-23657380D02*
X25165238Y-23657380D01*
X25117619Y-24133571D01*
X25165238Y-24085952D01*
X25260476Y-24038333D01*
X25498571Y-24038333D01*
X25593809Y-24085952D01*
X25641428Y-24133571D01*
X25689047Y-24228809D01*
X25689047Y-24466904D01*
X25641428Y-24562142D01*
X25593809Y-24609761D01*
X25498571Y-24657380D01*
X25260476Y-24657380D01*
X25165238Y-24609761D01*
X25117619Y-24562142D01*
%TO.C,J203*%
X24492380Y-63665714D02*
X25206666Y-63665714D01*
X25349523Y-63713333D01*
X25444761Y-63808571D01*
X25492380Y-63951428D01*
X25492380Y-64046666D01*
X24587619Y-63237142D02*
X24540000Y-63189523D01*
X24492380Y-63094285D01*
X24492380Y-62856190D01*
X24540000Y-62760952D01*
X24587619Y-62713333D01*
X24682857Y-62665714D01*
X24778095Y-62665714D01*
X24920952Y-62713333D01*
X25492380Y-63284761D01*
X25492380Y-62665714D01*
X24492380Y-62046666D02*
X24492380Y-61951428D01*
X24540000Y-61856190D01*
X24587619Y-61808571D01*
X24682857Y-61760952D01*
X24873333Y-61713333D01*
X25111428Y-61713333D01*
X25301904Y-61760952D01*
X25397142Y-61808571D01*
X25444761Y-61856190D01*
X25492380Y-61951428D01*
X25492380Y-62046666D01*
X25444761Y-62141904D01*
X25397142Y-62189523D01*
X25301904Y-62237142D01*
X25111428Y-62284761D01*
X24873333Y-62284761D01*
X24682857Y-62237142D01*
X24587619Y-62189523D01*
X24540000Y-62141904D01*
X24492380Y-62046666D01*
X24492380Y-61380000D02*
X24492380Y-60760952D01*
X24873333Y-61094285D01*
X24873333Y-60951428D01*
X24920952Y-60856190D01*
X24968571Y-60808571D01*
X25063809Y-60760952D01*
X25301904Y-60760952D01*
X25397142Y-60808571D01*
X25444761Y-60856190D01*
X25492380Y-60951428D01*
X25492380Y-61237142D01*
X25444761Y-61332380D01*
X25397142Y-61380000D01*
%TO.C,R308*%
X83460952Y-22142380D02*
X83127619Y-21666190D01*
X82889523Y-22142380D02*
X82889523Y-21142380D01*
X83270476Y-21142380D01*
X83365714Y-21190000D01*
X83413333Y-21237619D01*
X83460952Y-21332857D01*
X83460952Y-21475714D01*
X83413333Y-21570952D01*
X83365714Y-21618571D01*
X83270476Y-21666190D01*
X82889523Y-21666190D01*
X83794285Y-21142380D02*
X84413333Y-21142380D01*
X84080000Y-21523333D01*
X84222857Y-21523333D01*
X84318095Y-21570952D01*
X84365714Y-21618571D01*
X84413333Y-21713809D01*
X84413333Y-21951904D01*
X84365714Y-22047142D01*
X84318095Y-22094761D01*
X84222857Y-22142380D01*
X83937142Y-22142380D01*
X83841904Y-22094761D01*
X83794285Y-22047142D01*
X85032380Y-21142380D02*
X85127619Y-21142380D01*
X85222857Y-21190000D01*
X85270476Y-21237619D01*
X85318095Y-21332857D01*
X85365714Y-21523333D01*
X85365714Y-21761428D01*
X85318095Y-21951904D01*
X85270476Y-22047142D01*
X85222857Y-22094761D01*
X85127619Y-22142380D01*
X85032380Y-22142380D01*
X84937142Y-22094761D01*
X84889523Y-22047142D01*
X84841904Y-21951904D01*
X84794285Y-21761428D01*
X84794285Y-21523333D01*
X84841904Y-21332857D01*
X84889523Y-21237619D01*
X84937142Y-21190000D01*
X85032380Y-21142380D01*
X85937142Y-21570952D02*
X85841904Y-21523333D01*
X85794285Y-21475714D01*
X85746666Y-21380476D01*
X85746666Y-21332857D01*
X85794285Y-21237619D01*
X85841904Y-21190000D01*
X85937142Y-21142380D01*
X86127619Y-21142380D01*
X86222857Y-21190000D01*
X86270476Y-21237619D01*
X86318095Y-21332857D01*
X86318095Y-21380476D01*
X86270476Y-21475714D01*
X86222857Y-21523333D01*
X86127619Y-21570952D01*
X85937142Y-21570952D01*
X85841904Y-21618571D01*
X85794285Y-21666190D01*
X85746666Y-21761428D01*
X85746666Y-21951904D01*
X85794285Y-22047142D01*
X85841904Y-22094761D01*
X85937142Y-22142380D01*
X86127619Y-22142380D01*
X86222857Y-22094761D01*
X86270476Y-22047142D01*
X86318095Y-21951904D01*
X86318095Y-21761428D01*
X86270476Y-21666190D01*
X86222857Y-21618571D01*
X86127619Y-21570952D01*
%TO.C,R305*%
X35193452Y-42402380D02*
X34860119Y-41926190D01*
X34622023Y-42402380D02*
X34622023Y-41402380D01*
X35002976Y-41402380D01*
X35098214Y-41450000D01*
X35145833Y-41497619D01*
X35193452Y-41592857D01*
X35193452Y-41735714D01*
X35145833Y-41830952D01*
X35098214Y-41878571D01*
X35002976Y-41926190D01*
X34622023Y-41926190D01*
X35526785Y-41402380D02*
X36145833Y-41402380D01*
X35812500Y-41783333D01*
X35955357Y-41783333D01*
X36050595Y-41830952D01*
X36098214Y-41878571D01*
X36145833Y-41973809D01*
X36145833Y-42211904D01*
X36098214Y-42307142D01*
X36050595Y-42354761D01*
X35955357Y-42402380D01*
X35669642Y-42402380D01*
X35574404Y-42354761D01*
X35526785Y-42307142D01*
X36764880Y-41402380D02*
X36860119Y-41402380D01*
X36955357Y-41450000D01*
X37002976Y-41497619D01*
X37050595Y-41592857D01*
X37098214Y-41783333D01*
X37098214Y-42021428D01*
X37050595Y-42211904D01*
X37002976Y-42307142D01*
X36955357Y-42354761D01*
X36860119Y-42402380D01*
X36764880Y-42402380D01*
X36669642Y-42354761D01*
X36622023Y-42307142D01*
X36574404Y-42211904D01*
X36526785Y-42021428D01*
X36526785Y-41783333D01*
X36574404Y-41592857D01*
X36622023Y-41497619D01*
X36669642Y-41450000D01*
X36764880Y-41402380D01*
X38002976Y-41402380D02*
X37526785Y-41402380D01*
X37479166Y-41878571D01*
X37526785Y-41830952D01*
X37622023Y-41783333D01*
X37860119Y-41783333D01*
X37955357Y-41830952D01*
X38002976Y-41878571D01*
X38050595Y-41973809D01*
X38050595Y-42211904D01*
X38002976Y-42307142D01*
X37955357Y-42354761D01*
X37860119Y-42402380D01*
X37622023Y-42402380D01*
X37526785Y-42354761D01*
X37479166Y-42307142D01*
%TO.C,J201*%
X38522380Y-63485714D02*
X39236666Y-63485714D01*
X39379523Y-63533333D01*
X39474761Y-63628571D01*
X39522380Y-63771428D01*
X39522380Y-63866666D01*
X38617619Y-63057142D02*
X38570000Y-63009523D01*
X38522380Y-62914285D01*
X38522380Y-62676190D01*
X38570000Y-62580952D01*
X38617619Y-62533333D01*
X38712857Y-62485714D01*
X38808095Y-62485714D01*
X38950952Y-62533333D01*
X39522380Y-63104761D01*
X39522380Y-62485714D01*
X38522380Y-61866666D02*
X38522380Y-61771428D01*
X38570000Y-61676190D01*
X38617619Y-61628571D01*
X38712857Y-61580952D01*
X38903333Y-61533333D01*
X39141428Y-61533333D01*
X39331904Y-61580952D01*
X39427142Y-61628571D01*
X39474761Y-61676190D01*
X39522380Y-61771428D01*
X39522380Y-61866666D01*
X39474761Y-61961904D01*
X39427142Y-62009523D01*
X39331904Y-62057142D01*
X39141428Y-62104761D01*
X38903333Y-62104761D01*
X38712857Y-62057142D01*
X38617619Y-62009523D01*
X38570000Y-61961904D01*
X38522380Y-61866666D01*
X39522380Y-60580952D02*
X39522380Y-61152380D01*
X39522380Y-60866666D02*
X38522380Y-60866666D01*
X38665238Y-60961904D01*
X38760476Y-61057142D01*
X38808095Y-61152380D01*
%TO.C,R202*%
X44632380Y-47221547D02*
X44156190Y-47554880D01*
X44632380Y-47792976D02*
X43632380Y-47792976D01*
X43632380Y-47412023D01*
X43680000Y-47316785D01*
X43727619Y-47269166D01*
X43822857Y-47221547D01*
X43965714Y-47221547D01*
X44060952Y-47269166D01*
X44108571Y-47316785D01*
X44156190Y-47412023D01*
X44156190Y-47792976D01*
X43727619Y-46840595D02*
X43680000Y-46792976D01*
X43632380Y-46697738D01*
X43632380Y-46459642D01*
X43680000Y-46364404D01*
X43727619Y-46316785D01*
X43822857Y-46269166D01*
X43918095Y-46269166D01*
X44060952Y-46316785D01*
X44632380Y-46888214D01*
X44632380Y-46269166D01*
X43632380Y-45650119D02*
X43632380Y-45554880D01*
X43680000Y-45459642D01*
X43727619Y-45412023D01*
X43822857Y-45364404D01*
X44013333Y-45316785D01*
X44251428Y-45316785D01*
X44441904Y-45364404D01*
X44537142Y-45412023D01*
X44584761Y-45459642D01*
X44632380Y-45554880D01*
X44632380Y-45650119D01*
X44584761Y-45745357D01*
X44537142Y-45792976D01*
X44441904Y-45840595D01*
X44251428Y-45888214D01*
X44013333Y-45888214D01*
X43822857Y-45840595D01*
X43727619Y-45792976D01*
X43680000Y-45745357D01*
X43632380Y-45650119D01*
X43727619Y-44935833D02*
X43680000Y-44888214D01*
X43632380Y-44792976D01*
X43632380Y-44554880D01*
X43680000Y-44459642D01*
X43727619Y-44412023D01*
X43822857Y-44364404D01*
X43918095Y-44364404D01*
X44060952Y-44412023D01*
X44632380Y-44983452D01*
X44632380Y-44364404D01*
%TO.C,U502*%
X103615714Y-22392380D02*
X103615714Y-23201904D01*
X103663333Y-23297142D01*
X103710952Y-23344761D01*
X103806190Y-23392380D01*
X103996666Y-23392380D01*
X104091904Y-23344761D01*
X104139523Y-23297142D01*
X104187142Y-23201904D01*
X104187142Y-22392380D01*
X105139523Y-22392380D02*
X104663333Y-22392380D01*
X104615714Y-22868571D01*
X104663333Y-22820952D01*
X104758571Y-22773333D01*
X104996666Y-22773333D01*
X105091904Y-22820952D01*
X105139523Y-22868571D01*
X105187142Y-22963809D01*
X105187142Y-23201904D01*
X105139523Y-23297142D01*
X105091904Y-23344761D01*
X104996666Y-23392380D01*
X104758571Y-23392380D01*
X104663333Y-23344761D01*
X104615714Y-23297142D01*
X105806190Y-22392380D02*
X105901428Y-22392380D01*
X105996666Y-22440000D01*
X106044285Y-22487619D01*
X106091904Y-22582857D01*
X106139523Y-22773333D01*
X106139523Y-23011428D01*
X106091904Y-23201904D01*
X106044285Y-23297142D01*
X105996666Y-23344761D01*
X105901428Y-23392380D01*
X105806190Y-23392380D01*
X105710952Y-23344761D01*
X105663333Y-23297142D01*
X105615714Y-23201904D01*
X105568095Y-23011428D01*
X105568095Y-22773333D01*
X105615714Y-22582857D01*
X105663333Y-22487619D01*
X105710952Y-22440000D01*
X105806190Y-22392380D01*
X106520476Y-22487619D02*
X106568095Y-22440000D01*
X106663333Y-22392380D01*
X106901428Y-22392380D01*
X106996666Y-22440000D01*
X107044285Y-22487619D01*
X107091904Y-22582857D01*
X107091904Y-22678095D01*
X107044285Y-22820952D01*
X106472857Y-23392380D01*
X107091904Y-23392380D01*
%TO.C,R304*%
X31170952Y-42422380D02*
X30837619Y-41946190D01*
X30599523Y-42422380D02*
X30599523Y-41422380D01*
X30980476Y-41422380D01*
X31075714Y-41470000D01*
X31123333Y-41517619D01*
X31170952Y-41612857D01*
X31170952Y-41755714D01*
X31123333Y-41850952D01*
X31075714Y-41898571D01*
X30980476Y-41946190D01*
X30599523Y-41946190D01*
X31504285Y-41422380D02*
X32123333Y-41422380D01*
X31790000Y-41803333D01*
X31932857Y-41803333D01*
X32028095Y-41850952D01*
X32075714Y-41898571D01*
X32123333Y-41993809D01*
X32123333Y-42231904D01*
X32075714Y-42327142D01*
X32028095Y-42374761D01*
X31932857Y-42422380D01*
X31647142Y-42422380D01*
X31551904Y-42374761D01*
X31504285Y-42327142D01*
X32742380Y-41422380D02*
X32837619Y-41422380D01*
X32932857Y-41470000D01*
X32980476Y-41517619D01*
X33028095Y-41612857D01*
X33075714Y-41803333D01*
X33075714Y-42041428D01*
X33028095Y-42231904D01*
X32980476Y-42327142D01*
X32932857Y-42374761D01*
X32837619Y-42422380D01*
X32742380Y-42422380D01*
X32647142Y-42374761D01*
X32599523Y-42327142D01*
X32551904Y-42231904D01*
X32504285Y-42041428D01*
X32504285Y-41803333D01*
X32551904Y-41612857D01*
X32599523Y-41517619D01*
X32647142Y-41470000D01*
X32742380Y-41422380D01*
X33932857Y-41755714D02*
X33932857Y-42422380D01*
X33694761Y-41374761D02*
X33456666Y-42089047D01*
X34075714Y-42089047D01*
%TO.C,JP502*%
X39844285Y-31432380D02*
X39844285Y-32146666D01*
X39796666Y-32289523D01*
X39701428Y-32384761D01*
X39558571Y-32432380D01*
X39463333Y-32432380D01*
X40320476Y-32432380D02*
X40320476Y-31432380D01*
X40701428Y-31432380D01*
X40796666Y-31480000D01*
X40844285Y-31527619D01*
X40891904Y-31622857D01*
X40891904Y-31765714D01*
X40844285Y-31860952D01*
X40796666Y-31908571D01*
X40701428Y-31956190D01*
X40320476Y-31956190D01*
X41796666Y-31432380D02*
X41320476Y-31432380D01*
X41272857Y-31908571D01*
X41320476Y-31860952D01*
X41415714Y-31813333D01*
X41653809Y-31813333D01*
X41749047Y-31860952D01*
X41796666Y-31908571D01*
X41844285Y-32003809D01*
X41844285Y-32241904D01*
X41796666Y-32337142D01*
X41749047Y-32384761D01*
X41653809Y-32432380D01*
X41415714Y-32432380D01*
X41320476Y-32384761D01*
X41272857Y-32337142D01*
X42463333Y-31432380D02*
X42558571Y-31432380D01*
X42653809Y-31480000D01*
X42701428Y-31527619D01*
X42749047Y-31622857D01*
X42796666Y-31813333D01*
X42796666Y-32051428D01*
X42749047Y-32241904D01*
X42701428Y-32337142D01*
X42653809Y-32384761D01*
X42558571Y-32432380D01*
X42463333Y-32432380D01*
X42368095Y-32384761D01*
X42320476Y-32337142D01*
X42272857Y-32241904D01*
X42225238Y-32051428D01*
X42225238Y-31813333D01*
X42272857Y-31622857D01*
X42320476Y-31527619D01*
X42368095Y-31480000D01*
X42463333Y-31432380D01*
X43177619Y-31527619D02*
X43225238Y-31480000D01*
X43320476Y-31432380D01*
X43558571Y-31432380D01*
X43653809Y-31480000D01*
X43701428Y-31527619D01*
X43749047Y-31622857D01*
X43749047Y-31718095D01*
X43701428Y-31860952D01*
X43130000Y-32432380D01*
X43749047Y-32432380D01*
%TO.C,JP202*%
X56004285Y-36112380D02*
X56004285Y-36826666D01*
X55956666Y-36969523D01*
X55861428Y-37064761D01*
X55718571Y-37112380D01*
X55623333Y-37112380D01*
X56480476Y-37112380D02*
X56480476Y-36112380D01*
X56861428Y-36112380D01*
X56956666Y-36160000D01*
X57004285Y-36207619D01*
X57051904Y-36302857D01*
X57051904Y-36445714D01*
X57004285Y-36540952D01*
X56956666Y-36588571D01*
X56861428Y-36636190D01*
X56480476Y-36636190D01*
X57432857Y-36207619D02*
X57480476Y-36160000D01*
X57575714Y-36112380D01*
X57813809Y-36112380D01*
X57909047Y-36160000D01*
X57956666Y-36207619D01*
X58004285Y-36302857D01*
X58004285Y-36398095D01*
X57956666Y-36540952D01*
X57385238Y-37112380D01*
X58004285Y-37112380D01*
X58623333Y-36112380D02*
X58718571Y-36112380D01*
X58813809Y-36160000D01*
X58861428Y-36207619D01*
X58909047Y-36302857D01*
X58956666Y-36493333D01*
X58956666Y-36731428D01*
X58909047Y-36921904D01*
X58861428Y-37017142D01*
X58813809Y-37064761D01*
X58718571Y-37112380D01*
X58623333Y-37112380D01*
X58528095Y-37064761D01*
X58480476Y-37017142D01*
X58432857Y-36921904D01*
X58385238Y-36731428D01*
X58385238Y-36493333D01*
X58432857Y-36302857D01*
X58480476Y-36207619D01*
X58528095Y-36160000D01*
X58623333Y-36112380D01*
X59337619Y-36207619D02*
X59385238Y-36160000D01*
X59480476Y-36112380D01*
X59718571Y-36112380D01*
X59813809Y-36160000D01*
X59861428Y-36207619D01*
X59909047Y-36302857D01*
X59909047Y-36398095D01*
X59861428Y-36540952D01*
X59290000Y-37112380D01*
X59909047Y-37112380D01*
%TO.C,R205*%
X50082380Y-47271547D02*
X49606190Y-47604880D01*
X50082380Y-47842976D02*
X49082380Y-47842976D01*
X49082380Y-47462023D01*
X49130000Y-47366785D01*
X49177619Y-47319166D01*
X49272857Y-47271547D01*
X49415714Y-47271547D01*
X49510952Y-47319166D01*
X49558571Y-47366785D01*
X49606190Y-47462023D01*
X49606190Y-47842976D01*
X49177619Y-46890595D02*
X49130000Y-46842976D01*
X49082380Y-46747738D01*
X49082380Y-46509642D01*
X49130000Y-46414404D01*
X49177619Y-46366785D01*
X49272857Y-46319166D01*
X49368095Y-46319166D01*
X49510952Y-46366785D01*
X50082380Y-46938214D01*
X50082380Y-46319166D01*
X49082380Y-45700119D02*
X49082380Y-45604880D01*
X49130000Y-45509642D01*
X49177619Y-45462023D01*
X49272857Y-45414404D01*
X49463333Y-45366785D01*
X49701428Y-45366785D01*
X49891904Y-45414404D01*
X49987142Y-45462023D01*
X50034761Y-45509642D01*
X50082380Y-45604880D01*
X50082380Y-45700119D01*
X50034761Y-45795357D01*
X49987142Y-45842976D01*
X49891904Y-45890595D01*
X49701428Y-45938214D01*
X49463333Y-45938214D01*
X49272857Y-45890595D01*
X49177619Y-45842976D01*
X49130000Y-45795357D01*
X49082380Y-45700119D01*
X49082380Y-44462023D02*
X49082380Y-44938214D01*
X49558571Y-44985833D01*
X49510952Y-44938214D01*
X49463333Y-44842976D01*
X49463333Y-44604880D01*
X49510952Y-44509642D01*
X49558571Y-44462023D01*
X49653809Y-44414404D01*
X49891904Y-44414404D01*
X49987142Y-44462023D01*
X50034761Y-44509642D01*
X50082380Y-44604880D01*
X50082380Y-44842976D01*
X50034761Y-44938214D01*
X49987142Y-44985833D01*
%TO.C,J207*%
X82722380Y-63995714D02*
X83436666Y-63995714D01*
X83579523Y-64043333D01*
X83674761Y-64138571D01*
X83722380Y-64281428D01*
X83722380Y-64376666D01*
X82817619Y-63567142D02*
X82770000Y-63519523D01*
X82722380Y-63424285D01*
X82722380Y-63186190D01*
X82770000Y-63090952D01*
X82817619Y-63043333D01*
X82912857Y-62995714D01*
X83008095Y-62995714D01*
X83150952Y-63043333D01*
X83722380Y-63614761D01*
X83722380Y-62995714D01*
X82722380Y-62376666D02*
X82722380Y-62281428D01*
X82770000Y-62186190D01*
X82817619Y-62138571D01*
X82912857Y-62090952D01*
X83103333Y-62043333D01*
X83341428Y-62043333D01*
X83531904Y-62090952D01*
X83627142Y-62138571D01*
X83674761Y-62186190D01*
X83722380Y-62281428D01*
X83722380Y-62376666D01*
X83674761Y-62471904D01*
X83627142Y-62519523D01*
X83531904Y-62567142D01*
X83341428Y-62614761D01*
X83103333Y-62614761D01*
X82912857Y-62567142D01*
X82817619Y-62519523D01*
X82770000Y-62471904D01*
X82722380Y-62376666D01*
X82722380Y-61710000D02*
X82722380Y-61043333D01*
X83722380Y-61471904D01*
%TO.C,J503*%
X79332380Y-19285714D02*
X80046666Y-19285714D01*
X80189523Y-19333333D01*
X80284761Y-19428571D01*
X80332380Y-19571428D01*
X80332380Y-19666666D01*
X79332380Y-18333333D02*
X79332380Y-18809523D01*
X79808571Y-18857142D01*
X79760952Y-18809523D01*
X79713333Y-18714285D01*
X79713333Y-18476190D01*
X79760952Y-18380952D01*
X79808571Y-18333333D01*
X79903809Y-18285714D01*
X80141904Y-18285714D01*
X80237142Y-18333333D01*
X80284761Y-18380952D01*
X80332380Y-18476190D01*
X80332380Y-18714285D01*
X80284761Y-18809523D01*
X80237142Y-18857142D01*
X79332380Y-17666666D02*
X79332380Y-17571428D01*
X79380000Y-17476190D01*
X79427619Y-17428571D01*
X79522857Y-17380952D01*
X79713333Y-17333333D01*
X79951428Y-17333333D01*
X80141904Y-17380952D01*
X80237142Y-17428571D01*
X80284761Y-17476190D01*
X80332380Y-17571428D01*
X80332380Y-17666666D01*
X80284761Y-17761904D01*
X80237142Y-17809523D01*
X80141904Y-17857142D01*
X79951428Y-17904761D01*
X79713333Y-17904761D01*
X79522857Y-17857142D01*
X79427619Y-17809523D01*
X79380000Y-17761904D01*
X79332380Y-17666666D01*
X79332380Y-17000000D02*
X79332380Y-16380952D01*
X79713333Y-16714285D01*
X79713333Y-16571428D01*
X79760952Y-16476190D01*
X79808571Y-16428571D01*
X79903809Y-16380952D01*
X80141904Y-16380952D01*
X80237142Y-16428571D01*
X80284761Y-16476190D01*
X80332380Y-16571428D01*
X80332380Y-16857142D01*
X80284761Y-16952380D01*
X80237142Y-17000000D01*
%TO.C,JP501*%
X26054285Y-32192380D02*
X26054285Y-32906666D01*
X26006666Y-33049523D01*
X25911428Y-33144761D01*
X25768571Y-33192380D01*
X25673333Y-33192380D01*
X26530476Y-33192380D02*
X26530476Y-32192380D01*
X26911428Y-32192380D01*
X27006666Y-32240000D01*
X27054285Y-32287619D01*
X27101904Y-32382857D01*
X27101904Y-32525714D01*
X27054285Y-32620952D01*
X27006666Y-32668571D01*
X26911428Y-32716190D01*
X26530476Y-32716190D01*
X28006666Y-32192380D02*
X27530476Y-32192380D01*
X27482857Y-32668571D01*
X27530476Y-32620952D01*
X27625714Y-32573333D01*
X27863809Y-32573333D01*
X27959047Y-32620952D01*
X28006666Y-32668571D01*
X28054285Y-32763809D01*
X28054285Y-33001904D01*
X28006666Y-33097142D01*
X27959047Y-33144761D01*
X27863809Y-33192380D01*
X27625714Y-33192380D01*
X27530476Y-33144761D01*
X27482857Y-33097142D01*
X28673333Y-32192380D02*
X28768571Y-32192380D01*
X28863809Y-32240000D01*
X28911428Y-32287619D01*
X28959047Y-32382857D01*
X29006666Y-32573333D01*
X29006666Y-32811428D01*
X28959047Y-33001904D01*
X28911428Y-33097142D01*
X28863809Y-33144761D01*
X28768571Y-33192380D01*
X28673333Y-33192380D01*
X28578095Y-33144761D01*
X28530476Y-33097142D01*
X28482857Y-33001904D01*
X28435238Y-32811428D01*
X28435238Y-32573333D01*
X28482857Y-32382857D01*
X28530476Y-32287619D01*
X28578095Y-32240000D01*
X28673333Y-32192380D01*
X29959047Y-33192380D02*
X29387619Y-33192380D01*
X29673333Y-33192380D02*
X29673333Y-32192380D01*
X29578095Y-32335238D01*
X29482857Y-32430476D01*
X29387619Y-32478095D01*
%TO.C,R309*%
X79402380Y-25351547D02*
X78926190Y-25684880D01*
X79402380Y-25922976D02*
X78402380Y-25922976D01*
X78402380Y-25542023D01*
X78450000Y-25446785D01*
X78497619Y-25399166D01*
X78592857Y-25351547D01*
X78735714Y-25351547D01*
X78830952Y-25399166D01*
X78878571Y-25446785D01*
X78926190Y-25542023D01*
X78926190Y-25922976D01*
X78402380Y-25018214D02*
X78402380Y-24399166D01*
X78783333Y-24732500D01*
X78783333Y-24589642D01*
X78830952Y-24494404D01*
X78878571Y-24446785D01*
X78973809Y-24399166D01*
X79211904Y-24399166D01*
X79307142Y-24446785D01*
X79354761Y-24494404D01*
X79402380Y-24589642D01*
X79402380Y-24875357D01*
X79354761Y-24970595D01*
X79307142Y-25018214D01*
X78402380Y-23780119D02*
X78402380Y-23684880D01*
X78450000Y-23589642D01*
X78497619Y-23542023D01*
X78592857Y-23494404D01*
X78783333Y-23446785D01*
X79021428Y-23446785D01*
X79211904Y-23494404D01*
X79307142Y-23542023D01*
X79354761Y-23589642D01*
X79402380Y-23684880D01*
X79402380Y-23780119D01*
X79354761Y-23875357D01*
X79307142Y-23922976D01*
X79211904Y-23970595D01*
X79021428Y-24018214D01*
X78783333Y-24018214D01*
X78592857Y-23970595D01*
X78497619Y-23922976D01*
X78450000Y-23875357D01*
X78402380Y-23780119D01*
X79402380Y-22970595D02*
X79402380Y-22780119D01*
X79354761Y-22684880D01*
X79307142Y-22637261D01*
X79164285Y-22542023D01*
X78973809Y-22494404D01*
X78592857Y-22494404D01*
X78497619Y-22542023D01*
X78450000Y-22589642D01*
X78402380Y-22684880D01*
X78402380Y-22875357D01*
X78450000Y-22970595D01*
X78497619Y-23018214D01*
X78592857Y-23065833D01*
X78830952Y-23065833D01*
X78926190Y-23018214D01*
X78973809Y-22970595D01*
X79021428Y-22875357D01*
X79021428Y-22684880D01*
X78973809Y-22589642D01*
X78926190Y-22542023D01*
X78830952Y-22494404D01*
%TO.C,JP507*%
X92994285Y-23132380D02*
X92994285Y-23846666D01*
X92946666Y-23989523D01*
X92851428Y-24084761D01*
X92708571Y-24132380D01*
X92613333Y-24132380D01*
X93470476Y-24132380D02*
X93470476Y-23132380D01*
X93851428Y-23132380D01*
X93946666Y-23180000D01*
X93994285Y-23227619D01*
X94041904Y-23322857D01*
X94041904Y-23465714D01*
X93994285Y-23560952D01*
X93946666Y-23608571D01*
X93851428Y-23656190D01*
X93470476Y-23656190D01*
X94946666Y-23132380D02*
X94470476Y-23132380D01*
X94422857Y-23608571D01*
X94470476Y-23560952D01*
X94565714Y-23513333D01*
X94803809Y-23513333D01*
X94899047Y-23560952D01*
X94946666Y-23608571D01*
X94994285Y-23703809D01*
X94994285Y-23941904D01*
X94946666Y-24037142D01*
X94899047Y-24084761D01*
X94803809Y-24132380D01*
X94565714Y-24132380D01*
X94470476Y-24084761D01*
X94422857Y-24037142D01*
X95613333Y-23132380D02*
X95708571Y-23132380D01*
X95803809Y-23180000D01*
X95851428Y-23227619D01*
X95899047Y-23322857D01*
X95946666Y-23513333D01*
X95946666Y-23751428D01*
X95899047Y-23941904D01*
X95851428Y-24037142D01*
X95803809Y-24084761D01*
X95708571Y-24132380D01*
X95613333Y-24132380D01*
X95518095Y-24084761D01*
X95470476Y-24037142D01*
X95422857Y-23941904D01*
X95375238Y-23751428D01*
X95375238Y-23513333D01*
X95422857Y-23322857D01*
X95470476Y-23227619D01*
X95518095Y-23180000D01*
X95613333Y-23132380D01*
X96280000Y-23132380D02*
X96946666Y-23132380D01*
X96518095Y-24132380D01*
%TO.C,D304*%
X42169523Y-37372380D02*
X42169523Y-36372380D01*
X42407619Y-36372380D01*
X42550476Y-36420000D01*
X42645714Y-36515238D01*
X42693333Y-36610476D01*
X42740952Y-36800952D01*
X42740952Y-36943809D01*
X42693333Y-37134285D01*
X42645714Y-37229523D01*
X42550476Y-37324761D01*
X42407619Y-37372380D01*
X42169523Y-37372380D01*
X43074285Y-36372380D02*
X43693333Y-36372380D01*
X43360000Y-36753333D01*
X43502857Y-36753333D01*
X43598095Y-36800952D01*
X43645714Y-36848571D01*
X43693333Y-36943809D01*
X43693333Y-37181904D01*
X43645714Y-37277142D01*
X43598095Y-37324761D01*
X43502857Y-37372380D01*
X43217142Y-37372380D01*
X43121904Y-37324761D01*
X43074285Y-37277142D01*
X44312380Y-36372380D02*
X44407619Y-36372380D01*
X44502857Y-36420000D01*
X44550476Y-36467619D01*
X44598095Y-36562857D01*
X44645714Y-36753333D01*
X44645714Y-36991428D01*
X44598095Y-37181904D01*
X44550476Y-37277142D01*
X44502857Y-37324761D01*
X44407619Y-37372380D01*
X44312380Y-37372380D01*
X44217142Y-37324761D01*
X44169523Y-37277142D01*
X44121904Y-37181904D01*
X44074285Y-36991428D01*
X44074285Y-36753333D01*
X44121904Y-36562857D01*
X44169523Y-36467619D01*
X44217142Y-36420000D01*
X44312380Y-36372380D01*
X45502857Y-36705714D02*
X45502857Y-37372380D01*
X45264761Y-36324761D02*
X45026666Y-37039047D01*
X45645714Y-37039047D01*
%TO.C,H103*%
X118285714Y-56252380D02*
X118285714Y-55252380D01*
X118285714Y-55728571D02*
X118857142Y-55728571D01*
X118857142Y-56252380D02*
X118857142Y-55252380D01*
X119857142Y-56252380D02*
X119285714Y-56252380D01*
X119571428Y-56252380D02*
X119571428Y-55252380D01*
X119476190Y-55395238D01*
X119380952Y-55490476D01*
X119285714Y-55538095D01*
X120476190Y-55252380D02*
X120571428Y-55252380D01*
X120666666Y-55300000D01*
X120714285Y-55347619D01*
X120761904Y-55442857D01*
X120809523Y-55633333D01*
X120809523Y-55871428D01*
X120761904Y-56061904D01*
X120714285Y-56157142D01*
X120666666Y-56204761D01*
X120571428Y-56252380D01*
X120476190Y-56252380D01*
X120380952Y-56204761D01*
X120333333Y-56157142D01*
X120285714Y-56061904D01*
X120238095Y-55871428D01*
X120238095Y-55633333D01*
X120285714Y-55442857D01*
X120333333Y-55347619D01*
X120380952Y-55300000D01*
X120476190Y-55252380D01*
X121142857Y-55252380D02*
X121761904Y-55252380D01*
X121428571Y-55633333D01*
X121571428Y-55633333D01*
X121666666Y-55680952D01*
X121714285Y-55728571D01*
X121761904Y-55823809D01*
X121761904Y-56061904D01*
X121714285Y-56157142D01*
X121666666Y-56204761D01*
X121571428Y-56252380D01*
X121285714Y-56252380D01*
X121190476Y-56204761D01*
X121142857Y-56157142D01*
%TO.C,SW301*%
X104284285Y-42544761D02*
X104427142Y-42592380D01*
X104665238Y-42592380D01*
X104760476Y-42544761D01*
X104808095Y-42497142D01*
X104855714Y-42401904D01*
X104855714Y-42306666D01*
X104808095Y-42211428D01*
X104760476Y-42163809D01*
X104665238Y-42116190D01*
X104474761Y-42068571D01*
X104379523Y-42020952D01*
X104331904Y-41973333D01*
X104284285Y-41878095D01*
X104284285Y-41782857D01*
X104331904Y-41687619D01*
X104379523Y-41640000D01*
X104474761Y-41592380D01*
X104712857Y-41592380D01*
X104855714Y-41640000D01*
X105189047Y-41592380D02*
X105427142Y-42592380D01*
X105617619Y-41878095D01*
X105808095Y-42592380D01*
X106046190Y-41592380D01*
X106331904Y-41592380D02*
X106950952Y-41592380D01*
X106617619Y-41973333D01*
X106760476Y-41973333D01*
X106855714Y-42020952D01*
X106903333Y-42068571D01*
X106950952Y-42163809D01*
X106950952Y-42401904D01*
X106903333Y-42497142D01*
X106855714Y-42544761D01*
X106760476Y-42592380D01*
X106474761Y-42592380D01*
X106379523Y-42544761D01*
X106331904Y-42497142D01*
X107570000Y-41592380D02*
X107665238Y-41592380D01*
X107760476Y-41640000D01*
X107808095Y-41687619D01*
X107855714Y-41782857D01*
X107903333Y-41973333D01*
X107903333Y-42211428D01*
X107855714Y-42401904D01*
X107808095Y-42497142D01*
X107760476Y-42544761D01*
X107665238Y-42592380D01*
X107570000Y-42592380D01*
X107474761Y-42544761D01*
X107427142Y-42497142D01*
X107379523Y-42401904D01*
X107331904Y-42211428D01*
X107331904Y-41973333D01*
X107379523Y-41782857D01*
X107427142Y-41687619D01*
X107474761Y-41640000D01*
X107570000Y-41592380D01*
X108855714Y-42592380D02*
X108284285Y-42592380D01*
X108570000Y-42592380D02*
X108570000Y-41592380D01*
X108474761Y-41735238D01*
X108379523Y-41830476D01*
X108284285Y-41878095D01*
%TO.C,J401*%
X55512380Y-20445714D02*
X56226666Y-20445714D01*
X56369523Y-20493333D01*
X56464761Y-20588571D01*
X56512380Y-20731428D01*
X56512380Y-20826666D01*
X55845714Y-19540952D02*
X56512380Y-19540952D01*
X55464761Y-19779047D02*
X56179047Y-20017142D01*
X56179047Y-19398095D01*
X55512380Y-18826666D02*
X55512380Y-18731428D01*
X55560000Y-18636190D01*
X55607619Y-18588571D01*
X55702857Y-18540952D01*
X55893333Y-18493333D01*
X56131428Y-18493333D01*
X56321904Y-18540952D01*
X56417142Y-18588571D01*
X56464761Y-18636190D01*
X56512380Y-18731428D01*
X56512380Y-18826666D01*
X56464761Y-18921904D01*
X56417142Y-18969523D01*
X56321904Y-19017142D01*
X56131428Y-19064761D01*
X55893333Y-19064761D01*
X55702857Y-19017142D01*
X55607619Y-18969523D01*
X55560000Y-18921904D01*
X55512380Y-18826666D01*
X56512380Y-17540952D02*
X56512380Y-18112380D01*
X56512380Y-17826666D02*
X55512380Y-17826666D01*
X55655238Y-17921904D01*
X55750476Y-18017142D01*
X55798095Y-18112380D01*
%TO.C,C307*%
X62047142Y-47469047D02*
X62094761Y-47516666D01*
X62142380Y-47659523D01*
X62142380Y-47754761D01*
X62094761Y-47897619D01*
X61999523Y-47992857D01*
X61904285Y-48040476D01*
X61713809Y-48088095D01*
X61570952Y-48088095D01*
X61380476Y-48040476D01*
X61285238Y-47992857D01*
X61190000Y-47897619D01*
X61142380Y-47754761D01*
X61142380Y-47659523D01*
X61190000Y-47516666D01*
X61237619Y-47469047D01*
X61142380Y-47135714D02*
X61142380Y-46516666D01*
X61523333Y-46850000D01*
X61523333Y-46707142D01*
X61570952Y-46611904D01*
X61618571Y-46564285D01*
X61713809Y-46516666D01*
X61951904Y-46516666D01*
X62047142Y-46564285D01*
X62094761Y-46611904D01*
X62142380Y-46707142D01*
X62142380Y-46992857D01*
X62094761Y-47088095D01*
X62047142Y-47135714D01*
X61142380Y-45897619D02*
X61142380Y-45802380D01*
X61190000Y-45707142D01*
X61237619Y-45659523D01*
X61332857Y-45611904D01*
X61523333Y-45564285D01*
X61761428Y-45564285D01*
X61951904Y-45611904D01*
X62047142Y-45659523D01*
X62094761Y-45707142D01*
X62142380Y-45802380D01*
X62142380Y-45897619D01*
X62094761Y-45992857D01*
X62047142Y-46040476D01*
X61951904Y-46088095D01*
X61761428Y-46135714D01*
X61523333Y-46135714D01*
X61332857Y-46088095D01*
X61237619Y-46040476D01*
X61190000Y-45992857D01*
X61142380Y-45897619D01*
X61142380Y-45230952D02*
X61142380Y-44564285D01*
X62142380Y-44992857D01*
%TO.C,J105*%
X119594285Y-38872380D02*
X119594285Y-39586666D01*
X119546666Y-39729523D01*
X119451428Y-39824761D01*
X119308571Y-39872380D01*
X119213333Y-39872380D01*
X120594285Y-39872380D02*
X120022857Y-39872380D01*
X120308571Y-39872380D02*
X120308571Y-38872380D01*
X120213333Y-39015238D01*
X120118095Y-39110476D01*
X120022857Y-39158095D01*
X121213333Y-38872380D02*
X121308571Y-38872380D01*
X121403809Y-38920000D01*
X121451428Y-38967619D01*
X121499047Y-39062857D01*
X121546666Y-39253333D01*
X121546666Y-39491428D01*
X121499047Y-39681904D01*
X121451428Y-39777142D01*
X121403809Y-39824761D01*
X121308571Y-39872380D01*
X121213333Y-39872380D01*
X121118095Y-39824761D01*
X121070476Y-39777142D01*
X121022857Y-39681904D01*
X120975238Y-39491428D01*
X120975238Y-39253333D01*
X121022857Y-39062857D01*
X121070476Y-38967619D01*
X121118095Y-38920000D01*
X121213333Y-38872380D01*
X122451428Y-38872380D02*
X121975238Y-38872380D01*
X121927619Y-39348571D01*
X121975238Y-39300952D01*
X122070476Y-39253333D01*
X122308571Y-39253333D01*
X122403809Y-39300952D01*
X122451428Y-39348571D01*
X122499047Y-39443809D01*
X122499047Y-39681904D01*
X122451428Y-39777142D01*
X122403809Y-39824761D01*
X122308571Y-39872380D01*
X122070476Y-39872380D01*
X121975238Y-39824761D01*
X121927619Y-39777142D01*
%TO.C,C402*%
X55810952Y-27947142D02*
X55763333Y-27994761D01*
X55620476Y-28042380D01*
X55525238Y-28042380D01*
X55382380Y-27994761D01*
X55287142Y-27899523D01*
X55239523Y-27804285D01*
X55191904Y-27613809D01*
X55191904Y-27470952D01*
X55239523Y-27280476D01*
X55287142Y-27185238D01*
X55382380Y-27090000D01*
X55525238Y-27042380D01*
X55620476Y-27042380D01*
X55763333Y-27090000D01*
X55810952Y-27137619D01*
X56668095Y-27375714D02*
X56668095Y-28042380D01*
X56430000Y-26994761D02*
X56191904Y-27709047D01*
X56810952Y-27709047D01*
X57382380Y-27042380D02*
X57477619Y-27042380D01*
X57572857Y-27090000D01*
X57620476Y-27137619D01*
X57668095Y-27232857D01*
X57715714Y-27423333D01*
X57715714Y-27661428D01*
X57668095Y-27851904D01*
X57620476Y-27947142D01*
X57572857Y-27994761D01*
X57477619Y-28042380D01*
X57382380Y-28042380D01*
X57287142Y-27994761D01*
X57239523Y-27947142D01*
X57191904Y-27851904D01*
X57144285Y-27661428D01*
X57144285Y-27423333D01*
X57191904Y-27232857D01*
X57239523Y-27137619D01*
X57287142Y-27090000D01*
X57382380Y-27042380D01*
X58096666Y-27137619D02*
X58144285Y-27090000D01*
X58239523Y-27042380D01*
X58477619Y-27042380D01*
X58572857Y-27090000D01*
X58620476Y-27137619D01*
X58668095Y-27232857D01*
X58668095Y-27328095D01*
X58620476Y-27470952D01*
X58049047Y-28042380D01*
X58668095Y-28042380D01*
%TO.C,JP504*%
X101149285Y-30182380D02*
X101149285Y-30896666D01*
X101101666Y-31039523D01*
X101006428Y-31134761D01*
X100863571Y-31182380D01*
X100768333Y-31182380D01*
X101625476Y-31182380D02*
X101625476Y-30182380D01*
X102006428Y-30182380D01*
X102101666Y-30230000D01*
X102149285Y-30277619D01*
X102196904Y-30372857D01*
X102196904Y-30515714D01*
X102149285Y-30610952D01*
X102101666Y-30658571D01*
X102006428Y-30706190D01*
X101625476Y-30706190D01*
X103101666Y-30182380D02*
X102625476Y-30182380D01*
X102577857Y-30658571D01*
X102625476Y-30610952D01*
X102720714Y-30563333D01*
X102958809Y-30563333D01*
X103054047Y-30610952D01*
X103101666Y-30658571D01*
X103149285Y-30753809D01*
X103149285Y-30991904D01*
X103101666Y-31087142D01*
X103054047Y-31134761D01*
X102958809Y-31182380D01*
X102720714Y-31182380D01*
X102625476Y-31134761D01*
X102577857Y-31087142D01*
X103768333Y-30182380D02*
X103863571Y-30182380D01*
X103958809Y-30230000D01*
X104006428Y-30277619D01*
X104054047Y-30372857D01*
X104101666Y-30563333D01*
X104101666Y-30801428D01*
X104054047Y-30991904D01*
X104006428Y-31087142D01*
X103958809Y-31134761D01*
X103863571Y-31182380D01*
X103768333Y-31182380D01*
X103673095Y-31134761D01*
X103625476Y-31087142D01*
X103577857Y-30991904D01*
X103530238Y-30801428D01*
X103530238Y-30563333D01*
X103577857Y-30372857D01*
X103625476Y-30277619D01*
X103673095Y-30230000D01*
X103768333Y-30182380D01*
X104958809Y-30515714D02*
X104958809Y-31182380D01*
X104720714Y-30134761D02*
X104482619Y-30849047D01*
X105101666Y-30849047D01*
%TO.C,C401*%
X76147142Y-26709047D02*
X76194761Y-26756666D01*
X76242380Y-26899523D01*
X76242380Y-26994761D01*
X76194761Y-27137619D01*
X76099523Y-27232857D01*
X76004285Y-27280476D01*
X75813809Y-27328095D01*
X75670952Y-27328095D01*
X75480476Y-27280476D01*
X75385238Y-27232857D01*
X75290000Y-27137619D01*
X75242380Y-26994761D01*
X75242380Y-26899523D01*
X75290000Y-26756666D01*
X75337619Y-26709047D01*
X75575714Y-25851904D02*
X76242380Y-25851904D01*
X75194761Y-26090000D02*
X75909047Y-26328095D01*
X75909047Y-25709047D01*
X75242380Y-25137619D02*
X75242380Y-25042380D01*
X75290000Y-24947142D01*
X75337619Y-24899523D01*
X75432857Y-24851904D01*
X75623333Y-24804285D01*
X75861428Y-24804285D01*
X76051904Y-24851904D01*
X76147142Y-24899523D01*
X76194761Y-24947142D01*
X76242380Y-25042380D01*
X76242380Y-25137619D01*
X76194761Y-25232857D01*
X76147142Y-25280476D01*
X76051904Y-25328095D01*
X75861428Y-25375714D01*
X75623333Y-25375714D01*
X75432857Y-25328095D01*
X75337619Y-25280476D01*
X75290000Y-25232857D01*
X75242380Y-25137619D01*
X76242380Y-23851904D02*
X76242380Y-24423333D01*
X76242380Y-24137619D02*
X75242380Y-24137619D01*
X75385238Y-24232857D01*
X75480476Y-24328095D01*
X75528095Y-24423333D01*
%TO.C,C303*%
X57060952Y-40537142D02*
X57013333Y-40584761D01*
X56870476Y-40632380D01*
X56775238Y-40632380D01*
X56632380Y-40584761D01*
X56537142Y-40489523D01*
X56489523Y-40394285D01*
X56441904Y-40203809D01*
X56441904Y-40060952D01*
X56489523Y-39870476D01*
X56537142Y-39775238D01*
X56632380Y-39680000D01*
X56775238Y-39632380D01*
X56870476Y-39632380D01*
X57013333Y-39680000D01*
X57060952Y-39727619D01*
X57394285Y-39632380D02*
X58013333Y-39632380D01*
X57680000Y-40013333D01*
X57822857Y-40013333D01*
X57918095Y-40060952D01*
X57965714Y-40108571D01*
X58013333Y-40203809D01*
X58013333Y-40441904D01*
X57965714Y-40537142D01*
X57918095Y-40584761D01*
X57822857Y-40632380D01*
X57537142Y-40632380D01*
X57441904Y-40584761D01*
X57394285Y-40537142D01*
X58632380Y-39632380D02*
X58727619Y-39632380D01*
X58822857Y-39680000D01*
X58870476Y-39727619D01*
X58918095Y-39822857D01*
X58965714Y-40013333D01*
X58965714Y-40251428D01*
X58918095Y-40441904D01*
X58870476Y-40537142D01*
X58822857Y-40584761D01*
X58727619Y-40632380D01*
X58632380Y-40632380D01*
X58537142Y-40584761D01*
X58489523Y-40537142D01*
X58441904Y-40441904D01*
X58394285Y-40251428D01*
X58394285Y-40013333D01*
X58441904Y-39822857D01*
X58489523Y-39727619D01*
X58537142Y-39680000D01*
X58632380Y-39632380D01*
X59299047Y-39632380D02*
X59918095Y-39632380D01*
X59584761Y-40013333D01*
X59727619Y-40013333D01*
X59822857Y-40060952D01*
X59870476Y-40108571D01*
X59918095Y-40203809D01*
X59918095Y-40441904D01*
X59870476Y-40537142D01*
X59822857Y-40584761D01*
X59727619Y-40632380D01*
X59441904Y-40632380D01*
X59346666Y-40584761D01*
X59299047Y-40537142D01*
%TO.C,Y301*%
X56881428Y-45906190D02*
X56881428Y-46382380D01*
X56548095Y-45382380D02*
X56881428Y-45906190D01*
X57214761Y-45382380D01*
X57452857Y-45382380D02*
X58071904Y-45382380D01*
X57738571Y-45763333D01*
X57881428Y-45763333D01*
X57976666Y-45810952D01*
X58024285Y-45858571D01*
X58071904Y-45953809D01*
X58071904Y-46191904D01*
X58024285Y-46287142D01*
X57976666Y-46334761D01*
X57881428Y-46382380D01*
X57595714Y-46382380D01*
X57500476Y-46334761D01*
X57452857Y-46287142D01*
X58690952Y-45382380D02*
X58786190Y-45382380D01*
X58881428Y-45430000D01*
X58929047Y-45477619D01*
X58976666Y-45572857D01*
X59024285Y-45763333D01*
X59024285Y-46001428D01*
X58976666Y-46191904D01*
X58929047Y-46287142D01*
X58881428Y-46334761D01*
X58786190Y-46382380D01*
X58690952Y-46382380D01*
X58595714Y-46334761D01*
X58548095Y-46287142D01*
X58500476Y-46191904D01*
X58452857Y-46001428D01*
X58452857Y-45763333D01*
X58500476Y-45572857D01*
X58548095Y-45477619D01*
X58595714Y-45430000D01*
X58690952Y-45382380D01*
X59976666Y-46382380D02*
X59405238Y-46382380D01*
X59690952Y-46382380D02*
X59690952Y-45382380D01*
X59595714Y-45525238D01*
X59500476Y-45620476D01*
X59405238Y-45668095D01*
%TO.C,C305*%
X99167142Y-48819047D02*
X99214761Y-48866666D01*
X99262380Y-49009523D01*
X99262380Y-49104761D01*
X99214761Y-49247619D01*
X99119523Y-49342857D01*
X99024285Y-49390476D01*
X98833809Y-49438095D01*
X98690952Y-49438095D01*
X98500476Y-49390476D01*
X98405238Y-49342857D01*
X98310000Y-49247619D01*
X98262380Y-49104761D01*
X98262380Y-49009523D01*
X98310000Y-48866666D01*
X98357619Y-48819047D01*
X98262380Y-48485714D02*
X98262380Y-47866666D01*
X98643333Y-48200000D01*
X98643333Y-48057142D01*
X98690952Y-47961904D01*
X98738571Y-47914285D01*
X98833809Y-47866666D01*
X99071904Y-47866666D01*
X99167142Y-47914285D01*
X99214761Y-47961904D01*
X99262380Y-48057142D01*
X99262380Y-48342857D01*
X99214761Y-48438095D01*
X99167142Y-48485714D01*
X98262380Y-47247619D02*
X98262380Y-47152380D01*
X98310000Y-47057142D01*
X98357619Y-47009523D01*
X98452857Y-46961904D01*
X98643333Y-46914285D01*
X98881428Y-46914285D01*
X99071904Y-46961904D01*
X99167142Y-47009523D01*
X99214761Y-47057142D01*
X99262380Y-47152380D01*
X99262380Y-47247619D01*
X99214761Y-47342857D01*
X99167142Y-47390476D01*
X99071904Y-47438095D01*
X98881428Y-47485714D01*
X98643333Y-47485714D01*
X98452857Y-47438095D01*
X98357619Y-47390476D01*
X98310000Y-47342857D01*
X98262380Y-47247619D01*
X98262380Y-46009523D02*
X98262380Y-46485714D01*
X98738571Y-46533333D01*
X98690952Y-46485714D01*
X98643333Y-46390476D01*
X98643333Y-46152380D01*
X98690952Y-46057142D01*
X98738571Y-46009523D01*
X98833809Y-45961904D01*
X99071904Y-45961904D01*
X99167142Y-46009523D01*
X99214761Y-46057142D01*
X99262380Y-46152380D01*
X99262380Y-46390476D01*
X99214761Y-46485714D01*
X99167142Y-46533333D01*
%TO.C,JP201*%
X56214285Y-33442380D02*
X56214285Y-34156666D01*
X56166666Y-34299523D01*
X56071428Y-34394761D01*
X55928571Y-34442380D01*
X55833333Y-34442380D01*
X56690476Y-34442380D02*
X56690476Y-33442380D01*
X57071428Y-33442380D01*
X57166666Y-33490000D01*
X57214285Y-33537619D01*
X57261904Y-33632857D01*
X57261904Y-33775714D01*
X57214285Y-33870952D01*
X57166666Y-33918571D01*
X57071428Y-33966190D01*
X56690476Y-33966190D01*
X57642857Y-33537619D02*
X57690476Y-33490000D01*
X57785714Y-33442380D01*
X58023809Y-33442380D01*
X58119047Y-33490000D01*
X58166666Y-33537619D01*
X58214285Y-33632857D01*
X58214285Y-33728095D01*
X58166666Y-33870952D01*
X57595238Y-34442380D01*
X58214285Y-34442380D01*
X58833333Y-33442380D02*
X58928571Y-33442380D01*
X59023809Y-33490000D01*
X59071428Y-33537619D01*
X59119047Y-33632857D01*
X59166666Y-33823333D01*
X59166666Y-34061428D01*
X59119047Y-34251904D01*
X59071428Y-34347142D01*
X59023809Y-34394761D01*
X58928571Y-34442380D01*
X58833333Y-34442380D01*
X58738095Y-34394761D01*
X58690476Y-34347142D01*
X58642857Y-34251904D01*
X58595238Y-34061428D01*
X58595238Y-33823333D01*
X58642857Y-33632857D01*
X58690476Y-33537619D01*
X58738095Y-33490000D01*
X58833333Y-33442380D01*
X60119047Y-34442380D02*
X59547619Y-34442380D01*
X59833333Y-34442380D02*
X59833333Y-33442380D01*
X59738095Y-33585238D01*
X59642857Y-33680476D01*
X59547619Y-33728095D01*
%TO.C,JP503*%
X92914285Y-28762380D02*
X92914285Y-29476666D01*
X92866666Y-29619523D01*
X92771428Y-29714761D01*
X92628571Y-29762380D01*
X92533333Y-29762380D01*
X93390476Y-29762380D02*
X93390476Y-28762380D01*
X93771428Y-28762380D01*
X93866666Y-28810000D01*
X93914285Y-28857619D01*
X93961904Y-28952857D01*
X93961904Y-29095714D01*
X93914285Y-29190952D01*
X93866666Y-29238571D01*
X93771428Y-29286190D01*
X93390476Y-29286190D01*
X94866666Y-28762380D02*
X94390476Y-28762380D01*
X94342857Y-29238571D01*
X94390476Y-29190952D01*
X94485714Y-29143333D01*
X94723809Y-29143333D01*
X94819047Y-29190952D01*
X94866666Y-29238571D01*
X94914285Y-29333809D01*
X94914285Y-29571904D01*
X94866666Y-29667142D01*
X94819047Y-29714761D01*
X94723809Y-29762380D01*
X94485714Y-29762380D01*
X94390476Y-29714761D01*
X94342857Y-29667142D01*
X95533333Y-28762380D02*
X95628571Y-28762380D01*
X95723809Y-28810000D01*
X95771428Y-28857619D01*
X95819047Y-28952857D01*
X95866666Y-29143333D01*
X95866666Y-29381428D01*
X95819047Y-29571904D01*
X95771428Y-29667142D01*
X95723809Y-29714761D01*
X95628571Y-29762380D01*
X95533333Y-29762380D01*
X95438095Y-29714761D01*
X95390476Y-29667142D01*
X95342857Y-29571904D01*
X95295238Y-29381428D01*
X95295238Y-29143333D01*
X95342857Y-28952857D01*
X95390476Y-28857619D01*
X95438095Y-28810000D01*
X95533333Y-28762380D01*
X96200000Y-28762380D02*
X96819047Y-28762380D01*
X96485714Y-29143333D01*
X96628571Y-29143333D01*
X96723809Y-29190952D01*
X96771428Y-29238571D01*
X96819047Y-29333809D01*
X96819047Y-29571904D01*
X96771428Y-29667142D01*
X96723809Y-29714761D01*
X96628571Y-29762380D01*
X96342857Y-29762380D01*
X96247619Y-29714761D01*
X96200000Y-29667142D01*
%TO.C,C505*%
X88627142Y-28809047D02*
X88674761Y-28856666D01*
X88722380Y-28999523D01*
X88722380Y-29094761D01*
X88674761Y-29237619D01*
X88579523Y-29332857D01*
X88484285Y-29380476D01*
X88293809Y-29428095D01*
X88150952Y-29428095D01*
X87960476Y-29380476D01*
X87865238Y-29332857D01*
X87770000Y-29237619D01*
X87722380Y-29094761D01*
X87722380Y-28999523D01*
X87770000Y-28856666D01*
X87817619Y-28809047D01*
X87722380Y-27904285D02*
X87722380Y-28380476D01*
X88198571Y-28428095D01*
X88150952Y-28380476D01*
X88103333Y-28285238D01*
X88103333Y-28047142D01*
X88150952Y-27951904D01*
X88198571Y-27904285D01*
X88293809Y-27856666D01*
X88531904Y-27856666D01*
X88627142Y-27904285D01*
X88674761Y-27951904D01*
X88722380Y-28047142D01*
X88722380Y-28285238D01*
X88674761Y-28380476D01*
X88627142Y-28428095D01*
X87722380Y-27237619D02*
X87722380Y-27142380D01*
X87770000Y-27047142D01*
X87817619Y-26999523D01*
X87912857Y-26951904D01*
X88103333Y-26904285D01*
X88341428Y-26904285D01*
X88531904Y-26951904D01*
X88627142Y-26999523D01*
X88674761Y-27047142D01*
X88722380Y-27142380D01*
X88722380Y-27237619D01*
X88674761Y-27332857D01*
X88627142Y-27380476D01*
X88531904Y-27428095D01*
X88341428Y-27475714D01*
X88103333Y-27475714D01*
X87912857Y-27428095D01*
X87817619Y-27380476D01*
X87770000Y-27332857D01*
X87722380Y-27237619D01*
X87722380Y-25999523D02*
X87722380Y-26475714D01*
X88198571Y-26523333D01*
X88150952Y-26475714D01*
X88103333Y-26380476D01*
X88103333Y-26142380D01*
X88150952Y-26047142D01*
X88198571Y-25999523D01*
X88293809Y-25951904D01*
X88531904Y-25951904D01*
X88627142Y-25999523D01*
X88674761Y-26047142D01*
X88722380Y-26142380D01*
X88722380Y-26380476D01*
X88674761Y-26475714D01*
X88627142Y-26523333D01*
%TO.C,C302*%
X57060952Y-39027142D02*
X57013333Y-39074761D01*
X56870476Y-39122380D01*
X56775238Y-39122380D01*
X56632380Y-39074761D01*
X56537142Y-38979523D01*
X56489523Y-38884285D01*
X56441904Y-38693809D01*
X56441904Y-38550952D01*
X56489523Y-38360476D01*
X56537142Y-38265238D01*
X56632380Y-38170000D01*
X56775238Y-38122380D01*
X56870476Y-38122380D01*
X57013333Y-38170000D01*
X57060952Y-38217619D01*
X57394285Y-38122380D02*
X58013333Y-38122380D01*
X57680000Y-38503333D01*
X57822857Y-38503333D01*
X57918095Y-38550952D01*
X57965714Y-38598571D01*
X58013333Y-38693809D01*
X58013333Y-38931904D01*
X57965714Y-39027142D01*
X57918095Y-39074761D01*
X57822857Y-39122380D01*
X57537142Y-39122380D01*
X57441904Y-39074761D01*
X57394285Y-39027142D01*
X58632380Y-38122380D02*
X58727619Y-38122380D01*
X58822857Y-38170000D01*
X58870476Y-38217619D01*
X58918095Y-38312857D01*
X58965714Y-38503333D01*
X58965714Y-38741428D01*
X58918095Y-38931904D01*
X58870476Y-39027142D01*
X58822857Y-39074761D01*
X58727619Y-39122380D01*
X58632380Y-39122380D01*
X58537142Y-39074761D01*
X58489523Y-39027142D01*
X58441904Y-38931904D01*
X58394285Y-38741428D01*
X58394285Y-38503333D01*
X58441904Y-38312857D01*
X58489523Y-38217619D01*
X58537142Y-38170000D01*
X58632380Y-38122380D01*
X59346666Y-38217619D02*
X59394285Y-38170000D01*
X59489523Y-38122380D01*
X59727619Y-38122380D01*
X59822857Y-38170000D01*
X59870476Y-38217619D01*
X59918095Y-38312857D01*
X59918095Y-38408095D01*
X59870476Y-38550952D01*
X59299047Y-39122380D01*
X59918095Y-39122380D01*
%TO.C,J301*%
X88984285Y-43342380D02*
X88984285Y-44056666D01*
X88936666Y-44199523D01*
X88841428Y-44294761D01*
X88698571Y-44342380D01*
X88603333Y-44342380D01*
X89365238Y-43342380D02*
X89984285Y-43342380D01*
X89650952Y-43723333D01*
X89793809Y-43723333D01*
X89889047Y-43770952D01*
X89936666Y-43818571D01*
X89984285Y-43913809D01*
X89984285Y-44151904D01*
X89936666Y-44247142D01*
X89889047Y-44294761D01*
X89793809Y-44342380D01*
X89508095Y-44342380D01*
X89412857Y-44294761D01*
X89365238Y-44247142D01*
X90603333Y-43342380D02*
X90698571Y-43342380D01*
X90793809Y-43390000D01*
X90841428Y-43437619D01*
X90889047Y-43532857D01*
X90936666Y-43723333D01*
X90936666Y-43961428D01*
X90889047Y-44151904D01*
X90841428Y-44247142D01*
X90793809Y-44294761D01*
X90698571Y-44342380D01*
X90603333Y-44342380D01*
X90508095Y-44294761D01*
X90460476Y-44247142D01*
X90412857Y-44151904D01*
X90365238Y-43961428D01*
X90365238Y-43723333D01*
X90412857Y-43532857D01*
X90460476Y-43437619D01*
X90508095Y-43390000D01*
X90603333Y-43342380D01*
X91889047Y-44342380D02*
X91317619Y-44342380D01*
X91603333Y-44342380D02*
X91603333Y-43342380D01*
X91508095Y-43485238D01*
X91412857Y-43580476D01*
X91317619Y-43628095D01*
%TO.C,J205*%
X63412380Y-63845714D02*
X64126666Y-63845714D01*
X64269523Y-63893333D01*
X64364761Y-63988571D01*
X64412380Y-64131428D01*
X64412380Y-64226666D01*
X63507619Y-63417142D02*
X63460000Y-63369523D01*
X63412380Y-63274285D01*
X63412380Y-63036190D01*
X63460000Y-62940952D01*
X63507619Y-62893333D01*
X63602857Y-62845714D01*
X63698095Y-62845714D01*
X63840952Y-62893333D01*
X64412380Y-63464761D01*
X64412380Y-62845714D01*
X63412380Y-62226666D02*
X63412380Y-62131428D01*
X63460000Y-62036190D01*
X63507619Y-61988571D01*
X63602857Y-61940952D01*
X63793333Y-61893333D01*
X64031428Y-61893333D01*
X64221904Y-61940952D01*
X64317142Y-61988571D01*
X64364761Y-62036190D01*
X64412380Y-62131428D01*
X64412380Y-62226666D01*
X64364761Y-62321904D01*
X64317142Y-62369523D01*
X64221904Y-62417142D01*
X64031428Y-62464761D01*
X63793333Y-62464761D01*
X63602857Y-62417142D01*
X63507619Y-62369523D01*
X63460000Y-62321904D01*
X63412380Y-62226666D01*
X63412380Y-60988571D02*
X63412380Y-61464761D01*
X63888571Y-61512380D01*
X63840952Y-61464761D01*
X63793333Y-61369523D01*
X63793333Y-61131428D01*
X63840952Y-61036190D01*
X63888571Y-60988571D01*
X63983809Y-60940952D01*
X64221904Y-60940952D01*
X64317142Y-60988571D01*
X64364761Y-61036190D01*
X64412380Y-61131428D01*
X64412380Y-61369523D01*
X64364761Y-61464761D01*
X64317142Y-61512380D01*
%TO.C,H102*%
X119255714Y-24912380D02*
X119255714Y-23912380D01*
X119255714Y-24388571D02*
X119827142Y-24388571D01*
X119827142Y-24912380D02*
X119827142Y-23912380D01*
X120827142Y-24912380D02*
X120255714Y-24912380D01*
X120541428Y-24912380D02*
X120541428Y-23912380D01*
X120446190Y-24055238D01*
X120350952Y-24150476D01*
X120255714Y-24198095D01*
X121446190Y-23912380D02*
X121541428Y-23912380D01*
X121636666Y-23960000D01*
X121684285Y-24007619D01*
X121731904Y-24102857D01*
X121779523Y-24293333D01*
X121779523Y-24531428D01*
X121731904Y-24721904D01*
X121684285Y-24817142D01*
X121636666Y-24864761D01*
X121541428Y-24912380D01*
X121446190Y-24912380D01*
X121350952Y-24864761D01*
X121303333Y-24817142D01*
X121255714Y-24721904D01*
X121208095Y-24531428D01*
X121208095Y-24293333D01*
X121255714Y-24102857D01*
X121303333Y-24007619D01*
X121350952Y-23960000D01*
X121446190Y-23912380D01*
X122160476Y-24007619D02*
X122208095Y-23960000D01*
X122303333Y-23912380D01*
X122541428Y-23912380D01*
X122636666Y-23960000D01*
X122684285Y-24007619D01*
X122731904Y-24102857D01*
X122731904Y-24198095D01*
X122684285Y-24340952D01*
X122112857Y-24912380D01*
X122731904Y-24912380D01*
%TO.C,C404*%
X47950952Y-29717142D02*
X47903333Y-29764761D01*
X47760476Y-29812380D01*
X47665238Y-29812380D01*
X47522380Y-29764761D01*
X47427142Y-29669523D01*
X47379523Y-29574285D01*
X47331904Y-29383809D01*
X47331904Y-29240952D01*
X47379523Y-29050476D01*
X47427142Y-28955238D01*
X47522380Y-28860000D01*
X47665238Y-28812380D01*
X47760476Y-28812380D01*
X47903333Y-28860000D01*
X47950952Y-28907619D01*
X48808095Y-29145714D02*
X48808095Y-29812380D01*
X48570000Y-28764761D02*
X48331904Y-29479047D01*
X48950952Y-29479047D01*
X49522380Y-28812380D02*
X49617619Y-28812380D01*
X49712857Y-28860000D01*
X49760476Y-28907619D01*
X49808095Y-29002857D01*
X49855714Y-29193333D01*
X49855714Y-29431428D01*
X49808095Y-29621904D01*
X49760476Y-29717142D01*
X49712857Y-29764761D01*
X49617619Y-29812380D01*
X49522380Y-29812380D01*
X49427142Y-29764761D01*
X49379523Y-29717142D01*
X49331904Y-29621904D01*
X49284285Y-29431428D01*
X49284285Y-29193333D01*
X49331904Y-29002857D01*
X49379523Y-28907619D01*
X49427142Y-28860000D01*
X49522380Y-28812380D01*
X50712857Y-29145714D02*
X50712857Y-29812380D01*
X50474761Y-28764761D02*
X50236666Y-29479047D01*
X50855714Y-29479047D01*
%TO.C,H104*%
X18285714Y-56252380D02*
X18285714Y-55252380D01*
X18285714Y-55728571D02*
X18857142Y-55728571D01*
X18857142Y-56252380D02*
X18857142Y-55252380D01*
X19857142Y-56252380D02*
X19285714Y-56252380D01*
X19571428Y-56252380D02*
X19571428Y-55252380D01*
X19476190Y-55395238D01*
X19380952Y-55490476D01*
X19285714Y-55538095D01*
X20476190Y-55252380D02*
X20571428Y-55252380D01*
X20666666Y-55300000D01*
X20714285Y-55347619D01*
X20761904Y-55442857D01*
X20809523Y-55633333D01*
X20809523Y-55871428D01*
X20761904Y-56061904D01*
X20714285Y-56157142D01*
X20666666Y-56204761D01*
X20571428Y-56252380D01*
X20476190Y-56252380D01*
X20380952Y-56204761D01*
X20333333Y-56157142D01*
X20285714Y-56061904D01*
X20238095Y-55871428D01*
X20238095Y-55633333D01*
X20285714Y-55442857D01*
X20333333Y-55347619D01*
X20380952Y-55300000D01*
X20476190Y-55252380D01*
X21666666Y-55585714D02*
X21666666Y-56252380D01*
X21428571Y-55204761D02*
X21190476Y-55919047D01*
X21809523Y-55919047D01*
%TO.C,C502*%
X114510952Y-27337142D02*
X114463333Y-27384761D01*
X114320476Y-27432380D01*
X114225238Y-27432380D01*
X114082380Y-27384761D01*
X113987142Y-27289523D01*
X113939523Y-27194285D01*
X113891904Y-27003809D01*
X113891904Y-26860952D01*
X113939523Y-26670476D01*
X113987142Y-26575238D01*
X114082380Y-26480000D01*
X114225238Y-26432380D01*
X114320476Y-26432380D01*
X114463333Y-26480000D01*
X114510952Y-26527619D01*
X115415714Y-26432380D02*
X114939523Y-26432380D01*
X114891904Y-26908571D01*
X114939523Y-26860952D01*
X115034761Y-26813333D01*
X115272857Y-26813333D01*
X115368095Y-26860952D01*
X115415714Y-26908571D01*
X115463333Y-27003809D01*
X115463333Y-27241904D01*
X115415714Y-27337142D01*
X115368095Y-27384761D01*
X115272857Y-27432380D01*
X115034761Y-27432380D01*
X114939523Y-27384761D01*
X114891904Y-27337142D01*
X116082380Y-26432380D02*
X116177619Y-26432380D01*
X116272857Y-26480000D01*
X116320476Y-26527619D01*
X116368095Y-26622857D01*
X116415714Y-26813333D01*
X116415714Y-27051428D01*
X116368095Y-27241904D01*
X116320476Y-27337142D01*
X116272857Y-27384761D01*
X116177619Y-27432380D01*
X116082380Y-27432380D01*
X115987142Y-27384761D01*
X115939523Y-27337142D01*
X115891904Y-27241904D01*
X115844285Y-27051428D01*
X115844285Y-26813333D01*
X115891904Y-26622857D01*
X115939523Y-26527619D01*
X115987142Y-26480000D01*
X116082380Y-26432380D01*
X116796666Y-26527619D02*
X116844285Y-26480000D01*
X116939523Y-26432380D01*
X117177619Y-26432380D01*
X117272857Y-26480000D01*
X117320476Y-26527619D01*
X117368095Y-26622857D01*
X117368095Y-26718095D01*
X117320476Y-26860952D01*
X116749047Y-27432380D01*
X117368095Y-27432380D01*
%TO.C,C504*%
X93940952Y-27407142D02*
X93893333Y-27454761D01*
X93750476Y-27502380D01*
X93655238Y-27502380D01*
X93512380Y-27454761D01*
X93417142Y-27359523D01*
X93369523Y-27264285D01*
X93321904Y-27073809D01*
X93321904Y-26930952D01*
X93369523Y-26740476D01*
X93417142Y-26645238D01*
X93512380Y-26550000D01*
X93655238Y-26502380D01*
X93750476Y-26502380D01*
X93893333Y-26550000D01*
X93940952Y-26597619D01*
X94845714Y-26502380D02*
X94369523Y-26502380D01*
X94321904Y-26978571D01*
X94369523Y-26930952D01*
X94464761Y-26883333D01*
X94702857Y-26883333D01*
X94798095Y-26930952D01*
X94845714Y-26978571D01*
X94893333Y-27073809D01*
X94893333Y-27311904D01*
X94845714Y-27407142D01*
X94798095Y-27454761D01*
X94702857Y-27502380D01*
X94464761Y-27502380D01*
X94369523Y-27454761D01*
X94321904Y-27407142D01*
X95512380Y-26502380D02*
X95607619Y-26502380D01*
X95702857Y-26550000D01*
X95750476Y-26597619D01*
X95798095Y-26692857D01*
X95845714Y-26883333D01*
X95845714Y-27121428D01*
X95798095Y-27311904D01*
X95750476Y-27407142D01*
X95702857Y-27454761D01*
X95607619Y-27502380D01*
X95512380Y-27502380D01*
X95417142Y-27454761D01*
X95369523Y-27407142D01*
X95321904Y-27311904D01*
X95274285Y-27121428D01*
X95274285Y-26883333D01*
X95321904Y-26692857D01*
X95369523Y-26597619D01*
X95417142Y-26550000D01*
X95512380Y-26502380D01*
X96702857Y-26835714D02*
X96702857Y-27502380D01*
X96464761Y-26454761D02*
X96226666Y-27169047D01*
X96845714Y-27169047D01*
%TO.C,C304*%
X57090952Y-43427142D02*
X57043333Y-43474761D01*
X56900476Y-43522380D01*
X56805238Y-43522380D01*
X56662380Y-43474761D01*
X56567142Y-43379523D01*
X56519523Y-43284285D01*
X56471904Y-43093809D01*
X56471904Y-42950952D01*
X56519523Y-42760476D01*
X56567142Y-42665238D01*
X56662380Y-42570000D01*
X56805238Y-42522380D01*
X56900476Y-42522380D01*
X57043333Y-42570000D01*
X57090952Y-42617619D01*
X57424285Y-42522380D02*
X58043333Y-42522380D01*
X57710000Y-42903333D01*
X57852857Y-42903333D01*
X57948095Y-42950952D01*
X57995714Y-42998571D01*
X58043333Y-43093809D01*
X58043333Y-43331904D01*
X57995714Y-43427142D01*
X57948095Y-43474761D01*
X57852857Y-43522380D01*
X57567142Y-43522380D01*
X57471904Y-43474761D01*
X57424285Y-43427142D01*
X58662380Y-42522380D02*
X58757619Y-42522380D01*
X58852857Y-42570000D01*
X58900476Y-42617619D01*
X58948095Y-42712857D01*
X58995714Y-42903333D01*
X58995714Y-43141428D01*
X58948095Y-43331904D01*
X58900476Y-43427142D01*
X58852857Y-43474761D01*
X58757619Y-43522380D01*
X58662380Y-43522380D01*
X58567142Y-43474761D01*
X58519523Y-43427142D01*
X58471904Y-43331904D01*
X58424285Y-43141428D01*
X58424285Y-42903333D01*
X58471904Y-42712857D01*
X58519523Y-42617619D01*
X58567142Y-42570000D01*
X58662380Y-42522380D01*
X59852857Y-42855714D02*
X59852857Y-43522380D01*
X59614761Y-42474761D02*
X59376666Y-43189047D01*
X59995714Y-43189047D01*
%TO.C,U401*%
X69332380Y-31884285D02*
X70141904Y-31884285D01*
X70237142Y-31836666D01*
X70284761Y-31789047D01*
X70332380Y-31693809D01*
X70332380Y-31503333D01*
X70284761Y-31408095D01*
X70237142Y-31360476D01*
X70141904Y-31312857D01*
X69332380Y-31312857D01*
X69665714Y-30408095D02*
X70332380Y-30408095D01*
X69284761Y-30646190D02*
X69999047Y-30884285D01*
X69999047Y-30265238D01*
X69332380Y-29693809D02*
X69332380Y-29598571D01*
X69380000Y-29503333D01*
X69427619Y-29455714D01*
X69522857Y-29408095D01*
X69713333Y-29360476D01*
X69951428Y-29360476D01*
X70141904Y-29408095D01*
X70237142Y-29455714D01*
X70284761Y-29503333D01*
X70332380Y-29598571D01*
X70332380Y-29693809D01*
X70284761Y-29789047D01*
X70237142Y-29836666D01*
X70141904Y-29884285D01*
X69951428Y-29931904D01*
X69713333Y-29931904D01*
X69522857Y-29884285D01*
X69427619Y-29836666D01*
X69380000Y-29789047D01*
X69332380Y-29693809D01*
X70332380Y-28408095D02*
X70332380Y-28979523D01*
X70332380Y-28693809D02*
X69332380Y-28693809D01*
X69475238Y-28789047D01*
X69570476Y-28884285D01*
X69618095Y-28979523D01*
%TO.C,U301*%
X71990714Y-32962380D02*
X71990714Y-33771904D01*
X72038333Y-33867142D01*
X72085952Y-33914761D01*
X72181190Y-33962380D01*
X72371666Y-33962380D01*
X72466904Y-33914761D01*
X72514523Y-33867142D01*
X72562142Y-33771904D01*
X72562142Y-32962380D01*
X72943095Y-32962380D02*
X73562142Y-32962380D01*
X73228809Y-33343333D01*
X73371666Y-33343333D01*
X73466904Y-33390952D01*
X73514523Y-33438571D01*
X73562142Y-33533809D01*
X73562142Y-33771904D01*
X73514523Y-33867142D01*
X73466904Y-33914761D01*
X73371666Y-33962380D01*
X73085952Y-33962380D01*
X72990714Y-33914761D01*
X72943095Y-33867142D01*
X74181190Y-32962380D02*
X74276428Y-32962380D01*
X74371666Y-33010000D01*
X74419285Y-33057619D01*
X74466904Y-33152857D01*
X74514523Y-33343333D01*
X74514523Y-33581428D01*
X74466904Y-33771904D01*
X74419285Y-33867142D01*
X74371666Y-33914761D01*
X74276428Y-33962380D01*
X74181190Y-33962380D01*
X74085952Y-33914761D01*
X74038333Y-33867142D01*
X73990714Y-33771904D01*
X73943095Y-33581428D01*
X73943095Y-33343333D01*
X73990714Y-33152857D01*
X74038333Y-33057619D01*
X74085952Y-33010000D01*
X74181190Y-32962380D01*
X75466904Y-33962380D02*
X74895476Y-33962380D01*
X75181190Y-33962380D02*
X75181190Y-32962380D01*
X75085952Y-33105238D01*
X74990714Y-33200476D01*
X74895476Y-33248095D01*
%TO.C,J103*%
X16794285Y-25802380D02*
X16794285Y-26516666D01*
X16746666Y-26659523D01*
X16651428Y-26754761D01*
X16508571Y-26802380D01*
X16413333Y-26802380D01*
X17794285Y-26802380D02*
X17222857Y-26802380D01*
X17508571Y-26802380D02*
X17508571Y-25802380D01*
X17413333Y-25945238D01*
X17318095Y-26040476D01*
X17222857Y-26088095D01*
X18413333Y-25802380D02*
X18508571Y-25802380D01*
X18603809Y-25850000D01*
X18651428Y-25897619D01*
X18699047Y-25992857D01*
X18746666Y-26183333D01*
X18746666Y-26421428D01*
X18699047Y-26611904D01*
X18651428Y-26707142D01*
X18603809Y-26754761D01*
X18508571Y-26802380D01*
X18413333Y-26802380D01*
X18318095Y-26754761D01*
X18270476Y-26707142D01*
X18222857Y-26611904D01*
X18175238Y-26421428D01*
X18175238Y-26183333D01*
X18222857Y-25992857D01*
X18270476Y-25897619D01*
X18318095Y-25850000D01*
X18413333Y-25802380D01*
X19080000Y-25802380D02*
X19699047Y-25802380D01*
X19365714Y-26183333D01*
X19508571Y-26183333D01*
X19603809Y-26230952D01*
X19651428Y-26278571D01*
X19699047Y-26373809D01*
X19699047Y-26611904D01*
X19651428Y-26707142D01*
X19603809Y-26754761D01*
X19508571Y-26802380D01*
X19222857Y-26802380D01*
X19127619Y-26754761D01*
X19080000Y-26707142D01*
D11*
%TO.C, *%
D12*
%TO.C,R303*%
X64690952Y-49952380D02*
X64357619Y-49476190D01*
X64119523Y-49952380D02*
X64119523Y-48952380D01*
X64500476Y-48952380D01*
X64595714Y-49000000D01*
X64643333Y-49047619D01*
X64690952Y-49142857D01*
X64690952Y-49285714D01*
X64643333Y-49380952D01*
X64595714Y-49428571D01*
X64500476Y-49476190D01*
X64119523Y-49476190D01*
X65024285Y-48952380D02*
X65643333Y-48952380D01*
X65310000Y-49333333D01*
X65452857Y-49333333D01*
X65548095Y-49380952D01*
X65595714Y-49428571D01*
X65643333Y-49523809D01*
X65643333Y-49761904D01*
X65595714Y-49857142D01*
X65548095Y-49904761D01*
X65452857Y-49952380D01*
X65167142Y-49952380D01*
X65071904Y-49904761D01*
X65024285Y-49857142D01*
X66262380Y-48952380D02*
X66357619Y-48952380D01*
X66452857Y-49000000D01*
X66500476Y-49047619D01*
X66548095Y-49142857D01*
X66595714Y-49333333D01*
X66595714Y-49571428D01*
X66548095Y-49761904D01*
X66500476Y-49857142D01*
X66452857Y-49904761D01*
X66357619Y-49952380D01*
X66262380Y-49952380D01*
X66167142Y-49904761D01*
X66119523Y-49857142D01*
X66071904Y-49761904D01*
X66024285Y-49571428D01*
X66024285Y-49333333D01*
X66071904Y-49142857D01*
X66119523Y-49047619D01*
X66167142Y-49000000D01*
X66262380Y-48952380D01*
X66929047Y-48952380D02*
X67548095Y-48952380D01*
X67214761Y-49333333D01*
X67357619Y-49333333D01*
X67452857Y-49380952D01*
X67500476Y-49428571D01*
X67548095Y-49523809D01*
X67548095Y-49761904D01*
X67500476Y-49857142D01*
X67452857Y-49904761D01*
X67357619Y-49952380D01*
X67071904Y-49952380D01*
X66976666Y-49904761D01*
X66929047Y-49857142D01*
%TO.C,S401*%
X59974761Y-20014285D02*
X60022380Y-19871428D01*
X60022380Y-19633333D01*
X59974761Y-19538095D01*
X59927142Y-19490476D01*
X59831904Y-19442857D01*
X59736666Y-19442857D01*
X59641428Y-19490476D01*
X59593809Y-19538095D01*
X59546190Y-19633333D01*
X59498571Y-19823809D01*
X59450952Y-19919047D01*
X59403333Y-19966666D01*
X59308095Y-20014285D01*
X59212857Y-20014285D01*
X59117619Y-19966666D01*
X59070000Y-19919047D01*
X59022380Y-19823809D01*
X59022380Y-19585714D01*
X59070000Y-19442857D01*
X59355714Y-18585714D02*
X60022380Y-18585714D01*
X58974761Y-18823809D02*
X59689047Y-19061904D01*
X59689047Y-18442857D01*
X59022380Y-17871428D02*
X59022380Y-17776190D01*
X59070000Y-17680952D01*
X59117619Y-17633333D01*
X59212857Y-17585714D01*
X59403333Y-17538095D01*
X59641428Y-17538095D01*
X59831904Y-17585714D01*
X59927142Y-17633333D01*
X59974761Y-17680952D01*
X60022380Y-17776190D01*
X60022380Y-17871428D01*
X59974761Y-17966666D01*
X59927142Y-18014285D01*
X59831904Y-18061904D01*
X59641428Y-18109523D01*
X59403333Y-18109523D01*
X59212857Y-18061904D01*
X59117619Y-18014285D01*
X59070000Y-17966666D01*
X59022380Y-17871428D01*
X60022380Y-16585714D02*
X60022380Y-17157142D01*
X60022380Y-16871428D02*
X59022380Y-16871428D01*
X59165238Y-16966666D01*
X59260476Y-17061904D01*
X59308095Y-17157142D01*
%TO.C,J206*%
X63342380Y-56995714D02*
X64056666Y-56995714D01*
X64199523Y-57043333D01*
X64294761Y-57138571D01*
X64342380Y-57281428D01*
X64342380Y-57376666D01*
X63437619Y-56567142D02*
X63390000Y-56519523D01*
X63342380Y-56424285D01*
X63342380Y-56186190D01*
X63390000Y-56090952D01*
X63437619Y-56043333D01*
X63532857Y-55995714D01*
X63628095Y-55995714D01*
X63770952Y-56043333D01*
X64342380Y-56614761D01*
X64342380Y-55995714D01*
X63342380Y-55376666D02*
X63342380Y-55281428D01*
X63390000Y-55186190D01*
X63437619Y-55138571D01*
X63532857Y-55090952D01*
X63723333Y-55043333D01*
X63961428Y-55043333D01*
X64151904Y-55090952D01*
X64247142Y-55138571D01*
X64294761Y-55186190D01*
X64342380Y-55281428D01*
X64342380Y-55376666D01*
X64294761Y-55471904D01*
X64247142Y-55519523D01*
X64151904Y-55567142D01*
X63961428Y-55614761D01*
X63723333Y-55614761D01*
X63532857Y-55567142D01*
X63437619Y-55519523D01*
X63390000Y-55471904D01*
X63342380Y-55376666D01*
X63342380Y-54186190D02*
X63342380Y-54376666D01*
X63390000Y-54471904D01*
X63437619Y-54519523D01*
X63580476Y-54614761D01*
X63770952Y-54662380D01*
X64151904Y-54662380D01*
X64247142Y-54614761D01*
X64294761Y-54567142D01*
X64342380Y-54471904D01*
X64342380Y-54281428D01*
X64294761Y-54186190D01*
X64247142Y-54138571D01*
X64151904Y-54090952D01*
X63913809Y-54090952D01*
X63818571Y-54138571D01*
X63770952Y-54186190D01*
X63723333Y-54281428D01*
X63723333Y-54471904D01*
X63770952Y-54567142D01*
X63818571Y-54614761D01*
X63913809Y-54662380D01*
%TO.C,C306*%
X57090952Y-44877142D02*
X57043333Y-44924761D01*
X56900476Y-44972380D01*
X56805238Y-44972380D01*
X56662380Y-44924761D01*
X56567142Y-44829523D01*
X56519523Y-44734285D01*
X56471904Y-44543809D01*
X56471904Y-44400952D01*
X56519523Y-44210476D01*
X56567142Y-44115238D01*
X56662380Y-44020000D01*
X56805238Y-43972380D01*
X56900476Y-43972380D01*
X57043333Y-44020000D01*
X57090952Y-44067619D01*
X57424285Y-43972380D02*
X58043333Y-43972380D01*
X57710000Y-44353333D01*
X57852857Y-44353333D01*
X57948095Y-44400952D01*
X57995714Y-44448571D01*
X58043333Y-44543809D01*
X58043333Y-44781904D01*
X57995714Y-44877142D01*
X57948095Y-44924761D01*
X57852857Y-44972380D01*
X57567142Y-44972380D01*
X57471904Y-44924761D01*
X57424285Y-44877142D01*
X58662380Y-43972380D02*
X58757619Y-43972380D01*
X58852857Y-44020000D01*
X58900476Y-44067619D01*
X58948095Y-44162857D01*
X58995714Y-44353333D01*
X58995714Y-44591428D01*
X58948095Y-44781904D01*
X58900476Y-44877142D01*
X58852857Y-44924761D01*
X58757619Y-44972380D01*
X58662380Y-44972380D01*
X58567142Y-44924761D01*
X58519523Y-44877142D01*
X58471904Y-44781904D01*
X58424285Y-44591428D01*
X58424285Y-44353333D01*
X58471904Y-44162857D01*
X58519523Y-44067619D01*
X58567142Y-44020000D01*
X58662380Y-43972380D01*
X59852857Y-43972380D02*
X59662380Y-43972380D01*
X59567142Y-44020000D01*
X59519523Y-44067619D01*
X59424285Y-44210476D01*
X59376666Y-44400952D01*
X59376666Y-44781904D01*
X59424285Y-44877142D01*
X59471904Y-44924761D01*
X59567142Y-44972380D01*
X59757619Y-44972380D01*
X59852857Y-44924761D01*
X59900476Y-44877142D01*
X59948095Y-44781904D01*
X59948095Y-44543809D01*
X59900476Y-44448571D01*
X59852857Y-44400952D01*
X59757619Y-44353333D01*
X59567142Y-44353333D01*
X59471904Y-44400952D01*
X59424285Y-44448571D01*
X59376666Y-44543809D01*
%TO.C,J208*%
X82722380Y-56995714D02*
X83436666Y-56995714D01*
X83579523Y-57043333D01*
X83674761Y-57138571D01*
X83722380Y-57281428D01*
X83722380Y-57376666D01*
X82817619Y-56567142D02*
X82770000Y-56519523D01*
X82722380Y-56424285D01*
X82722380Y-56186190D01*
X82770000Y-56090952D01*
X82817619Y-56043333D01*
X82912857Y-55995714D01*
X83008095Y-55995714D01*
X83150952Y-56043333D01*
X83722380Y-56614761D01*
X83722380Y-55995714D01*
X82722380Y-55376666D02*
X82722380Y-55281428D01*
X82770000Y-55186190D01*
X82817619Y-55138571D01*
X82912857Y-55090952D01*
X83103333Y-55043333D01*
X83341428Y-55043333D01*
X83531904Y-55090952D01*
X83627142Y-55138571D01*
X83674761Y-55186190D01*
X83722380Y-55281428D01*
X83722380Y-55376666D01*
X83674761Y-55471904D01*
X83627142Y-55519523D01*
X83531904Y-55567142D01*
X83341428Y-55614761D01*
X83103333Y-55614761D01*
X82912857Y-55567142D01*
X82817619Y-55519523D01*
X82770000Y-55471904D01*
X82722380Y-55376666D01*
X83150952Y-54471904D02*
X83103333Y-54567142D01*
X83055714Y-54614761D01*
X82960476Y-54662380D01*
X82912857Y-54662380D01*
X82817619Y-54614761D01*
X82770000Y-54567142D01*
X82722380Y-54471904D01*
X82722380Y-54281428D01*
X82770000Y-54186190D01*
X82817619Y-54138571D01*
X82912857Y-54090952D01*
X82960476Y-54090952D01*
X83055714Y-54138571D01*
X83103333Y-54186190D01*
X83150952Y-54281428D01*
X83150952Y-54471904D01*
X83198571Y-54567142D01*
X83246190Y-54614761D01*
X83341428Y-54662380D01*
X83531904Y-54662380D01*
X83627142Y-54614761D01*
X83674761Y-54567142D01*
X83722380Y-54471904D01*
X83722380Y-54281428D01*
X83674761Y-54186190D01*
X83627142Y-54138571D01*
X83531904Y-54090952D01*
X83341428Y-54090952D01*
X83246190Y-54138571D01*
X83198571Y-54186190D01*
X83150952Y-54281428D01*
%TO.C,C403*%
X53697142Y-28421547D02*
X53744761Y-28469166D01*
X53792380Y-28612023D01*
X53792380Y-28707261D01*
X53744761Y-28850119D01*
X53649523Y-28945357D01*
X53554285Y-28992976D01*
X53363809Y-29040595D01*
X53220952Y-29040595D01*
X53030476Y-28992976D01*
X52935238Y-28945357D01*
X52840000Y-28850119D01*
X52792380Y-28707261D01*
X52792380Y-28612023D01*
X52840000Y-28469166D01*
X52887619Y-28421547D01*
X53125714Y-27564404D02*
X53792380Y-27564404D01*
X52744761Y-27802500D02*
X53459047Y-28040595D01*
X53459047Y-27421547D01*
X52792380Y-26850119D02*
X52792380Y-26754880D01*
X52840000Y-26659642D01*
X52887619Y-26612023D01*
X52982857Y-26564404D01*
X53173333Y-26516785D01*
X53411428Y-26516785D01*
X53601904Y-26564404D01*
X53697142Y-26612023D01*
X53744761Y-26659642D01*
X53792380Y-26754880D01*
X53792380Y-26850119D01*
X53744761Y-26945357D01*
X53697142Y-26992976D01*
X53601904Y-27040595D01*
X53411428Y-27088214D01*
X53173333Y-27088214D01*
X52982857Y-27040595D01*
X52887619Y-26992976D01*
X52840000Y-26945357D01*
X52792380Y-26850119D01*
X52792380Y-26183452D02*
X52792380Y-25564404D01*
X53173333Y-25897738D01*
X53173333Y-25754880D01*
X53220952Y-25659642D01*
X53268571Y-25612023D01*
X53363809Y-25564404D01*
X53601904Y-25564404D01*
X53697142Y-25612023D01*
X53744761Y-25659642D01*
X53792380Y-25754880D01*
X53792380Y-26040595D01*
X53744761Y-26135833D01*
X53697142Y-26183452D01*
%TO.C,C501*%
X43870952Y-28037142D02*
X43823333Y-28084761D01*
X43680476Y-28132380D01*
X43585238Y-28132380D01*
X43442380Y-28084761D01*
X43347142Y-27989523D01*
X43299523Y-27894285D01*
X43251904Y-27703809D01*
X43251904Y-27560952D01*
X43299523Y-27370476D01*
X43347142Y-27275238D01*
X43442380Y-27180000D01*
X43585238Y-27132380D01*
X43680476Y-27132380D01*
X43823333Y-27180000D01*
X43870952Y-27227619D01*
X44775714Y-27132380D02*
X44299523Y-27132380D01*
X44251904Y-27608571D01*
X44299523Y-27560952D01*
X44394761Y-27513333D01*
X44632857Y-27513333D01*
X44728095Y-27560952D01*
X44775714Y-27608571D01*
X44823333Y-27703809D01*
X44823333Y-27941904D01*
X44775714Y-28037142D01*
X44728095Y-28084761D01*
X44632857Y-28132380D01*
X44394761Y-28132380D01*
X44299523Y-28084761D01*
X44251904Y-28037142D01*
X45442380Y-27132380D02*
X45537619Y-27132380D01*
X45632857Y-27180000D01*
X45680476Y-27227619D01*
X45728095Y-27322857D01*
X45775714Y-27513333D01*
X45775714Y-27751428D01*
X45728095Y-27941904D01*
X45680476Y-28037142D01*
X45632857Y-28084761D01*
X45537619Y-28132380D01*
X45442380Y-28132380D01*
X45347142Y-28084761D01*
X45299523Y-28037142D01*
X45251904Y-27941904D01*
X45204285Y-27751428D01*
X45204285Y-27513333D01*
X45251904Y-27322857D01*
X45299523Y-27227619D01*
X45347142Y-27180000D01*
X45442380Y-27132380D01*
X46728095Y-28132380D02*
X46156666Y-28132380D01*
X46442380Y-28132380D02*
X46442380Y-27132380D01*
X46347142Y-27275238D01*
X46251904Y-27370476D01*
X46156666Y-27418095D01*
%TO.C,J104*%
X21014285Y-39372380D02*
X21014285Y-40086666D01*
X20966666Y-40229523D01*
X20871428Y-40324761D01*
X20728571Y-40372380D01*
X20633333Y-40372380D01*
X22014285Y-40372380D02*
X21442857Y-40372380D01*
X21728571Y-40372380D02*
X21728571Y-39372380D01*
X21633333Y-39515238D01*
X21538095Y-39610476D01*
X21442857Y-39658095D01*
X22633333Y-39372380D02*
X22728571Y-39372380D01*
X22823809Y-39420000D01*
X22871428Y-39467619D01*
X22919047Y-39562857D01*
X22966666Y-39753333D01*
X22966666Y-39991428D01*
X22919047Y-40181904D01*
X22871428Y-40277142D01*
X22823809Y-40324761D01*
X22728571Y-40372380D01*
X22633333Y-40372380D01*
X22538095Y-40324761D01*
X22490476Y-40277142D01*
X22442857Y-40181904D01*
X22395238Y-39991428D01*
X22395238Y-39753333D01*
X22442857Y-39562857D01*
X22490476Y-39467619D01*
X22538095Y-39420000D01*
X22633333Y-39372380D01*
X23823809Y-39705714D02*
X23823809Y-40372380D01*
X23585714Y-39324761D02*
X23347619Y-40039047D01*
X23966666Y-40039047D01*
%TO.C,R307*%
X42843452Y-42432380D02*
X42510119Y-41956190D01*
X42272023Y-42432380D02*
X42272023Y-41432380D01*
X42652976Y-41432380D01*
X42748214Y-41480000D01*
X42795833Y-41527619D01*
X42843452Y-41622857D01*
X42843452Y-41765714D01*
X42795833Y-41860952D01*
X42748214Y-41908571D01*
X42652976Y-41956190D01*
X42272023Y-41956190D01*
X43176785Y-41432380D02*
X43795833Y-41432380D01*
X43462500Y-41813333D01*
X43605357Y-41813333D01*
X43700595Y-41860952D01*
X43748214Y-41908571D01*
X43795833Y-42003809D01*
X43795833Y-42241904D01*
X43748214Y-42337142D01*
X43700595Y-42384761D01*
X43605357Y-42432380D01*
X43319642Y-42432380D01*
X43224404Y-42384761D01*
X43176785Y-42337142D01*
X44414880Y-41432380D02*
X44510119Y-41432380D01*
X44605357Y-41480000D01*
X44652976Y-41527619D01*
X44700595Y-41622857D01*
X44748214Y-41813333D01*
X44748214Y-42051428D01*
X44700595Y-42241904D01*
X44652976Y-42337142D01*
X44605357Y-42384761D01*
X44510119Y-42432380D01*
X44414880Y-42432380D01*
X44319642Y-42384761D01*
X44272023Y-42337142D01*
X44224404Y-42241904D01*
X44176785Y-42051428D01*
X44176785Y-41813333D01*
X44224404Y-41622857D01*
X44272023Y-41527619D01*
X44319642Y-41480000D01*
X44414880Y-41432380D01*
X45081547Y-41432380D02*
X45748214Y-41432380D01*
X45319642Y-42432380D01*
%TO.C,JP303*%
X98372380Y-41010714D02*
X99086666Y-41010714D01*
X99229523Y-41058333D01*
X99324761Y-41153571D01*
X99372380Y-41296428D01*
X99372380Y-41391666D01*
X99372380Y-40534523D02*
X98372380Y-40534523D01*
X98372380Y-40153571D01*
X98420000Y-40058333D01*
X98467619Y-40010714D01*
X98562857Y-39963095D01*
X98705714Y-39963095D01*
X98800952Y-40010714D01*
X98848571Y-40058333D01*
X98896190Y-40153571D01*
X98896190Y-40534523D01*
X98372380Y-39629761D02*
X98372380Y-39010714D01*
X98753333Y-39344047D01*
X98753333Y-39201190D01*
X98800952Y-39105952D01*
X98848571Y-39058333D01*
X98943809Y-39010714D01*
X99181904Y-39010714D01*
X99277142Y-39058333D01*
X99324761Y-39105952D01*
X99372380Y-39201190D01*
X99372380Y-39486904D01*
X99324761Y-39582142D01*
X99277142Y-39629761D01*
X98372380Y-38391666D02*
X98372380Y-38296428D01*
X98420000Y-38201190D01*
X98467619Y-38153571D01*
X98562857Y-38105952D01*
X98753333Y-38058333D01*
X98991428Y-38058333D01*
X99181904Y-38105952D01*
X99277142Y-38153571D01*
X99324761Y-38201190D01*
X99372380Y-38296428D01*
X99372380Y-38391666D01*
X99324761Y-38486904D01*
X99277142Y-38534523D01*
X99181904Y-38582142D01*
X98991428Y-38629761D01*
X98753333Y-38629761D01*
X98562857Y-38582142D01*
X98467619Y-38534523D01*
X98420000Y-38486904D01*
X98372380Y-38391666D01*
X98372380Y-37725000D02*
X98372380Y-37105952D01*
X98753333Y-37439285D01*
X98753333Y-37296428D01*
X98800952Y-37201190D01*
X98848571Y-37153571D01*
X98943809Y-37105952D01*
X99181904Y-37105952D01*
X99277142Y-37153571D01*
X99324761Y-37201190D01*
X99372380Y-37296428D01*
X99372380Y-37582142D01*
X99324761Y-37677380D01*
X99277142Y-37725000D01*
%TO.C,J501*%
X24202380Y-19725714D02*
X24916666Y-19725714D01*
X25059523Y-19773333D01*
X25154761Y-19868571D01*
X25202380Y-20011428D01*
X25202380Y-20106666D01*
X24202380Y-18773333D02*
X24202380Y-19249523D01*
X24678571Y-19297142D01*
X24630952Y-19249523D01*
X24583333Y-19154285D01*
X24583333Y-18916190D01*
X24630952Y-18820952D01*
X24678571Y-18773333D01*
X24773809Y-18725714D01*
X25011904Y-18725714D01*
X25107142Y-18773333D01*
X25154761Y-18820952D01*
X25202380Y-18916190D01*
X25202380Y-19154285D01*
X25154761Y-19249523D01*
X25107142Y-19297142D01*
X24202380Y-18106666D02*
X24202380Y-18011428D01*
X24250000Y-17916190D01*
X24297619Y-17868571D01*
X24392857Y-17820952D01*
X24583333Y-17773333D01*
X24821428Y-17773333D01*
X25011904Y-17820952D01*
X25107142Y-17868571D01*
X25154761Y-17916190D01*
X25202380Y-18011428D01*
X25202380Y-18106666D01*
X25154761Y-18201904D01*
X25107142Y-18249523D01*
X25011904Y-18297142D01*
X24821428Y-18344761D01*
X24583333Y-18344761D01*
X24392857Y-18297142D01*
X24297619Y-18249523D01*
X24250000Y-18201904D01*
X24202380Y-18106666D01*
X25202380Y-16820952D02*
X25202380Y-17392380D01*
X25202380Y-17106666D02*
X24202380Y-17106666D01*
X24345238Y-17201904D01*
X24440476Y-17297142D01*
X24488095Y-17392380D01*
%TO.C,C506*%
X83322952Y-33339142D02*
X83275333Y-33386761D01*
X83132476Y-33434380D01*
X83037238Y-33434380D01*
X82894380Y-33386761D01*
X82799142Y-33291523D01*
X82751523Y-33196285D01*
X82703904Y-33005809D01*
X82703904Y-32862952D01*
X82751523Y-32672476D01*
X82799142Y-32577238D01*
X82894380Y-32482000D01*
X83037238Y-32434380D01*
X83132476Y-32434380D01*
X83275333Y-32482000D01*
X83322952Y-32529619D01*
X84227714Y-32434380D02*
X83751523Y-32434380D01*
X83703904Y-32910571D01*
X83751523Y-32862952D01*
X83846761Y-32815333D01*
X84084857Y-32815333D01*
X84180095Y-32862952D01*
X84227714Y-32910571D01*
X84275333Y-33005809D01*
X84275333Y-33243904D01*
X84227714Y-33339142D01*
X84180095Y-33386761D01*
X84084857Y-33434380D01*
X83846761Y-33434380D01*
X83751523Y-33386761D01*
X83703904Y-33339142D01*
X84894380Y-32434380D02*
X84989619Y-32434380D01*
X85084857Y-32482000D01*
X85132476Y-32529619D01*
X85180095Y-32624857D01*
X85227714Y-32815333D01*
X85227714Y-33053428D01*
X85180095Y-33243904D01*
X85132476Y-33339142D01*
X85084857Y-33386761D01*
X84989619Y-33434380D01*
X84894380Y-33434380D01*
X84799142Y-33386761D01*
X84751523Y-33339142D01*
X84703904Y-33243904D01*
X84656285Y-33053428D01*
X84656285Y-32815333D01*
X84703904Y-32624857D01*
X84751523Y-32529619D01*
X84799142Y-32482000D01*
X84894380Y-32434380D01*
X86084857Y-32434380D02*
X85894380Y-32434380D01*
X85799142Y-32482000D01*
X85751523Y-32529619D01*
X85656285Y-32672476D01*
X85608666Y-32862952D01*
X85608666Y-33243904D01*
X85656285Y-33339142D01*
X85703904Y-33386761D01*
X85799142Y-33434380D01*
X85989619Y-33434380D01*
X86084857Y-33386761D01*
X86132476Y-33339142D01*
X86180095Y-33243904D01*
X86180095Y-33005809D01*
X86132476Y-32910571D01*
X86084857Y-32862952D01*
X85989619Y-32815333D01*
X85799142Y-32815333D01*
X85703904Y-32862952D01*
X85656285Y-32910571D01*
X85608666Y-33005809D01*
%TO.C,H101*%
X17255714Y-24812380D02*
X17255714Y-23812380D01*
X17255714Y-24288571D02*
X17827142Y-24288571D01*
X17827142Y-24812380D02*
X17827142Y-23812380D01*
X18827142Y-24812380D02*
X18255714Y-24812380D01*
X18541428Y-24812380D02*
X18541428Y-23812380D01*
X18446190Y-23955238D01*
X18350952Y-24050476D01*
X18255714Y-24098095D01*
X19446190Y-23812380D02*
X19541428Y-23812380D01*
X19636666Y-23860000D01*
X19684285Y-23907619D01*
X19731904Y-24002857D01*
X19779523Y-24193333D01*
X19779523Y-24431428D01*
X19731904Y-24621904D01*
X19684285Y-24717142D01*
X19636666Y-24764761D01*
X19541428Y-24812380D01*
X19446190Y-24812380D01*
X19350952Y-24764761D01*
X19303333Y-24717142D01*
X19255714Y-24621904D01*
X19208095Y-24431428D01*
X19208095Y-24193333D01*
X19255714Y-24002857D01*
X19303333Y-23907619D01*
X19350952Y-23860000D01*
X19446190Y-23812380D01*
X20731904Y-24812380D02*
X20160476Y-24812380D01*
X20446190Y-24812380D02*
X20446190Y-23812380D01*
X20350952Y-23955238D01*
X20255714Y-24050476D01*
X20160476Y-24098095D01*
%TO.C,D301*%
X30579523Y-37412380D02*
X30579523Y-36412380D01*
X30817619Y-36412380D01*
X30960476Y-36460000D01*
X31055714Y-36555238D01*
X31103333Y-36650476D01*
X31150952Y-36840952D01*
X31150952Y-36983809D01*
X31103333Y-37174285D01*
X31055714Y-37269523D01*
X30960476Y-37364761D01*
X30817619Y-37412380D01*
X30579523Y-37412380D01*
X31484285Y-36412380D02*
X32103333Y-36412380D01*
X31770000Y-36793333D01*
X31912857Y-36793333D01*
X32008095Y-36840952D01*
X32055714Y-36888571D01*
X32103333Y-36983809D01*
X32103333Y-37221904D01*
X32055714Y-37317142D01*
X32008095Y-37364761D01*
X31912857Y-37412380D01*
X31627142Y-37412380D01*
X31531904Y-37364761D01*
X31484285Y-37317142D01*
X32722380Y-36412380D02*
X32817619Y-36412380D01*
X32912857Y-36460000D01*
X32960476Y-36507619D01*
X33008095Y-36602857D01*
X33055714Y-36793333D01*
X33055714Y-37031428D01*
X33008095Y-37221904D01*
X32960476Y-37317142D01*
X32912857Y-37364761D01*
X32817619Y-37412380D01*
X32722380Y-37412380D01*
X32627142Y-37364761D01*
X32579523Y-37317142D01*
X32531904Y-37221904D01*
X32484285Y-37031428D01*
X32484285Y-36793333D01*
X32531904Y-36602857D01*
X32579523Y-36507619D01*
X32627142Y-36460000D01*
X32722380Y-36412380D01*
X34008095Y-37412380D02*
X33436666Y-37412380D01*
X33722380Y-37412380D02*
X33722380Y-36412380D01*
X33627142Y-36555238D01*
X33531904Y-36650476D01*
X33436666Y-36698095D01*
%TO.C,R306*%
X39030952Y-42392380D02*
X38697619Y-41916190D01*
X38459523Y-42392380D02*
X38459523Y-41392380D01*
X38840476Y-41392380D01*
X38935714Y-41440000D01*
X38983333Y-41487619D01*
X39030952Y-41582857D01*
X39030952Y-41725714D01*
X38983333Y-41820952D01*
X38935714Y-41868571D01*
X38840476Y-41916190D01*
X38459523Y-41916190D01*
X39364285Y-41392380D02*
X39983333Y-41392380D01*
X39650000Y-41773333D01*
X39792857Y-41773333D01*
X39888095Y-41820952D01*
X39935714Y-41868571D01*
X39983333Y-41963809D01*
X39983333Y-42201904D01*
X39935714Y-42297142D01*
X39888095Y-42344761D01*
X39792857Y-42392380D01*
X39507142Y-42392380D01*
X39411904Y-42344761D01*
X39364285Y-42297142D01*
X40602380Y-41392380D02*
X40697619Y-41392380D01*
X40792857Y-41440000D01*
X40840476Y-41487619D01*
X40888095Y-41582857D01*
X40935714Y-41773333D01*
X40935714Y-42011428D01*
X40888095Y-42201904D01*
X40840476Y-42297142D01*
X40792857Y-42344761D01*
X40697619Y-42392380D01*
X40602380Y-42392380D01*
X40507142Y-42344761D01*
X40459523Y-42297142D01*
X40411904Y-42201904D01*
X40364285Y-42011428D01*
X40364285Y-41773333D01*
X40411904Y-41582857D01*
X40459523Y-41487619D01*
X40507142Y-41440000D01*
X40602380Y-41392380D01*
X41792857Y-41392380D02*
X41602380Y-41392380D01*
X41507142Y-41440000D01*
X41459523Y-41487619D01*
X41364285Y-41630476D01*
X41316666Y-41820952D01*
X41316666Y-42201904D01*
X41364285Y-42297142D01*
X41411904Y-42344761D01*
X41507142Y-42392380D01*
X41697619Y-42392380D01*
X41792857Y-42344761D01*
X41840476Y-42297142D01*
X41888095Y-42201904D01*
X41888095Y-41963809D01*
X41840476Y-41868571D01*
X41792857Y-41820952D01*
X41697619Y-41773333D01*
X41507142Y-41773333D01*
X41411904Y-41820952D01*
X41364285Y-41868571D01*
X41316666Y-41963809D01*
%TO.C,J101*%
X16714285Y-39372380D02*
X16714285Y-40086666D01*
X16666666Y-40229523D01*
X16571428Y-40324761D01*
X16428571Y-40372380D01*
X16333333Y-40372380D01*
X17714285Y-40372380D02*
X17142857Y-40372380D01*
X17428571Y-40372380D02*
X17428571Y-39372380D01*
X17333333Y-39515238D01*
X17238095Y-39610476D01*
X17142857Y-39658095D01*
X18333333Y-39372380D02*
X18428571Y-39372380D01*
X18523809Y-39420000D01*
X18571428Y-39467619D01*
X18619047Y-39562857D01*
X18666666Y-39753333D01*
X18666666Y-39991428D01*
X18619047Y-40181904D01*
X18571428Y-40277142D01*
X18523809Y-40324761D01*
X18428571Y-40372380D01*
X18333333Y-40372380D01*
X18238095Y-40324761D01*
X18190476Y-40277142D01*
X18142857Y-40181904D01*
X18095238Y-39991428D01*
X18095238Y-39753333D01*
X18142857Y-39562857D01*
X18190476Y-39467619D01*
X18238095Y-39420000D01*
X18333333Y-39372380D01*
X19619047Y-40372380D02*
X19047619Y-40372380D01*
X19333333Y-40372380D02*
X19333333Y-39372380D01*
X19238095Y-39515238D01*
X19142857Y-39610476D01*
X19047619Y-39658095D01*
%TO.C,J502*%
X94652380Y-19645714D02*
X95366666Y-19645714D01*
X95509523Y-19693333D01*
X95604761Y-19788571D01*
X95652380Y-19931428D01*
X95652380Y-20026666D01*
X94652380Y-18693333D02*
X94652380Y-19169523D01*
X95128571Y-19217142D01*
X95080952Y-19169523D01*
X95033333Y-19074285D01*
X95033333Y-18836190D01*
X95080952Y-18740952D01*
X95128571Y-18693333D01*
X95223809Y-18645714D01*
X95461904Y-18645714D01*
X95557142Y-18693333D01*
X95604761Y-18740952D01*
X95652380Y-18836190D01*
X95652380Y-19074285D01*
X95604761Y-19169523D01*
X95557142Y-19217142D01*
X94652380Y-18026666D02*
X94652380Y-17931428D01*
X94700000Y-17836190D01*
X94747619Y-17788571D01*
X94842857Y-17740952D01*
X95033333Y-17693333D01*
X95271428Y-17693333D01*
X95461904Y-17740952D01*
X95557142Y-17788571D01*
X95604761Y-17836190D01*
X95652380Y-17931428D01*
X95652380Y-18026666D01*
X95604761Y-18121904D01*
X95557142Y-18169523D01*
X95461904Y-18217142D01*
X95271428Y-18264761D01*
X95033333Y-18264761D01*
X94842857Y-18217142D01*
X94747619Y-18169523D01*
X94700000Y-18121904D01*
X94652380Y-18026666D01*
X94747619Y-17312380D02*
X94700000Y-17264761D01*
X94652380Y-17169523D01*
X94652380Y-16931428D01*
X94700000Y-16836190D01*
X94747619Y-16788571D01*
X94842857Y-16740952D01*
X94938095Y-16740952D01*
X95080952Y-16788571D01*
X95652380Y-17360000D01*
X95652380Y-16740952D01*
%TO.C,L301*%
X57120952Y-42072380D02*
X56644761Y-42072380D01*
X56644761Y-41072380D01*
X57359047Y-41072380D02*
X57978095Y-41072380D01*
X57644761Y-41453333D01*
X57787619Y-41453333D01*
X57882857Y-41500952D01*
X57930476Y-41548571D01*
X57978095Y-41643809D01*
X57978095Y-41881904D01*
X57930476Y-41977142D01*
X57882857Y-42024761D01*
X57787619Y-42072380D01*
X57501904Y-42072380D01*
X57406666Y-42024761D01*
X57359047Y-41977142D01*
X58597142Y-41072380D02*
X58692380Y-41072380D01*
X58787619Y-41120000D01*
X58835238Y-41167619D01*
X58882857Y-41262857D01*
X58930476Y-41453333D01*
X58930476Y-41691428D01*
X58882857Y-41881904D01*
X58835238Y-41977142D01*
X58787619Y-42024761D01*
X58692380Y-42072380D01*
X58597142Y-42072380D01*
X58501904Y-42024761D01*
X58454285Y-41977142D01*
X58406666Y-41881904D01*
X58359047Y-41691428D01*
X58359047Y-41453333D01*
X58406666Y-41262857D01*
X58454285Y-41167619D01*
X58501904Y-41120000D01*
X58597142Y-41072380D01*
X59882857Y-42072380D02*
X59311428Y-42072380D01*
X59597142Y-42072380D02*
X59597142Y-41072380D01*
X59501904Y-41215238D01*
X59406666Y-41310476D01*
X59311428Y-41358095D01*
%TO.C,JP304*%
X86174285Y-45322380D02*
X86174285Y-46036666D01*
X86126666Y-46179523D01*
X86031428Y-46274761D01*
X85888571Y-46322380D01*
X85793333Y-46322380D01*
X86650476Y-46322380D02*
X86650476Y-45322380D01*
X87031428Y-45322380D01*
X87126666Y-45370000D01*
X87174285Y-45417619D01*
X87221904Y-45512857D01*
X87221904Y-45655714D01*
X87174285Y-45750952D01*
X87126666Y-45798571D01*
X87031428Y-45846190D01*
X86650476Y-45846190D01*
X87555238Y-45322380D02*
X88174285Y-45322380D01*
X87840952Y-45703333D01*
X87983809Y-45703333D01*
X88079047Y-45750952D01*
X88126666Y-45798571D01*
X88174285Y-45893809D01*
X88174285Y-46131904D01*
X88126666Y-46227142D01*
X88079047Y-46274761D01*
X87983809Y-46322380D01*
X87698095Y-46322380D01*
X87602857Y-46274761D01*
X87555238Y-46227142D01*
X88793333Y-45322380D02*
X88888571Y-45322380D01*
X88983809Y-45370000D01*
X89031428Y-45417619D01*
X89079047Y-45512857D01*
X89126666Y-45703333D01*
X89126666Y-45941428D01*
X89079047Y-46131904D01*
X89031428Y-46227142D01*
X88983809Y-46274761D01*
X88888571Y-46322380D01*
X88793333Y-46322380D01*
X88698095Y-46274761D01*
X88650476Y-46227142D01*
X88602857Y-46131904D01*
X88555238Y-45941428D01*
X88555238Y-45703333D01*
X88602857Y-45512857D01*
X88650476Y-45417619D01*
X88698095Y-45370000D01*
X88793333Y-45322380D01*
X89983809Y-45655714D02*
X89983809Y-46322380D01*
X89745714Y-45274761D02*
X89507619Y-45989047D01*
X90126666Y-45989047D01*
%TO.C,D302*%
X34449523Y-37412380D02*
X34449523Y-36412380D01*
X34687619Y-36412380D01*
X34830476Y-36460000D01*
X34925714Y-36555238D01*
X34973333Y-36650476D01*
X35020952Y-36840952D01*
X35020952Y-36983809D01*
X34973333Y-37174285D01*
X34925714Y-37269523D01*
X34830476Y-37364761D01*
X34687619Y-37412380D01*
X34449523Y-37412380D01*
X35354285Y-36412380D02*
X35973333Y-36412380D01*
X35640000Y-36793333D01*
X35782857Y-36793333D01*
X35878095Y-36840952D01*
X35925714Y-36888571D01*
X35973333Y-36983809D01*
X35973333Y-37221904D01*
X35925714Y-37317142D01*
X35878095Y-37364761D01*
X35782857Y-37412380D01*
X35497142Y-37412380D01*
X35401904Y-37364761D01*
X35354285Y-37317142D01*
X36592380Y-36412380D02*
X36687619Y-36412380D01*
X36782857Y-36460000D01*
X36830476Y-36507619D01*
X36878095Y-36602857D01*
X36925714Y-36793333D01*
X36925714Y-37031428D01*
X36878095Y-37221904D01*
X36830476Y-37317142D01*
X36782857Y-37364761D01*
X36687619Y-37412380D01*
X36592380Y-37412380D01*
X36497142Y-37364761D01*
X36449523Y-37317142D01*
X36401904Y-37221904D01*
X36354285Y-37031428D01*
X36354285Y-36793333D01*
X36401904Y-36602857D01*
X36449523Y-36507619D01*
X36497142Y-36460000D01*
X36592380Y-36412380D01*
X37306666Y-36507619D02*
X37354285Y-36460000D01*
X37449523Y-36412380D01*
X37687619Y-36412380D01*
X37782857Y-36460000D01*
X37830476Y-36507619D01*
X37878095Y-36602857D01*
X37878095Y-36698095D01*
X37830476Y-36840952D01*
X37259047Y-37412380D01*
X37878095Y-37412380D01*
%TO.C,JP508*%
X114044285Y-23872380D02*
X114044285Y-24586666D01*
X113996666Y-24729523D01*
X113901428Y-24824761D01*
X113758571Y-24872380D01*
X113663333Y-24872380D01*
X114520476Y-24872380D02*
X114520476Y-23872380D01*
X114901428Y-23872380D01*
X114996666Y-23920000D01*
X115044285Y-23967619D01*
X115091904Y-24062857D01*
X115091904Y-24205714D01*
X115044285Y-24300952D01*
X114996666Y-24348571D01*
X114901428Y-24396190D01*
X114520476Y-24396190D01*
X115996666Y-23872380D02*
X115520476Y-23872380D01*
X115472857Y-24348571D01*
X115520476Y-24300952D01*
X115615714Y-24253333D01*
X115853809Y-24253333D01*
X115949047Y-24300952D01*
X115996666Y-24348571D01*
X116044285Y-24443809D01*
X116044285Y-24681904D01*
X115996666Y-24777142D01*
X115949047Y-24824761D01*
X115853809Y-24872380D01*
X115615714Y-24872380D01*
X115520476Y-24824761D01*
X115472857Y-24777142D01*
X116663333Y-23872380D02*
X116758571Y-23872380D01*
X116853809Y-23920000D01*
X116901428Y-23967619D01*
X116949047Y-24062857D01*
X116996666Y-24253333D01*
X116996666Y-24491428D01*
X116949047Y-24681904D01*
X116901428Y-24777142D01*
X116853809Y-24824761D01*
X116758571Y-24872380D01*
X116663333Y-24872380D01*
X116568095Y-24824761D01*
X116520476Y-24777142D01*
X116472857Y-24681904D01*
X116425238Y-24491428D01*
X116425238Y-24253333D01*
X116472857Y-24062857D01*
X116520476Y-23967619D01*
X116568095Y-23920000D01*
X116663333Y-23872380D01*
X117568095Y-24300952D02*
X117472857Y-24253333D01*
X117425238Y-24205714D01*
X117377619Y-24110476D01*
X117377619Y-24062857D01*
X117425238Y-23967619D01*
X117472857Y-23920000D01*
X117568095Y-23872380D01*
X117758571Y-23872380D01*
X117853809Y-23920000D01*
X117901428Y-23967619D01*
X117949047Y-24062857D01*
X117949047Y-24110476D01*
X117901428Y-24205714D01*
X117853809Y-24253333D01*
X117758571Y-24300952D01*
X117568095Y-24300952D01*
X117472857Y-24348571D01*
X117425238Y-24396190D01*
X117377619Y-24491428D01*
X117377619Y-24681904D01*
X117425238Y-24777142D01*
X117472857Y-24824761D01*
X117568095Y-24872380D01*
X117758571Y-24872380D01*
X117853809Y-24824761D01*
X117901428Y-24777142D01*
X117949047Y-24681904D01*
X117949047Y-24491428D01*
X117901428Y-24396190D01*
X117853809Y-24348571D01*
X117758571Y-24300952D01*
%TO.C,U402*%
X51032380Y-26594285D02*
X51841904Y-26594285D01*
X51937142Y-26546666D01*
X51984761Y-26499047D01*
X52032380Y-26403809D01*
X52032380Y-26213333D01*
X51984761Y-26118095D01*
X51937142Y-26070476D01*
X51841904Y-26022857D01*
X51032380Y-26022857D01*
X51365714Y-25118095D02*
X52032380Y-25118095D01*
X50984761Y-25356190D02*
X51699047Y-25594285D01*
X51699047Y-24975238D01*
X51032380Y-24403809D02*
X51032380Y-24308571D01*
X51080000Y-24213333D01*
X51127619Y-24165714D01*
X51222857Y-24118095D01*
X51413333Y-24070476D01*
X51651428Y-24070476D01*
X51841904Y-24118095D01*
X51937142Y-24165714D01*
X51984761Y-24213333D01*
X52032380Y-24308571D01*
X52032380Y-24403809D01*
X51984761Y-24499047D01*
X51937142Y-24546666D01*
X51841904Y-24594285D01*
X51651428Y-24641904D01*
X51413333Y-24641904D01*
X51222857Y-24594285D01*
X51127619Y-24546666D01*
X51080000Y-24499047D01*
X51032380Y-24403809D01*
X51127619Y-23689523D02*
X51080000Y-23641904D01*
X51032380Y-23546666D01*
X51032380Y-23308571D01*
X51080000Y-23213333D01*
X51127619Y-23165714D01*
X51222857Y-23118095D01*
X51318095Y-23118095D01*
X51460952Y-23165714D01*
X52032380Y-23737142D01*
X52032380Y-23118095D01*
%TO.C,D303*%
X38349523Y-37412380D02*
X38349523Y-36412380D01*
X38587619Y-36412380D01*
X38730476Y-36460000D01*
X38825714Y-36555238D01*
X38873333Y-36650476D01*
X38920952Y-36840952D01*
X38920952Y-36983809D01*
X38873333Y-37174285D01*
X38825714Y-37269523D01*
X38730476Y-37364761D01*
X38587619Y-37412380D01*
X38349523Y-37412380D01*
X39254285Y-36412380D02*
X39873333Y-36412380D01*
X39540000Y-36793333D01*
X39682857Y-36793333D01*
X39778095Y-36840952D01*
X39825714Y-36888571D01*
X39873333Y-36983809D01*
X39873333Y-37221904D01*
X39825714Y-37317142D01*
X39778095Y-37364761D01*
X39682857Y-37412380D01*
X39397142Y-37412380D01*
X39301904Y-37364761D01*
X39254285Y-37317142D01*
X40492380Y-36412380D02*
X40587619Y-36412380D01*
X40682857Y-36460000D01*
X40730476Y-36507619D01*
X40778095Y-36602857D01*
X40825714Y-36793333D01*
X40825714Y-37031428D01*
X40778095Y-37221904D01*
X40730476Y-37317142D01*
X40682857Y-37364761D01*
X40587619Y-37412380D01*
X40492380Y-37412380D01*
X40397142Y-37364761D01*
X40349523Y-37317142D01*
X40301904Y-37221904D01*
X40254285Y-37031428D01*
X40254285Y-36793333D01*
X40301904Y-36602857D01*
X40349523Y-36507619D01*
X40397142Y-36460000D01*
X40492380Y-36412380D01*
X41159047Y-36412380D02*
X41778095Y-36412380D01*
X41444761Y-36793333D01*
X41587619Y-36793333D01*
X41682857Y-36840952D01*
X41730476Y-36888571D01*
X41778095Y-36983809D01*
X41778095Y-37221904D01*
X41730476Y-37317142D01*
X41682857Y-37364761D01*
X41587619Y-37412380D01*
X41301904Y-37412380D01*
X41206666Y-37364761D01*
X41159047Y-37317142D01*
%TO.C,R204*%
X48192380Y-47231547D02*
X47716190Y-47564880D01*
X48192380Y-47802976D02*
X47192380Y-47802976D01*
X47192380Y-47422023D01*
X47240000Y-47326785D01*
X47287619Y-47279166D01*
X47382857Y-47231547D01*
X47525714Y-47231547D01*
X47620952Y-47279166D01*
X47668571Y-47326785D01*
X47716190Y-47422023D01*
X47716190Y-47802976D01*
X47287619Y-46850595D02*
X47240000Y-46802976D01*
X47192380Y-46707738D01*
X47192380Y-46469642D01*
X47240000Y-46374404D01*
X47287619Y-46326785D01*
X47382857Y-46279166D01*
X47478095Y-46279166D01*
X47620952Y-46326785D01*
X48192380Y-46898214D01*
X48192380Y-46279166D01*
X47192380Y-45660119D02*
X47192380Y-45564880D01*
X47240000Y-45469642D01*
X47287619Y-45422023D01*
X47382857Y-45374404D01*
X47573333Y-45326785D01*
X47811428Y-45326785D01*
X48001904Y-45374404D01*
X48097142Y-45422023D01*
X48144761Y-45469642D01*
X48192380Y-45564880D01*
X48192380Y-45660119D01*
X48144761Y-45755357D01*
X48097142Y-45802976D01*
X48001904Y-45850595D01*
X47811428Y-45898214D01*
X47573333Y-45898214D01*
X47382857Y-45850595D01*
X47287619Y-45802976D01*
X47240000Y-45755357D01*
X47192380Y-45660119D01*
X47525714Y-44469642D02*
X48192380Y-44469642D01*
X47144761Y-44707738D02*
X47859047Y-44945833D01*
X47859047Y-44326785D01*
%TO.C,R201*%
X42762380Y-47181547D02*
X42286190Y-47514880D01*
X42762380Y-47752976D02*
X41762380Y-47752976D01*
X41762380Y-47372023D01*
X41810000Y-47276785D01*
X41857619Y-47229166D01*
X41952857Y-47181547D01*
X42095714Y-47181547D01*
X42190952Y-47229166D01*
X42238571Y-47276785D01*
X42286190Y-47372023D01*
X42286190Y-47752976D01*
X41857619Y-46800595D02*
X41810000Y-46752976D01*
X41762380Y-46657738D01*
X41762380Y-46419642D01*
X41810000Y-46324404D01*
X41857619Y-46276785D01*
X41952857Y-46229166D01*
X42048095Y-46229166D01*
X42190952Y-46276785D01*
X42762380Y-46848214D01*
X42762380Y-46229166D01*
X41762380Y-45610119D02*
X41762380Y-45514880D01*
X41810000Y-45419642D01*
X41857619Y-45372023D01*
X41952857Y-45324404D01*
X42143333Y-45276785D01*
X42381428Y-45276785D01*
X42571904Y-45324404D01*
X42667142Y-45372023D01*
X42714761Y-45419642D01*
X42762380Y-45514880D01*
X42762380Y-45610119D01*
X42714761Y-45705357D01*
X42667142Y-45752976D01*
X42571904Y-45800595D01*
X42381428Y-45848214D01*
X42143333Y-45848214D01*
X41952857Y-45800595D01*
X41857619Y-45752976D01*
X41810000Y-45705357D01*
X41762380Y-45610119D01*
X42762380Y-44324404D02*
X42762380Y-44895833D01*
X42762380Y-44610119D02*
X41762380Y-44610119D01*
X41905238Y-44705357D01*
X42000476Y-44800595D01*
X42048095Y-44895833D01*
%TO.C,C503*%
X22480952Y-26842142D02*
X22433333Y-26889761D01*
X22290476Y-26937380D01*
X22195238Y-26937380D01*
X22052380Y-26889761D01*
X21957142Y-26794523D01*
X21909523Y-26699285D01*
X21861904Y-26508809D01*
X21861904Y-26365952D01*
X21909523Y-26175476D01*
X21957142Y-26080238D01*
X22052380Y-25985000D01*
X22195238Y-25937380D01*
X22290476Y-25937380D01*
X22433333Y-25985000D01*
X22480952Y-26032619D01*
X23385714Y-25937380D02*
X22909523Y-25937380D01*
X22861904Y-26413571D01*
X22909523Y-26365952D01*
X23004761Y-26318333D01*
X23242857Y-26318333D01*
X23338095Y-26365952D01*
X23385714Y-26413571D01*
X23433333Y-26508809D01*
X23433333Y-26746904D01*
X23385714Y-26842142D01*
X23338095Y-26889761D01*
X23242857Y-26937380D01*
X23004761Y-26937380D01*
X22909523Y-26889761D01*
X22861904Y-26842142D01*
X24052380Y-25937380D02*
X24147619Y-25937380D01*
X24242857Y-25985000D01*
X24290476Y-26032619D01*
X24338095Y-26127857D01*
X24385714Y-26318333D01*
X24385714Y-26556428D01*
X24338095Y-26746904D01*
X24290476Y-26842142D01*
X24242857Y-26889761D01*
X24147619Y-26937380D01*
X24052380Y-26937380D01*
X23957142Y-26889761D01*
X23909523Y-26842142D01*
X23861904Y-26746904D01*
X23814285Y-26556428D01*
X23814285Y-26318333D01*
X23861904Y-26127857D01*
X23909523Y-26032619D01*
X23957142Y-25985000D01*
X24052380Y-25937380D01*
X24719047Y-25937380D02*
X25338095Y-25937380D01*
X25004761Y-26318333D01*
X25147619Y-26318333D01*
X25242857Y-26365952D01*
X25290476Y-26413571D01*
X25338095Y-26508809D01*
X25338095Y-26746904D01*
X25290476Y-26842142D01*
X25242857Y-26889761D01*
X25147619Y-26937380D01*
X24861904Y-26937380D01*
X24766666Y-26889761D01*
X24719047Y-26842142D01*
D13*
%TO.C,U501*%
X34070000Y-24225000D02*
X36020000Y-24225000D01*
X34070000Y-29345000D02*
X36020000Y-29345000D01*
X34070000Y-24225000D02*
X30620000Y-24225000D01*
X34070000Y-29345000D02*
X32120000Y-29345000D01*
%TO.C,R501*%
X89704724Y-22747500D02*
X89195276Y-22747500D01*
X89704724Y-23792500D02*
X89195276Y-23792500D01*
%TO.C,J102*%
X119670000Y-30050000D02*
X122330000Y-30050000D01*
X119670000Y-28780000D02*
X119670000Y-27450000D01*
X119670000Y-27450000D02*
X121000000Y-27450000D01*
X119670000Y-37730000D02*
X122330000Y-37730000D01*
X122330000Y-30050000D02*
X122330000Y-37730000D01*
X119670000Y-30050000D02*
X119670000Y-37730000D01*
%TO.C,JP506*%
X40010000Y-22890000D02*
X42010000Y-22890000D01*
X40010000Y-25690000D02*
X40010000Y-22890000D01*
X42010000Y-22890000D02*
X42010000Y-25690000D01*
X42010000Y-25690000D02*
X40010000Y-25690000D01*
%TO.C,J204*%
X104000000Y-64660000D02*
X108300000Y-64660000D01*
X104000000Y-61710000D02*
X104000000Y-64660000D01*
X103250000Y-61710000D02*
X104000000Y-61710000D01*
X105050000Y-59460000D02*
X103250000Y-59460000D01*
X102950000Y-59160000D02*
X102950000Y-60410000D01*
X103240000Y-65420000D02*
X113360000Y-65420000D01*
X111550000Y-60210000D02*
X113350000Y-60210000D01*
X110050000Y-59460000D02*
X106550000Y-59460000D01*
X103240000Y-59450000D02*
X103240000Y-65420000D01*
X113350000Y-61710000D02*
X112600000Y-61710000D01*
X113350000Y-59460000D02*
X111550000Y-59460000D01*
X112600000Y-61710000D02*
X112600000Y-64660000D01*
X110050000Y-60210000D02*
X110050000Y-59460000D01*
X106550000Y-59460000D02*
X106550000Y-60210000D01*
X113360000Y-59450000D02*
X103240000Y-59450000D01*
X104200000Y-59160000D02*
X102950000Y-59160000D01*
X111550000Y-59460000D02*
X111550000Y-60210000D01*
X103250000Y-59460000D02*
X103250000Y-60210000D01*
X106550000Y-60210000D02*
X110050000Y-60210000D01*
X112600000Y-64660000D02*
X108300000Y-64660000D01*
X113360000Y-65420000D02*
X113360000Y-59450000D01*
X103250000Y-60210000D02*
X105050000Y-60210000D01*
X105050000Y-60210000D02*
X105050000Y-59460000D01*
X113350000Y-60210000D02*
X113350000Y-59460000D01*
%TO.C,J202*%
X40230000Y-53080000D02*
X42030000Y-53080000D01*
X59580000Y-57530000D02*
X50280000Y-57530000D01*
X40980000Y-54580000D02*
X40980000Y-57530000D01*
X42030000Y-52330000D02*
X40230000Y-52330000D01*
X60330000Y-52330000D02*
X58530000Y-52330000D01*
X40980000Y-57530000D02*
X50280000Y-57530000D01*
X60330000Y-53080000D02*
X60330000Y-52330000D01*
X60330000Y-54580000D02*
X59580000Y-54580000D01*
X40230000Y-52330000D02*
X40230000Y-53080000D01*
X40230000Y-54580000D02*
X40980000Y-54580000D01*
X43530000Y-52330000D02*
X43530000Y-53080000D01*
X39930000Y-52030000D02*
X39930000Y-53280000D01*
X60340000Y-58290000D02*
X60340000Y-52320000D01*
X59580000Y-54580000D02*
X59580000Y-57530000D01*
X43530000Y-53080000D02*
X57030000Y-53080000D01*
X40220000Y-52320000D02*
X40220000Y-58290000D01*
X58530000Y-52330000D02*
X58530000Y-53080000D01*
X57030000Y-53080000D02*
X57030000Y-52330000D01*
X57030000Y-52330000D02*
X43530000Y-52330000D01*
X58530000Y-53080000D02*
X60330000Y-53080000D01*
X42030000Y-53080000D02*
X42030000Y-52330000D01*
X41180000Y-52030000D02*
X39930000Y-52030000D01*
X40220000Y-58290000D02*
X60340000Y-58290000D01*
X60340000Y-52320000D02*
X40220000Y-52320000D01*
%TO.C,JP505*%
X26340000Y-23275000D02*
X29140000Y-23275000D01*
X29140000Y-25275000D02*
X26340000Y-25275000D01*
X26340000Y-25275000D02*
X26340000Y-23275000D01*
X29140000Y-23275000D02*
X29140000Y-25275000D01*
%TO.C,J203*%
X35590000Y-61625000D02*
X35590000Y-64575000D01*
X36340000Y-60125000D02*
X36340000Y-59375000D01*
X33040000Y-59375000D02*
X29540000Y-59375000D01*
X26990000Y-61625000D02*
X26990000Y-64575000D01*
X26990000Y-64575000D02*
X31290000Y-64575000D01*
X26230000Y-59365000D02*
X26230000Y-65335000D01*
X28040000Y-60125000D02*
X28040000Y-59375000D01*
X33040000Y-60125000D02*
X33040000Y-59375000D01*
X35590000Y-64575000D02*
X31290000Y-64575000D01*
X27190000Y-59075000D02*
X25940000Y-59075000D01*
X25940000Y-59075000D02*
X25940000Y-60325000D01*
X29540000Y-59375000D02*
X29540000Y-60125000D01*
X28040000Y-59375000D02*
X26240000Y-59375000D01*
X29540000Y-60125000D02*
X33040000Y-60125000D01*
X34540000Y-59375000D02*
X34540000Y-60125000D01*
X26240000Y-59375000D02*
X26240000Y-60125000D01*
X36350000Y-65335000D02*
X36350000Y-59365000D01*
X26230000Y-65335000D02*
X36350000Y-65335000D01*
X36350000Y-59365000D02*
X26230000Y-59365000D01*
X26240000Y-61625000D02*
X26990000Y-61625000D01*
X26240000Y-60125000D02*
X28040000Y-60125000D01*
X36340000Y-61625000D02*
X35590000Y-61625000D01*
X36340000Y-59375000D02*
X34540000Y-59375000D01*
X34540000Y-60125000D02*
X36340000Y-60125000D01*
%TO.C,R308*%
X84904724Y-23812500D02*
X84395276Y-23812500D01*
X84904724Y-22767500D02*
X84395276Y-22767500D01*
%TO.C,R305*%
X35955276Y-39747500D02*
X36464724Y-39747500D01*
X35955276Y-40792500D02*
X36464724Y-40792500D01*
%TO.C,J201*%
X42030000Y-60060000D02*
X42030000Y-59310000D01*
X57030000Y-60060000D02*
X57030000Y-59310000D01*
X59580000Y-61560000D02*
X59580000Y-64510000D01*
X58530000Y-59310000D02*
X58530000Y-60060000D01*
X39930000Y-59010000D02*
X39930000Y-60260000D01*
X60340000Y-65270000D02*
X60340000Y-59300000D01*
X43530000Y-59310000D02*
X43530000Y-60060000D01*
X42030000Y-59310000D02*
X40230000Y-59310000D01*
X60330000Y-61560000D02*
X59580000Y-61560000D01*
X59580000Y-64510000D02*
X50280000Y-64510000D01*
X58530000Y-60060000D02*
X60330000Y-60060000D01*
X41180000Y-59010000D02*
X39930000Y-59010000D01*
X40220000Y-59300000D02*
X40220000Y-65270000D01*
X60340000Y-59300000D02*
X40220000Y-59300000D01*
X60330000Y-59310000D02*
X58530000Y-59310000D01*
X60330000Y-60060000D02*
X60330000Y-59310000D01*
X40230000Y-59310000D02*
X40230000Y-60060000D01*
X57030000Y-59310000D02*
X43530000Y-59310000D01*
X43530000Y-60060000D02*
X57030000Y-60060000D01*
X40220000Y-65270000D02*
X60340000Y-65270000D01*
X40230000Y-60060000D02*
X42030000Y-60060000D01*
X40980000Y-61560000D02*
X40980000Y-64510000D01*
X40980000Y-64510000D02*
X50280000Y-64510000D01*
X40230000Y-61560000D02*
X40980000Y-61560000D01*
%TO.C,R202*%
X44612500Y-49627776D02*
X44612500Y-50137224D01*
X43567500Y-49627776D02*
X43567500Y-50137224D01*
%TO.C,U502*%
X105330000Y-28900000D02*
X103380000Y-28900000D01*
X105330000Y-23780000D02*
X101880000Y-23780000D01*
X105330000Y-23780000D02*
X107280000Y-23780000D01*
X105330000Y-28900000D02*
X107280000Y-28900000D01*
%TO.C,R304*%
X32035276Y-39727500D02*
X32544724Y-39727500D01*
X32035276Y-40772500D02*
X32544724Y-40772500D01*
%TO.C,JP502*%
X42865000Y-28810000D02*
X42865000Y-30810000D01*
X42865000Y-30810000D02*
X40065000Y-30810000D01*
X40065000Y-30810000D02*
X40065000Y-28810000D01*
X40065000Y-28810000D02*
X42865000Y-28810000D01*
%TO.C,JP202*%
X63350000Y-37670000D02*
X60550000Y-37670000D01*
X60550000Y-35670000D02*
X63350000Y-35670000D01*
X60550000Y-37670000D02*
X60550000Y-35670000D01*
X63350000Y-35670000D02*
X63350000Y-37670000D01*
%TO.C,R205*%
X48997500Y-49637776D02*
X48997500Y-50147224D01*
X50042500Y-49637776D02*
X50042500Y-50147224D01*
%TO.C,J207*%
X84470000Y-59450000D02*
X84470000Y-65420000D01*
X96280000Y-59460000D02*
X87780000Y-59460000D01*
X99580000Y-59460000D02*
X97780000Y-59460000D01*
X84480000Y-59460000D02*
X84480000Y-60210000D01*
X99580000Y-61710000D02*
X98830000Y-61710000D01*
X87780000Y-59460000D02*
X87780000Y-60210000D01*
X86280000Y-60210000D02*
X86280000Y-59460000D01*
X85430000Y-59160000D02*
X84180000Y-59160000D01*
X84480000Y-61710000D02*
X85230000Y-61710000D01*
X98830000Y-61710000D02*
X98830000Y-64660000D01*
X86280000Y-59460000D02*
X84480000Y-59460000D01*
X99590000Y-59450000D02*
X84470000Y-59450000D01*
X84180000Y-59160000D02*
X84180000Y-60410000D01*
X85230000Y-64660000D02*
X92030000Y-64660000D01*
X99580000Y-60210000D02*
X99580000Y-59460000D01*
X98830000Y-64660000D02*
X92030000Y-64660000D01*
X85230000Y-61710000D02*
X85230000Y-64660000D01*
X84480000Y-60210000D02*
X86280000Y-60210000D01*
X84470000Y-65420000D02*
X99590000Y-65420000D01*
X99590000Y-65420000D02*
X99590000Y-59450000D01*
X87780000Y-60210000D02*
X96280000Y-60210000D01*
X97780000Y-59460000D02*
X97780000Y-60210000D01*
X97780000Y-60210000D02*
X99580000Y-60210000D01*
X96280000Y-60210000D02*
X96280000Y-59460000D01*
%TO.C,J503*%
X84300000Y-15040000D02*
X84300000Y-15790000D01*
X91110000Y-21000000D02*
X91110000Y-15030000D01*
X84300000Y-15790000D02*
X87800000Y-15790000D01*
X81000000Y-17290000D02*
X81750000Y-17290000D01*
X80990000Y-15030000D02*
X80990000Y-21000000D01*
X82800000Y-15790000D02*
X82800000Y-15040000D01*
X89300000Y-15790000D02*
X91100000Y-15790000D01*
X91100000Y-15040000D02*
X89300000Y-15040000D01*
X82800000Y-15040000D02*
X81000000Y-15040000D01*
X81000000Y-15790000D02*
X82800000Y-15790000D01*
X80700000Y-14740000D02*
X80700000Y-15990000D01*
X91100000Y-15790000D02*
X91100000Y-15040000D01*
X90350000Y-20240000D02*
X86050000Y-20240000D01*
X81000000Y-15040000D02*
X81000000Y-15790000D01*
X81950000Y-14740000D02*
X80700000Y-14740000D01*
X80990000Y-21000000D02*
X91110000Y-21000000D01*
X87800000Y-15040000D02*
X84300000Y-15040000D01*
X91100000Y-17290000D02*
X90350000Y-17290000D01*
X91110000Y-15030000D02*
X80990000Y-15030000D01*
X81750000Y-17290000D02*
X81750000Y-20240000D01*
X89300000Y-15040000D02*
X89300000Y-15790000D01*
X90350000Y-17290000D02*
X90350000Y-20240000D01*
X81750000Y-20240000D02*
X86050000Y-20240000D01*
X87800000Y-15790000D02*
X87800000Y-15040000D01*
%TO.C,JP501*%
X29310000Y-29490000D02*
X29310000Y-31490000D01*
X26510000Y-31490000D02*
X26510000Y-29490000D01*
X26510000Y-29490000D02*
X29310000Y-29490000D01*
X29310000Y-31490000D02*
X26510000Y-31490000D01*
%TO.C,R309*%
X81092500Y-23927776D02*
X81092500Y-24437224D01*
X80047500Y-23927776D02*
X80047500Y-24437224D01*
%TO.C,JP507*%
X97510000Y-24660000D02*
X97510000Y-22660000D01*
X100310000Y-24660000D02*
X97510000Y-24660000D01*
X100310000Y-22660000D02*
X100310000Y-24660000D01*
X97510000Y-22660000D02*
X100310000Y-22660000D01*
%TO.C,D304*%
X42207500Y-37895000D02*
X42207500Y-39365000D01*
X44667500Y-37895000D02*
X42207500Y-37895000D01*
X42207500Y-39365000D02*
X44667500Y-39365000D01*
D14*
%TO.C,SW301*%
X103633600Y-49284200D02*
X109526400Y-49284200D01*
X109526400Y-43035800D02*
X103633600Y-43035800D01*
X109704200Y-47430000D02*
X109704200Y-44890000D01*
X103455800Y-44890000D02*
X103455800Y-47430000D01*
D15*
X102643000Y-42096000D02*
G75*
G03*
X102389000Y-42096000I-127000J0D01*
G01*
X102389000Y-42096000D02*
G75*
G03*
X102643000Y-42096000I127000J0D01*
G01*
D13*
%TO.C,J401*%
X47890000Y-20320000D02*
X50940000Y-20320000D01*
X47130000Y-15110000D02*
X47130000Y-21080000D01*
X48940000Y-15870000D02*
X48940000Y-15120000D01*
X47140000Y-17370000D02*
X47890000Y-17370000D01*
X54750000Y-15110000D02*
X47130000Y-15110000D01*
X50440000Y-15120000D02*
X50440000Y-15870000D01*
X53990000Y-17370000D02*
X53990000Y-20320000D01*
X48090000Y-14820000D02*
X46840000Y-14820000D01*
X46840000Y-14820000D02*
X46840000Y-16070000D01*
X54740000Y-15120000D02*
X52940000Y-15120000D01*
X54740000Y-17370000D02*
X53990000Y-17370000D01*
X52940000Y-15870000D02*
X54740000Y-15870000D01*
X48940000Y-15120000D02*
X47140000Y-15120000D01*
X47130000Y-21080000D02*
X54750000Y-21080000D01*
X51440000Y-15120000D02*
X50440000Y-15120000D01*
X51440000Y-15870000D02*
X51440000Y-15120000D01*
X47890000Y-17370000D02*
X47890000Y-20320000D01*
X53990000Y-20320000D02*
X50940000Y-20320000D01*
X47140000Y-15120000D02*
X47140000Y-15870000D01*
X47140000Y-15870000D02*
X48940000Y-15870000D01*
X50440000Y-15870000D02*
X51440000Y-15870000D01*
X54740000Y-15870000D02*
X54740000Y-15120000D01*
X52940000Y-15120000D02*
X52940000Y-15870000D01*
X54750000Y-21080000D02*
X54750000Y-15110000D01*
%TO.C,C307*%
X62810000Y-46516267D02*
X62810000Y-46223733D01*
X63830000Y-46516267D02*
X63830000Y-46223733D01*
%TO.C,J105*%
X119670000Y-41900000D02*
X119670000Y-40570000D01*
X119670000Y-50850000D02*
X122330000Y-50850000D01*
X122330000Y-43170000D02*
X122330000Y-50850000D01*
X119670000Y-43170000D02*
X119670000Y-50850000D01*
X119670000Y-40570000D02*
X121000000Y-40570000D01*
X119670000Y-43170000D02*
X122330000Y-43170000D01*
%TO.C,C402*%
X59690000Y-23850000D02*
G75*
G03*
X59690000Y-23850000I-2620000J0D01*
G01*
%TO.C,JP504*%
X105685000Y-29820000D02*
X108485000Y-29820000D01*
X108485000Y-29820000D02*
X108485000Y-31820000D01*
X108485000Y-31820000D02*
X105685000Y-31820000D01*
X105685000Y-31820000D02*
X105685000Y-29820000D01*
%TO.C,C401*%
X74660000Y-25590000D02*
G75*
G03*
X74660000Y-25590000I-2620000J0D01*
G01*
%TO.C,C303*%
X67433767Y-36990000D02*
X67141233Y-36990000D01*
X67433767Y-35970000D02*
X67141233Y-35970000D01*
%TO.C,Y301*%
X64860000Y-42620000D02*
X64860000Y-46520000D01*
X68060000Y-42620000D02*
X64860000Y-42620000D01*
%TO.C,C305*%
X100890000Y-47686267D02*
X100890000Y-47393733D01*
X99870000Y-47686267D02*
X99870000Y-47393733D01*
%TO.C,JP201*%
X60590000Y-35020000D02*
X60590000Y-33020000D01*
X63390000Y-33020000D02*
X63390000Y-35020000D01*
X63390000Y-35020000D02*
X60590000Y-35020000D01*
X60590000Y-33020000D02*
X63390000Y-33020000D01*
%TO.C,JP503*%
X97460000Y-28220000D02*
X100260000Y-28220000D01*
X100260000Y-28220000D02*
X100260000Y-30220000D01*
X100260000Y-30220000D02*
X97460000Y-30220000D01*
X97460000Y-30220000D02*
X97460000Y-28220000D01*
%TO.C,C505*%
X87100000Y-27500000D02*
G75*
G03*
X87100000Y-27500000I-2620000J0D01*
G01*
%TO.C,C302*%
X67426267Y-35350000D02*
X67133733Y-35350000D01*
X67426267Y-34330000D02*
X67133733Y-34330000D01*
%TO.C,J301*%
X94355000Y-42615000D02*
X94355000Y-42550000D01*
X90825000Y-33670000D02*
X90825000Y-33605000D01*
X90825000Y-42615000D02*
X90825000Y-42550000D01*
X94355000Y-42615000D02*
X90825000Y-42615000D01*
X94355000Y-33670000D02*
X94355000Y-33605000D01*
X95680000Y-42550000D02*
X94355000Y-42550000D01*
X94355000Y-33605000D02*
X90825000Y-33605000D01*
%TO.C,J205*%
X65070000Y-61720000D02*
X65820000Y-61720000D01*
X80180000Y-65430000D02*
X80180000Y-59460000D01*
X78370000Y-59470000D02*
X78370000Y-60220000D01*
X80170000Y-60220000D02*
X80170000Y-59470000D01*
X79420000Y-61720000D02*
X79420000Y-64670000D01*
X78370000Y-60220000D02*
X80170000Y-60220000D01*
X76870000Y-60220000D02*
X76870000Y-59470000D01*
X66020000Y-59170000D02*
X64770000Y-59170000D01*
X65820000Y-61720000D02*
X65820000Y-64670000D01*
X79420000Y-64670000D02*
X72620000Y-64670000D01*
X80170000Y-59470000D02*
X78370000Y-59470000D01*
X66870000Y-59470000D02*
X65070000Y-59470000D01*
X80170000Y-61720000D02*
X79420000Y-61720000D01*
X65820000Y-64670000D02*
X72620000Y-64670000D01*
X65060000Y-59460000D02*
X65060000Y-65430000D01*
X65060000Y-65430000D02*
X80180000Y-65430000D01*
X76870000Y-59470000D02*
X68370000Y-59470000D01*
X80180000Y-59460000D02*
X65060000Y-59460000D01*
X65070000Y-59470000D02*
X65070000Y-60220000D01*
X68370000Y-60220000D02*
X76870000Y-60220000D01*
X64770000Y-59170000D02*
X64770000Y-60420000D01*
X68370000Y-59470000D02*
X68370000Y-60220000D01*
X65070000Y-60220000D02*
X66870000Y-60220000D01*
X66870000Y-60220000D02*
X66870000Y-59470000D01*
%TO.C,C404*%
X49216267Y-27420000D02*
X48923733Y-27420000D01*
X49216267Y-28440000D02*
X48923733Y-28440000D01*
%TO.C,C502*%
X111673733Y-26460000D02*
X111966267Y-26460000D01*
X111673733Y-27480000D02*
X111966267Y-27480000D01*
%TO.C,C504*%
X99026267Y-27580000D02*
X98733733Y-27580000D01*
X99026267Y-26560000D02*
X98733733Y-26560000D01*
%TO.C,C304*%
X67383767Y-40620000D02*
X67091233Y-40620000D01*
X67383767Y-39600000D02*
X67091233Y-39600000D01*
D16*
%TO.C,U401*%
X68636600Y-25912000D02*
X68636600Y-29468000D01*
X62083400Y-25912000D02*
X68636600Y-25912000D01*
X68636600Y-29468000D02*
X62083400Y-29468000D01*
X62083400Y-29468000D02*
X62083400Y-25912000D01*
D17*
%TO.C,U301*%
X83000000Y-36800000D02*
X83000000Y-37590000D01*
X73000000Y-36800000D02*
X73000000Y-37590000D01*
X73000000Y-46800000D02*
X73790000Y-46800000D01*
X83000000Y-46800000D02*
X83000000Y-46010000D01*
X83000000Y-46800000D02*
X82210000Y-46800000D01*
X73000000Y-36800000D02*
X73790000Y-36800000D01*
X83000000Y-36800000D02*
X82210000Y-36800000D01*
X73000000Y-46800000D02*
X73000000Y-46010000D01*
D10*
X70760000Y-38050000D02*
G75*
G03*
X70760000Y-38050000I-100000J0D01*
G01*
D13*
%TO.C,J103*%
X16750000Y-29950000D02*
X19410000Y-29950000D01*
X19410000Y-29950000D02*
X19410000Y-37630000D01*
X16750000Y-37630000D02*
X19410000Y-37630000D01*
X16750000Y-28680000D02*
X16750000Y-27350000D01*
X16750000Y-27350000D02*
X18080000Y-27350000D01*
X16750000Y-29950000D02*
X16750000Y-37630000D01*
%TO.C, *%
G36*
X30589771Y-50984230D02*
G01*
X30626495Y-51099281D01*
X30667942Y-51221980D01*
X30705387Y-51326527D01*
X30706754Y-51330167D01*
X30734445Y-51406607D01*
X30752597Y-51462398D01*
X30757683Y-51486607D01*
X30757290Y-51486872D01*
X30741708Y-51468512D01*
X30711333Y-51421683D01*
X30690687Y-51387195D01*
X30599704Y-51186556D01*
X30549001Y-50969928D01*
X30544431Y-50929524D01*
X30531772Y-50794998D01*
X30589771Y-50984230D01*
G37*
G36*
X36771902Y-51052985D02*
G01*
X36760175Y-51064712D01*
X36748449Y-51052985D01*
X36760175Y-51041258D01*
X36771902Y-51052985D01*
G37*
G36*
X36889169Y-50980974D02*
G01*
X36871190Y-50999811D01*
X36842262Y-51017805D01*
X36806000Y-51032902D01*
X36795355Y-51031182D01*
X36813334Y-51012346D01*
X36842262Y-50994352D01*
X36878524Y-50979254D01*
X36889169Y-50980974D01*
G37*
G36*
X36115208Y-51146798D02*
G01*
X36103481Y-51158525D01*
X36091754Y-51146798D01*
X36103481Y-51135072D01*
X36115208Y-51146798D01*
G37*
G36*
X36709478Y-54605420D02*
G01*
X36749023Y-54718879D01*
X36782197Y-54816842D01*
X36806148Y-54890672D01*
X36818024Y-54931730D01*
X36818809Y-54936519D01*
X36797052Y-54945707D01*
X36738547Y-54952929D01*
X36653442Y-54957213D01*
X36594421Y-54957971D01*
X36490919Y-54957568D01*
X36426226Y-54954987D01*
X36392246Y-54948174D01*
X36380881Y-54935070D01*
X36384035Y-54913621D01*
X36386617Y-54905201D01*
X36400641Y-54863291D01*
X36426703Y-54787762D01*
X36461127Y-54689194D01*
X36500236Y-54578165D01*
X36501674Y-54574102D01*
X36600146Y-54295773D01*
X36709478Y-54605420D01*
G37*
G36*
X36162114Y-51123345D02*
G01*
X36150388Y-51135072D01*
X36138661Y-51123345D01*
X36150388Y-51111618D01*
X36162114Y-51123345D01*
G37*
G36*
X32855189Y-51568959D02*
G01*
X32843463Y-51580686D01*
X32831736Y-51568959D01*
X32843463Y-51557232D01*
X32855189Y-51568959D01*
G37*
G36*
X36060770Y-51168921D02*
G01*
X36044848Y-51181978D01*
X36002092Y-51201824D01*
X35986214Y-51204714D01*
X35982019Y-51195036D01*
X35997941Y-51181978D01*
X36040697Y-51162133D01*
X36056574Y-51159243D01*
X36060770Y-51168921D01*
G37*
G36*
X33160083Y-47722606D02*
G01*
X33148356Y-47734333D01*
X33136630Y-47722606D01*
X33148356Y-47710880D01*
X33160083Y-47722606D01*
G37*
G36*
X30828660Y-51685389D02*
G01*
X30863583Y-51713637D01*
X30909286Y-51756910D01*
X30955543Y-51805222D01*
X30992125Y-51848590D01*
X31005123Y-51867990D01*
X31020248Y-51901863D01*
X31009948Y-51902377D01*
X30972766Y-51868536D01*
X30911547Y-51804017D01*
X30860382Y-51745946D01*
X30825297Y-51701223D01*
X30814746Y-51682149D01*
X30828660Y-51685389D01*
G37*
G36*
X37612268Y-50357987D02*
G01*
X37616223Y-50404380D01*
X37614101Y-50428199D01*
X37604080Y-50449948D01*
X37580681Y-50473139D01*
X37538426Y-50501284D01*
X37471833Y-50537896D01*
X37375425Y-50586485D01*
X37243721Y-50650565D01*
X37196869Y-50673161D01*
X37060490Y-50738391D01*
X36931686Y-50799112D01*
X36819023Y-50851353D01*
X36731065Y-50891145D01*
X36676376Y-50914519D01*
X36675032Y-50915044D01*
X36608006Y-50943061D01*
X36558242Y-50967372D01*
X36546705Y-50974599D01*
X36515076Y-50990604D01*
X36454435Y-51015966D01*
X36378290Y-51045610D01*
X36300151Y-51074464D01*
X36233523Y-51097454D01*
X36191917Y-51109508D01*
X36185669Y-51110194D01*
X36200207Y-51099861D01*
X36248717Y-51072986D01*
X36323169Y-51033898D01*
X36396648Y-50996425D01*
X36593003Y-50896652D01*
X36765985Y-50807211D01*
X36912052Y-50730010D01*
X37027662Y-50666959D01*
X37109272Y-50619965D01*
X37153340Y-50590937D01*
X37158883Y-50585815D01*
X37186850Y-50564992D01*
X37244443Y-50529202D01*
X37320749Y-50484553D01*
X37404855Y-50437153D01*
X37485849Y-50393110D01*
X37552818Y-50358533D01*
X37594849Y-50339530D01*
X37602243Y-50337657D01*
X37612268Y-50357987D01*
G37*
G36*
X36936076Y-50959171D02*
G01*
X36924349Y-50970898D01*
X36912622Y-50959171D01*
X36924349Y-50947445D01*
X36936076Y-50959171D01*
G37*
G36*
X34496925Y-46761018D02*
G01*
X34485198Y-46772745D01*
X34473472Y-46761018D01*
X34485198Y-46749291D01*
X34496925Y-46761018D01*
G37*
G36*
X33002095Y-52385044D02*
G01*
X33011533Y-52390537D01*
X32980804Y-52394078D01*
X32937276Y-52394846D01*
X32884062Y-52393091D01*
X32868497Y-52388888D01*
X32884828Y-52384724D01*
X32954189Y-52380866D01*
X33002095Y-52385044D01*
G37*
G36*
X37616223Y-50269225D02*
G01*
X37129566Y-50504892D01*
X36985681Y-50573163D01*
X36851347Y-50634276D01*
X36733781Y-50685155D01*
X36640200Y-50722722D01*
X36577819Y-50743901D01*
X36560822Y-50747364D01*
X36514206Y-50754567D01*
X36455536Y-50770612D01*
X36379085Y-50797726D01*
X36279127Y-50838135D01*
X36149937Y-50894065D01*
X35985790Y-50967744D01*
X35936910Y-50989977D01*
X35821495Y-51039632D01*
X35675373Y-51097994D01*
X35507398Y-51161937D01*
X35326426Y-51228336D01*
X35141312Y-51294066D01*
X34960911Y-51356004D01*
X34794078Y-51411023D01*
X34649668Y-51456000D01*
X34536537Y-51487809D01*
X34503360Y-51495846D01*
X34369965Y-51521644D01*
X34209116Y-51545889D01*
X34029328Y-51567939D01*
X33839112Y-51587151D01*
X33646981Y-51602882D01*
X33461446Y-51614489D01*
X33291020Y-51621329D01*
X33144216Y-51622758D01*
X33029545Y-51618134D01*
X32974830Y-51611311D01*
X32942917Y-51603403D01*
X32945130Y-51597445D01*
X32984679Y-51593078D01*
X33064773Y-51589944D01*
X33185910Y-51587719D01*
X33348370Y-51582221D01*
X33495088Y-51570916D01*
X33613309Y-51554925D01*
X33652604Y-51546790D01*
X33805051Y-51510066D01*
X33518758Y-51521670D01*
X33402684Y-51524978D01*
X33299472Y-51523960D01*
X33196837Y-51517601D01*
X33082492Y-51504884D01*
X32944152Y-51484792D01*
X32809654Y-51463011D01*
X32631161Y-51432555D01*
X32488927Y-51405716D01*
X32372766Y-51379565D01*
X32272489Y-51351175D01*
X32177910Y-51317618D01*
X32078839Y-51275965D01*
X31965089Y-51223289D01*
X31949214Y-51215728D01*
X31810607Y-51141860D01*
X31700355Y-51062391D01*
X31606255Y-50965953D01*
X31516099Y-50841175D01*
X31473439Y-50772542D01*
X31412185Y-50656222D01*
X31370096Y-50537939D01*
X31344436Y-50405454D01*
X31332468Y-50246525D01*
X31330720Y-50134347D01*
X31335621Y-49945632D01*
X31351799Y-49789914D01*
X31381466Y-49654169D01*
X31426833Y-49525372D01*
X31438942Y-49497125D01*
X31488236Y-49397210D01*
X31556532Y-49274416D01*
X31634944Y-49143580D01*
X31714586Y-49019539D01*
X31785371Y-48918728D01*
X31826483Y-48863688D01*
X31853741Y-48826755D01*
X31859623Y-48818465D01*
X31884140Y-48809079D01*
X31945826Y-48792286D01*
X32035908Y-48770134D01*
X32145610Y-48744670D01*
X32266158Y-48717942D01*
X32388778Y-48691999D01*
X32479935Y-48673679D01*
X32596591Y-48647347D01*
X32709236Y-48615814D01*
X32801526Y-48583926D01*
X32839764Y-48566935D01*
X32914637Y-48533438D01*
X32981308Y-48512211D01*
X33008759Y-48508294D01*
X33062742Y-48495350D01*
X33129541Y-48463063D01*
X33149075Y-48450687D01*
X33220474Y-48409384D01*
X33311306Y-48366062D01*
X33367060Y-48343357D01*
X33444792Y-48311552D01*
X33507719Y-48280894D01*
X33535337Y-48263257D01*
X33581556Y-48229507D01*
X33629293Y-48203149D01*
X33664329Y-48191045D01*
X33673615Y-48196533D01*
X33672936Y-48224688D01*
X33686283Y-48239554D01*
X33719411Y-48240201D01*
X33778075Y-48225701D01*
X33868031Y-48195125D01*
X33995035Y-48147542D01*
X34008141Y-48142523D01*
X34230100Y-48054402D01*
X34433517Y-47967665D01*
X34611958Y-47885298D01*
X34758988Y-47810281D01*
X34868174Y-47745597D01*
X34876359Y-47740088D01*
X34933941Y-47703322D01*
X35021931Y-47650220D01*
X35129659Y-47587091D01*
X35246456Y-47520242D01*
X35282613Y-47499876D01*
X35434039Y-47414530D01*
X35550288Y-47347670D01*
X35637336Y-47295273D01*
X35701162Y-47253315D01*
X35747740Y-47217773D01*
X35783048Y-47184624D01*
X35813063Y-47149844D01*
X35824547Y-47135071D01*
X35866422Y-47062568D01*
X35866974Y-47010730D01*
X35826867Y-46981218D01*
X35760557Y-46974955D01*
X35704476Y-46984005D01*
X35618644Y-47005640D01*
X35517062Y-47035539D01*
X35413733Y-47069381D01*
X35322660Y-47102845D01*
X35265341Y-47127766D01*
X35211969Y-47142780D01*
X35154763Y-47147999D01*
X35088959Y-47163827D01*
X35061391Y-47191944D01*
X35028799Y-47222034D01*
X34965265Y-47259717D01*
X34884142Y-47297143D01*
X34878802Y-47299290D01*
X34789136Y-47335985D01*
X34707864Y-47370882D01*
X34653335Y-47396066D01*
X34595989Y-47419861D01*
X34553658Y-47429439D01*
X34523654Y-47440343D01*
X34520379Y-47448615D01*
X34499064Y-47464076D01*
X34440659Y-47488492D01*
X34353468Y-47519014D01*
X34245797Y-47552792D01*
X34125952Y-47586975D01*
X34086491Y-47597506D01*
X34001242Y-47622674D01*
X33918114Y-47651336D01*
X33910591Y-47654234D01*
X33735167Y-47708660D01*
X33578306Y-47728377D01*
X33493564Y-47722723D01*
X33398109Y-47711937D01*
X33299142Y-47707038D01*
X33277350Y-47707084D01*
X33171810Y-47708989D01*
X33228038Y-47666181D01*
X33265603Y-47640514D01*
X33335763Y-47595245D01*
X33431014Y-47535114D01*
X33543855Y-47464858D01*
X33659723Y-47393537D01*
X33793253Y-47309622D01*
X33926098Y-47222281D01*
X34047662Y-47138752D01*
X34147349Y-47066274D01*
X34201556Y-47023377D01*
X34284869Y-46955061D01*
X34363825Y-46893672D01*
X34425401Y-46849223D01*
X34441637Y-46838795D01*
X34491409Y-46800583D01*
X34522870Y-46761485D01*
X34532120Y-46731001D01*
X34515259Y-46718626D01*
X34488455Y-46724789D01*
X34444699Y-46745514D01*
X34374402Y-46782893D01*
X34291315Y-46829566D01*
X34274741Y-46839153D01*
X34197695Y-46882025D01*
X34137297Y-46912016D01*
X34103791Y-46924159D01*
X34100553Y-46923618D01*
X34108270Y-46901630D01*
X34155599Y-46863938D01*
X34238941Y-46813082D01*
X34317535Y-46770617D01*
X34385370Y-46733206D01*
X34430963Y-46703845D01*
X34444417Y-46688965D01*
X34418385Y-46692531D01*
X34358720Y-46713786D01*
X34273539Y-46749032D01*
X34170957Y-46794576D01*
X34059090Y-46846721D01*
X33946054Y-46901771D01*
X33839966Y-46956031D01*
X33750213Y-47005077D01*
X33655542Y-47057970D01*
X33569021Y-47104066D01*
X33503334Y-47136707D01*
X33480792Y-47146470D01*
X33420927Y-47175142D01*
X33347066Y-47218171D01*
X33316619Y-47237996D01*
X33240578Y-47285418D01*
X33146148Y-47338784D01*
X33077996Y-47374305D01*
X32969244Y-47432275D01*
X32838218Y-47508019D01*
X32698735Y-47592997D01*
X32564613Y-47678666D01*
X32449670Y-47756486D01*
X32393972Y-47797142D01*
X32319633Y-47847695D01*
X32251434Y-47874834D01*
X32165535Y-47887242D01*
X32142188Y-47888840D01*
X32070040Y-47892334D01*
X32041384Y-47890893D01*
X32053011Y-47883952D01*
X32076555Y-47877287D01*
X32150628Y-47852069D01*
X32180711Y-47830490D01*
X32167674Y-47818045D01*
X32112388Y-47820232D01*
X32068843Y-47828605D01*
X32016661Y-47834913D01*
X31926157Y-47840017D01*
X31805900Y-47843899D01*
X31664460Y-47846540D01*
X31510405Y-47847920D01*
X31352305Y-47848023D01*
X31198730Y-47846827D01*
X31058248Y-47844316D01*
X30939430Y-47840471D01*
X30850844Y-47835271D01*
X30814746Y-47831343D01*
X30747998Y-47817135D01*
X30718790Y-47797612D01*
X30716104Y-47774867D01*
X30709409Y-47742739D01*
X30673459Y-47715581D01*
X30602559Y-47690698D01*
X30491018Y-47665396D01*
X30480240Y-47663288D01*
X30374497Y-47634486D01*
X30258712Y-47589754D01*
X30145878Y-47535510D01*
X30048984Y-47478173D01*
X29981022Y-47424159D01*
X29969185Y-47410809D01*
X29936133Y-47334039D01*
X29927707Y-47225209D01*
X29941717Y-47090748D01*
X29975975Y-46937084D01*
X30028293Y-46770645D01*
X30096483Y-46597860D01*
X30178356Y-46425157D01*
X30271725Y-46258964D01*
X30374401Y-46105710D01*
X30443195Y-46018325D01*
X30503094Y-45946832D01*
X30576416Y-45858573D01*
X30644553Y-45775977D01*
X30769409Y-45637493D01*
X30929198Y-45481958D01*
X31117605Y-45314659D01*
X31328317Y-45140881D01*
X31555019Y-44965909D01*
X31791398Y-44795029D01*
X31928781Y-44700989D01*
X32066643Y-44613055D01*
X32224645Y-44519643D01*
X32394330Y-44425095D01*
X32567240Y-44333753D01*
X32734915Y-44249958D01*
X32888899Y-44178053D01*
X33020734Y-44122380D01*
X33121961Y-44087280D01*
X33126908Y-44085915D01*
X33235177Y-44048012D01*
X33298793Y-44003831D01*
X33319846Y-43951048D01*
X33302278Y-43890736D01*
X33270101Y-43854978D01*
X33219914Y-43853111D01*
X33211915Y-43854769D01*
X33150679Y-43870636D01*
X33065677Y-43895539D01*
X32968225Y-43925803D01*
X32869638Y-43957757D01*
X32781231Y-43987726D01*
X32714320Y-44012038D01*
X32680219Y-44027019D01*
X32679289Y-44027673D01*
X32639546Y-44046755D01*
X32597202Y-44059654D01*
X32544661Y-44079395D01*
X32459329Y-44119881D01*
X32348287Y-44177150D01*
X32218615Y-44247238D01*
X32077394Y-44326184D01*
X31931705Y-44410026D01*
X31788629Y-44494800D01*
X31655248Y-44576545D01*
X31538641Y-44651298D01*
X31531713Y-44655885D01*
X31269763Y-44838545D01*
X31009343Y-45036778D01*
X30756795Y-45244853D01*
X30518461Y-45457039D01*
X30300681Y-45667606D01*
X30109798Y-45870824D01*
X29952152Y-46060962D01*
X29902811Y-46127845D01*
X29833082Y-46233476D01*
X29753875Y-46365118D01*
X29674928Y-46505993D01*
X29605976Y-46639323D01*
X29605947Y-46639383D01*
X29481217Y-46922341D01*
X29396232Y-47183024D01*
X29351255Y-47424482D01*
X29346549Y-47649768D01*
X29382380Y-47861934D01*
X29459009Y-48064030D01*
X29576701Y-48259108D01*
X29735719Y-48450221D01*
X29764990Y-48480610D01*
X29918838Y-48605900D01*
X30111473Y-48709039D01*
X30339771Y-48788941D01*
X30600608Y-48844521D01*
X30890861Y-48874692D01*
X30900212Y-48875205D01*
X31190946Y-48890747D01*
X31032163Y-49059820D01*
X30901790Y-49199521D01*
X30800815Y-49310256D01*
X30725800Y-49396551D01*
X30673303Y-49462934D01*
X30639884Y-49513931D01*
X30622105Y-49554070D01*
X30616523Y-49587878D01*
X30617428Y-49605601D01*
X30609472Y-49684998D01*
X30571584Y-49797803D01*
X30548651Y-49850765D01*
X30491306Y-49983292D01*
X30449355Y-50099812D01*
X30420826Y-50211793D01*
X30403749Y-50330700D01*
X30396151Y-50468000D01*
X30396061Y-50635159D01*
X30398034Y-50726656D01*
X30405963Y-50923573D01*
X30420065Y-51083625D01*
X30442893Y-51216715D01*
X30477003Y-51332745D01*
X30524947Y-51441618D01*
X30589279Y-51553235D01*
X30625574Y-51608970D01*
X30715089Y-51729418D01*
X30821301Y-51851465D01*
X30934422Y-51965419D01*
X31044663Y-52061586D01*
X31142236Y-52130274D01*
X31164301Y-52142425D01*
X31265747Y-52188808D01*
X31393875Y-52239719D01*
X31533116Y-52289690D01*
X31667899Y-52333255D01*
X31782654Y-52364946D01*
X31823241Y-52373805D01*
X32013735Y-52408982D01*
X32168904Y-52434389D01*
X32299113Y-52450887D01*
X32414722Y-52459336D01*
X32526094Y-52460599D01*
X32643592Y-52455535D01*
X32729881Y-52449115D01*
X32905335Y-52433903D01*
X33037592Y-52420774D01*
X33130291Y-52409193D01*
X33187068Y-52398621D01*
X33211561Y-52388523D01*
X33207746Y-52378568D01*
X33217101Y-52368790D01*
X33264561Y-52356266D01*
X33341560Y-52342935D01*
X33398872Y-52335296D01*
X33694157Y-52297868D01*
X33950370Y-52260932D01*
X34175299Y-52222837D01*
X34376729Y-52181927D01*
X34562446Y-52136549D01*
X34740237Y-52085049D01*
X34917888Y-52025772D01*
X35005679Y-51993967D01*
X35161663Y-51934233D01*
X35334267Y-51864845D01*
X35514157Y-51789851D01*
X35691999Y-51713300D01*
X35858459Y-51639240D01*
X36004203Y-51571720D01*
X36119897Y-51514789D01*
X36162114Y-51492358D01*
X36305607Y-51411649D01*
X36447759Y-51328928D01*
X36580847Y-51248933D01*
X36697149Y-51176400D01*
X36788942Y-51116066D01*
X36848504Y-51072670D01*
X36854543Y-51067600D01*
X36917754Y-51014880D01*
X36977936Y-50967842D01*
X36983537Y-50963716D01*
X37018477Y-50936043D01*
X37015754Y-50929217D01*
X36994709Y-50933740D01*
X36970439Y-50939003D01*
X36967762Y-50934513D01*
X36991583Y-50916333D01*
X37046804Y-50880530D01*
X37111976Y-50839619D01*
X37161770Y-50806245D01*
X37171530Y-50792732D01*
X37147156Y-50796037D01*
X37107262Y-50804968D01*
X37109560Y-50796779D01*
X37135429Y-50777733D01*
X37184560Y-50746425D01*
X37256233Y-50705065D01*
X37340447Y-50658894D01*
X37427203Y-50613151D01*
X37506498Y-50573074D01*
X37568333Y-50543903D01*
X37602706Y-50530877D01*
X37606336Y-50531032D01*
X37607631Y-50555354D01*
X37608772Y-50623564D01*
X37609752Y-50732645D01*
X37610568Y-50879579D01*
X37611214Y-51061348D01*
X37611686Y-51274934D01*
X37611978Y-51517319D01*
X37612086Y-51785486D01*
X37612005Y-52076416D01*
X37611731Y-52387092D01*
X37611258Y-52714496D01*
X37610581Y-53055610D01*
X37610464Y-53106769D01*
X37604497Y-55672409D01*
X37252676Y-54722992D01*
X36900855Y-53773576D01*
X36314561Y-53773576D01*
X35958465Y-54735164D01*
X35602370Y-55696752D01*
X35155544Y-55710154D01*
X35148718Y-55515826D01*
X35141893Y-55321498D01*
X34702142Y-55315117D01*
X34262391Y-55308737D01*
X34262391Y-54840704D01*
X35083259Y-54840704D01*
X35083259Y-54465450D01*
X34262391Y-54465450D01*
X34262391Y-54161591D01*
X34702142Y-54155211D01*
X35141893Y-54148830D01*
X35148705Y-53955339D01*
X35155517Y-53761849D01*
X33746417Y-53761849D01*
X33746417Y-55708479D01*
X32608929Y-55705777D01*
X32731643Y-55650006D01*
X32893599Y-55559900D01*
X33012458Y-55454926D01*
X33090564Y-55331832D01*
X33130266Y-55187363D01*
X33136630Y-55088720D01*
X33126803Y-54958693D01*
X33094601Y-54849767D01*
X33035938Y-54758405D01*
X32946729Y-54681073D01*
X32822891Y-54614234D01*
X32660338Y-54554354D01*
X32454986Y-54497895D01*
X32453714Y-54497583D01*
X32331432Y-54465972D01*
X32223432Y-54434943D01*
X32138951Y-54407385D01*
X32087226Y-54386183D01*
X32077703Y-54380063D01*
X32031411Y-54316601D01*
X32031832Y-54251158D01*
X32078782Y-54182848D01*
X32164941Y-54127788D01*
X32281652Y-54098560D01*
X32420558Y-54094797D01*
X32573302Y-54116131D01*
X32731527Y-54162197D01*
X32857225Y-54217009D01*
X32937924Y-54256705D01*
X33003052Y-54286341D01*
X33040978Y-54300689D01*
X33044684Y-54301277D01*
X33053948Y-54279524D01*
X33061222Y-54221046D01*
X33065524Y-54136013D01*
X33066270Y-54077889D01*
X33065797Y-53974292D01*
X33062704Y-53907859D01*
X33054475Y-53868849D01*
X33038594Y-53847522D01*
X33012547Y-53834133D01*
X33002319Y-53830188D01*
X32850473Y-53785695D01*
X32673133Y-53754902D01*
X32484310Y-53738504D01*
X32298015Y-53737200D01*
X32128262Y-53751686D01*
X31996815Y-53780160D01*
X31828021Y-53851559D01*
X31690643Y-53947487D01*
X31587794Y-54063415D01*
X31522590Y-54194812D01*
X31498145Y-54337147D01*
X31515880Y-54479741D01*
X31558459Y-54594242D01*
X31622191Y-54689893D01*
X31712107Y-54770142D01*
X31833238Y-54838438D01*
X31990614Y-54898229D01*
X32189267Y-54952964D01*
X32215247Y-54959152D01*
X32363850Y-54996182D01*
X32472088Y-55029302D01*
X32545924Y-55061936D01*
X32591321Y-55097510D01*
X32614243Y-55139447D01*
X32620655Y-55191173D01*
X32620656Y-55191964D01*
X32600714Y-55260783D01*
X32539920Y-55312314D01*
X32436815Y-55347529D01*
X32369605Y-55359231D01*
X32195473Y-55365501D01*
X32017366Y-55335688D01*
X31827008Y-55268059D01*
X31740680Y-55227597D01*
X31650000Y-55183194D01*
X31575117Y-55148019D01*
X31525809Y-55126580D01*
X31512010Y-55122145D01*
X31504798Y-55143933D01*
X31499086Y-55202654D01*
X31495609Y-55288337D01*
X31494894Y-55354739D01*
X31494894Y-55587333D01*
X31594571Y-55622934D01*
X31674625Y-55651060D01*
X31749383Y-55676601D01*
X31764608Y-55681656D01*
X31775579Y-55689767D01*
X31751658Y-55696107D01*
X31690216Y-55700829D01*
X31588626Y-55704090D01*
X31444259Y-55706044D01*
X31342447Y-55706631D01*
X30849926Y-55708487D01*
X30849926Y-53773576D01*
X30621690Y-53766868D01*
X30393454Y-53760161D01*
X30387156Y-54306296D01*
X30380859Y-54852431D01*
X30032931Y-54307140D01*
X29685004Y-53761849D01*
X29079197Y-53761849D01*
X29079197Y-55708479D01*
X28424399Y-55708479D01*
X28417587Y-55514989D01*
X28410776Y-55321498D01*
X27958455Y-55315126D01*
X27506135Y-55308753D01*
X27512841Y-55080592D01*
X27519548Y-54852431D01*
X27935845Y-54846026D01*
X28352142Y-54839622D01*
X28352142Y-54465450D01*
X27507821Y-54465450D01*
X27507821Y-54161569D01*
X27959298Y-54155200D01*
X28410776Y-54148830D01*
X28410776Y-53773576D01*
X27713038Y-53767364D01*
X27015300Y-53761151D01*
X27015300Y-55708479D01*
X24763777Y-55708479D01*
X24763777Y-42949846D01*
X37616223Y-42949846D01*
X37616223Y-50269225D01*
G37*
G36*
X37012725Y-55490955D02*
G01*
X37042517Y-55577217D01*
X37064968Y-55646180D01*
X37076336Y-55686214D01*
X37077025Y-55690889D01*
X37054656Y-55696165D01*
X36992308Y-55700808D01*
X36896911Y-55704567D01*
X36775392Y-55707187D01*
X36634678Y-55708418D01*
X36594421Y-55708479D01*
X36112047Y-55708479D01*
X36128715Y-55655709D01*
X36145728Y-55605922D01*
X36172909Y-55530441D01*
X36198173Y-55462219D01*
X36250962Y-55321498D01*
X36599578Y-55315055D01*
X36948195Y-55308611D01*
X37012725Y-55490955D01*
G37*
G36*
X29571796Y-54437577D02*
G01*
X29606917Y-54490787D01*
X29659266Y-54572340D01*
X29725218Y-54676403D01*
X29801146Y-54797142D01*
X29883422Y-54928722D01*
X29968421Y-55065312D01*
X30052516Y-55201075D01*
X30132080Y-55330180D01*
X30203486Y-55446792D01*
X30263107Y-55545078D01*
X30307318Y-55619203D01*
X30332491Y-55663334D01*
X30336582Y-55671694D01*
X30337182Y-55685148D01*
X30323043Y-55694901D01*
X30288093Y-55701531D01*
X30226260Y-55705614D01*
X30131472Y-55707727D01*
X29997657Y-55708448D01*
X29949481Y-55708479D01*
X29548264Y-55708479D01*
X29548264Y-55063511D01*
X29548587Y-54895063D01*
X29549497Y-54743027D01*
X29550910Y-54613389D01*
X29552738Y-54512138D01*
X29554897Y-54445261D01*
X29557299Y-54418746D01*
X29557532Y-54418544D01*
X29571796Y-54437577D01*
G37*
%TO.C,R303*%
X65622776Y-48262500D02*
X66132224Y-48262500D01*
X65622776Y-47217500D02*
X66132224Y-47217500D01*
D15*
%TO.C,S401*%
X61330000Y-14890000D02*
X74030000Y-14890000D01*
X74030000Y-21750000D02*
X61330000Y-21750000D01*
D18*
X63109000Y-22836000D02*
G75*
G03*
X63109000Y-22836000I-175000J0D01*
G01*
D13*
%TO.C,J206*%
X80180000Y-52535000D02*
X65060000Y-52535000D01*
X66020000Y-52245000D02*
X64770000Y-52245000D01*
X76870000Y-53295000D02*
X76870000Y-52545000D01*
X80170000Y-54795000D02*
X79420000Y-54795000D01*
X64770000Y-52245000D02*
X64770000Y-53495000D01*
X66870000Y-53295000D02*
X66870000Y-52545000D01*
X65060000Y-52535000D02*
X65060000Y-58505000D01*
X79420000Y-57745000D02*
X72620000Y-57745000D01*
X80170000Y-53295000D02*
X80170000Y-52545000D01*
X79420000Y-54795000D02*
X79420000Y-57745000D01*
X65060000Y-58505000D02*
X80180000Y-58505000D01*
X78370000Y-52545000D02*
X78370000Y-53295000D01*
X78370000Y-53295000D02*
X80170000Y-53295000D01*
X66870000Y-52545000D02*
X65070000Y-52545000D01*
X68370000Y-52545000D02*
X68370000Y-53295000D01*
X80170000Y-52545000D02*
X78370000Y-52545000D01*
X76870000Y-52545000D02*
X68370000Y-52545000D01*
X68370000Y-53295000D02*
X76870000Y-53295000D01*
X80180000Y-58505000D02*
X80180000Y-52535000D01*
X65820000Y-54795000D02*
X65820000Y-57745000D01*
X65070000Y-54795000D02*
X65820000Y-54795000D01*
X65070000Y-52545000D02*
X65070000Y-53295000D01*
X65820000Y-57745000D02*
X72620000Y-57745000D01*
X65070000Y-53295000D02*
X66870000Y-53295000D01*
%TO.C,C306*%
X67376267Y-42210000D02*
X67083733Y-42210000D01*
X67376267Y-41190000D02*
X67083733Y-41190000D01*
%TO.C,J208*%
X84470000Y-58490000D02*
X99590000Y-58490000D01*
X96280000Y-53280000D02*
X96280000Y-52530000D01*
X86280000Y-53280000D02*
X86280000Y-52530000D01*
X85230000Y-57730000D02*
X92030000Y-57730000D01*
X99590000Y-52520000D02*
X84470000Y-52520000D01*
X84480000Y-53280000D02*
X86280000Y-53280000D01*
X96280000Y-52530000D02*
X87780000Y-52530000D01*
X99580000Y-54780000D02*
X98830000Y-54780000D01*
X99580000Y-52530000D02*
X97780000Y-52530000D01*
X97780000Y-52530000D02*
X97780000Y-53280000D01*
X98830000Y-54780000D02*
X98830000Y-57730000D01*
X84480000Y-54780000D02*
X85230000Y-54780000D01*
X98830000Y-57730000D02*
X92030000Y-57730000D01*
X85230000Y-54780000D02*
X85230000Y-57730000D01*
X87780000Y-52530000D02*
X87780000Y-53280000D01*
X84470000Y-52520000D02*
X84470000Y-58490000D01*
X84180000Y-52230000D02*
X84180000Y-53480000D01*
X85430000Y-52230000D02*
X84180000Y-52230000D01*
X99580000Y-53280000D02*
X99580000Y-52530000D01*
X86280000Y-52530000D02*
X84480000Y-52530000D01*
X87780000Y-53280000D02*
X96280000Y-53280000D01*
X97780000Y-53280000D02*
X99580000Y-53280000D01*
X84480000Y-52530000D02*
X84480000Y-53280000D01*
X99590000Y-58490000D02*
X99590000Y-52520000D01*
%TO.C,C403*%
X52740000Y-23566233D02*
X52740000Y-23858767D01*
X53760000Y-23566233D02*
X53760000Y-23858767D01*
%TO.C,C501*%
X41303733Y-28150000D02*
X41596267Y-28150000D01*
X41303733Y-27130000D02*
X41596267Y-27130000D01*
%TO.C,J104*%
X20970000Y-43520000D02*
X20970000Y-51200000D01*
X23630000Y-43520000D02*
X23630000Y-51200000D01*
X20970000Y-40920000D02*
X22300000Y-40920000D01*
X20970000Y-51200000D02*
X23630000Y-51200000D01*
X20970000Y-43520000D02*
X23630000Y-43520000D01*
X20970000Y-42250000D02*
X20970000Y-40920000D01*
%TO.C,R307*%
X43655276Y-40842500D02*
X44164724Y-40842500D01*
X43655276Y-39797500D02*
X44164724Y-39797500D01*
%TO.C,JP303*%
X98010000Y-33645000D02*
X100010000Y-33645000D01*
X100010000Y-33645000D02*
X100010000Y-36445000D01*
X100010000Y-36445000D02*
X98010000Y-36445000D01*
X98010000Y-36445000D02*
X98010000Y-33645000D01*
%TO.C,J501*%
X41750000Y-15190000D02*
X41750000Y-15940000D01*
X43560000Y-21150000D02*
X43560000Y-15180000D01*
X29250000Y-15940000D02*
X40250000Y-15940000D01*
X25940000Y-15180000D02*
X25940000Y-21150000D01*
X25950000Y-17440000D02*
X26700000Y-17440000D01*
X43560000Y-15180000D02*
X25940000Y-15180000D01*
X43550000Y-15190000D02*
X41750000Y-15190000D01*
X27750000Y-15940000D02*
X27750000Y-15190000D01*
X40250000Y-15190000D02*
X29250000Y-15190000D01*
X29250000Y-15190000D02*
X29250000Y-15940000D01*
X26700000Y-20390000D02*
X34750000Y-20390000D01*
X25940000Y-21150000D02*
X43560000Y-21150000D01*
X43550000Y-17440000D02*
X42800000Y-17440000D01*
X42800000Y-17440000D02*
X42800000Y-20390000D01*
X25950000Y-15940000D02*
X27750000Y-15940000D01*
X25950000Y-15190000D02*
X25950000Y-15940000D01*
X41750000Y-15940000D02*
X43550000Y-15940000D01*
X43550000Y-15940000D02*
X43550000Y-15190000D01*
X25650000Y-14890000D02*
X25650000Y-16140000D01*
X42800000Y-20390000D02*
X34750000Y-20390000D01*
X26700000Y-17440000D02*
X26700000Y-20390000D01*
X40250000Y-15940000D02*
X40250000Y-15190000D01*
X27750000Y-15190000D02*
X25950000Y-15190000D01*
X26900000Y-14890000D02*
X25650000Y-14890000D01*
%TO.C,C506*%
X84435733Y-31752000D02*
X84728267Y-31752000D01*
X84435733Y-30732000D02*
X84728267Y-30732000D01*
%TO.C,D301*%
X30607500Y-37765000D02*
X30607500Y-39235000D01*
X30607500Y-39235000D02*
X33067500Y-39235000D01*
X33067500Y-37765000D02*
X30607500Y-37765000D01*
%TO.C,R306*%
X39825276Y-39767500D02*
X40334724Y-39767500D01*
X39825276Y-40812500D02*
X40334724Y-40812500D01*
%TO.C,J101*%
X19330000Y-43520000D02*
X19330000Y-51200000D01*
X16670000Y-42250000D02*
X16670000Y-40920000D01*
X16670000Y-43520000D02*
X19330000Y-43520000D01*
X16670000Y-43520000D02*
X16670000Y-51200000D01*
X16670000Y-51200000D02*
X19330000Y-51200000D01*
X16670000Y-40920000D02*
X18000000Y-40920000D01*
%TO.C,J502*%
X114020000Y-21130000D02*
X114020000Y-15160000D01*
X114010000Y-15920000D02*
X114010000Y-15170000D01*
X96400000Y-15160000D02*
X96400000Y-21130000D01*
X112210000Y-15170000D02*
X112210000Y-15920000D01*
X96400000Y-21130000D02*
X114020000Y-21130000D01*
X110710000Y-15170000D02*
X99710000Y-15170000D01*
X114010000Y-15170000D02*
X112210000Y-15170000D01*
X96410000Y-17420000D02*
X97160000Y-17420000D01*
X113260000Y-20370000D02*
X105210000Y-20370000D01*
X114020000Y-15160000D02*
X96400000Y-15160000D01*
X97360000Y-14870000D02*
X96110000Y-14870000D01*
X96410000Y-15920000D02*
X98210000Y-15920000D01*
X99710000Y-15170000D02*
X99710000Y-15920000D01*
X112210000Y-15920000D02*
X114010000Y-15920000D01*
X110710000Y-15920000D02*
X110710000Y-15170000D01*
X98210000Y-15170000D02*
X96410000Y-15170000D01*
X99710000Y-15920000D02*
X110710000Y-15920000D01*
X96110000Y-14870000D02*
X96110000Y-16120000D01*
X113260000Y-17420000D02*
X113260000Y-20370000D01*
X98210000Y-15920000D02*
X98210000Y-15170000D01*
X97160000Y-17420000D02*
X97160000Y-20370000D01*
X96410000Y-15170000D02*
X96410000Y-15920000D01*
X114010000Y-17420000D02*
X113260000Y-17420000D01*
X97160000Y-20370000D02*
X105210000Y-20370000D01*
%TO.C,L301*%
X67410242Y-37700000D02*
X66589758Y-37700000D01*
X67410242Y-38820000D02*
X66589758Y-38820000D01*
%TO.C,JP304*%
X90470000Y-44990000D02*
X93270000Y-44990000D01*
X93270000Y-46990000D02*
X90470000Y-46990000D01*
X93270000Y-44990000D02*
X93270000Y-46990000D01*
X90470000Y-46990000D02*
X90470000Y-44990000D01*
%TO.C,D302*%
X34492500Y-37805000D02*
X34492500Y-39275000D01*
X36952500Y-37805000D02*
X34492500Y-37805000D01*
X34492500Y-39275000D02*
X36952500Y-39275000D01*
%TO.C,JP508*%
X110430000Y-25700000D02*
X110430000Y-23700000D01*
X110430000Y-23700000D02*
X113230000Y-23700000D01*
X113230000Y-23700000D02*
X113230000Y-25700000D01*
X113230000Y-25700000D02*
X110430000Y-25700000D01*
D17*
%TO.C,U402*%
X50630000Y-24020000D02*
X50630000Y-25620000D01*
X47490000Y-24020000D02*
X47490000Y-25620000D01*
D10*
X50110000Y-22370000D02*
G75*
G03*
X50110000Y-22370000I-100000J0D01*
G01*
D13*
%TO.C,D303*%
X38380000Y-37855000D02*
X38380000Y-39325000D01*
X40840000Y-37855000D02*
X38380000Y-37855000D01*
X38380000Y-39325000D02*
X40840000Y-39325000D01*
%TO.C,R204*%
X48242500Y-50137224D02*
X48242500Y-49627776D01*
X47197500Y-50137224D02*
X47197500Y-49627776D01*
%TO.C,R201*%
X42822500Y-50137224D02*
X42822500Y-49627776D01*
X41777500Y-50137224D02*
X41777500Y-49627776D01*
%TO.C,C503*%
X27906267Y-26045000D02*
X27613733Y-26045000D01*
X27906267Y-27065000D02*
X27613733Y-27065000D01*
%TD*%
M02*
