M48
; DRILL file {KiCad (6.0.7-1)-1} date 2022 October 27, Thursday 12:51:43
; FORMAT={-:-/ absolute / inch / decimal}
; #@! TF.CreationDate,2022-10-27T12:51:43+02:00
; #@! TF.GenerationSoftware,Kicad,Pcbnew,(6.0.7-1)-1
; #@! TF.FileFunction,MixedPlating,1,4
FMAT,2
INCH
; #@! TA.AperFunction,Plated,PTH,ViaDrill
T1C0.0118
; #@! TA.AperFunction,Plated,PTH,ViaDrill
T2C0.0157
; #@! TA.AperFunction,Plated,PTH,ComponentDrill
T3C0.0197
; #@! TA.AperFunction,Plated,PTH,ComponentDrill
T4C0.0236
; #@! TA.AperFunction,Plated,PTH,ComponentDrill
T5C0.0374
; #@! TA.AperFunction,Plated,PTH,ComponentDrill
T6C0.0394
; #@! TA.AperFunction,Plated,PTH,ComponentDrill
T7C0.0933
; #@! TA.AperFunction,Plated,PTH,ComponentDrill
T8C0.1260
%
G90
G05
T1
X0.8197Y-1.2295
X0.9843Y-1.2008
X1.0787Y-1.1024
X1.3063Y-1.4264
X1.4579Y-1.4287
X1.4701Y-1.2591
X1.5276Y-1.0839
X1.6098Y-1.428
X1.6112Y-2.0541
X1.7217Y-1.0882
X1.7248Y-1.1783
X1.8941Y-0.8657
X1.9598Y-1.5677
X2.0283Y-1.0996
X2.076Y-1.928
X2.1606Y-1.3665
X2.265Y-1.8594
X2.3213Y-1.8827
X2.3728Y-1.0059
X2.3839Y-1.1142
X2.4079Y-2.3291
X2.5087Y-2.0512
X2.5228Y-2.3295
X2.5248Y-1.7114
X2.5272Y-1.5024
X2.6646Y-1.9807
X2.7047Y-1.739
X2.7213Y-1.8091
X2.7433Y-1.6331
X2.9213Y-1.7012
X2.9232Y-1.1492
X2.9459Y-1.6298
X2.9642Y-1.9587
X2.9933Y-0.7122
X2.9945Y-1.9921
X3.004Y-1.9264
X3.0248Y-1.5173
X3.0409Y-1.9898
X3.0512Y-1.3319
X3.0559Y-2.072
X3.102Y-2.1118
X3.1071Y-1.1976
X3.1165Y-0.9161
X3.1287Y-1.5827
X3.1587Y-1.3469
X3.239Y-1.3268
X3.2413Y-1.1965
X3.2618Y-2.3295
X3.2902Y-1.326
X3.2929Y-2.2673
X3.339Y-1.326
X3.3661Y-1.6323
X3.3854Y-1.7339
X3.3988Y-1.6477
X3.4252Y-2.0063
X3.4256Y-1.5205
X3.4299Y-0.9165
X3.4441Y-1.4705
X3.4494Y-1.7978
X3.4591Y-1.3902
X3.465Y-1.6547
X3.4669Y-1.8984
X3.5354Y-1.8902
X3.576Y-2.0496
X3.624Y-1.9488
X3.6776Y-0.9165
X3.6965Y-1.1157
X3.7713Y-1.7988
X3.7768Y-0.8795
X3.8031Y-1.7543
X3.8043Y-1.0665
X3.8425Y-1.9047
X3.8579Y-1.5976
X3.8661Y-1.7264
X4.2339Y-1.5724
X4.2453Y-0.9208
X4.3697Y-1.1161
X4.5579Y-0.9701
T2
X2.1886Y-1.9988
X2.5366Y-1.4354
T3
X0.6929Y-0.7874
X0.6929Y-2.3622
X0.7206Y-0.7206
X0.7206Y-0.8542
X0.7206Y-2.2954
X0.7206Y-2.429
X0.7874Y-0.6929
X0.7874Y-0.8819
X0.7874Y-2.2677
X0.7874Y-2.4567
X0.8542Y-0.7206
X0.8542Y-0.8542
X0.8542Y-2.2954
X0.8542Y-2.429
X0.8819Y-0.7874
X0.8819Y-2.3622
X4.6299Y-0.7874
X4.6299Y-2.3622
X4.6576Y-0.7206
X4.6576Y-0.8542
X4.6576Y-2.2954
X4.6576Y-2.429
X4.7244Y-0.6929
X4.7244Y-0.8819
X4.7244Y-2.2677
X4.7244Y-2.4567
X4.7912Y-0.7206
X4.7912Y-0.8542
X4.7912Y-2.2954
X4.7912Y-2.429
X4.8189Y-0.7874
X4.8189Y-2.3622
T4
X2.2469Y-0.8996
X2.2469Y-0.9783
X2.8362Y-0.9681
X2.8362Y-1.0469
X3.2866Y-1.0827
X3.3654Y-1.0827
T5
X1.122Y-0.6945
X1.1335Y-2.4341
X1.2205Y-0.6945
X1.2319Y-2.4341
X1.3189Y-0.6945
X1.3303Y-2.4341
X1.4173Y-0.6945
X1.5157Y-0.6945
X1.6142Y-0.6945
X1.6843Y-2.1567
X1.6843Y-2.4315
X1.7827Y-2.1567
X1.7827Y-2.4315
X1.8811Y-2.1567
X1.8811Y-2.4315
X1.9795Y-2.1567
X1.9795Y-2.4315
X2.078Y-2.1567
X2.078Y-2.4315
X2.1764Y-2.1567
X2.1764Y-2.4315
X2.2748Y-2.1567
X2.2748Y-2.4315
X2.6622Y-2.1652
X2.6622Y-2.4378
X2.7606Y-2.1652
X2.7606Y-2.4378
X2.8591Y-2.1652
X2.8591Y-2.4378
X2.9575Y-2.1652
X2.9575Y-2.4378
X3.0559Y-2.1652
X3.0559Y-2.4378
X3.2894Y-0.6886
X3.3878Y-0.6886
X3.4264Y-2.1646
X3.4264Y-2.4374
X3.4862Y-0.6886
X3.5248Y-2.1646
X3.5248Y-2.4374
X3.6232Y-2.1646
X3.6232Y-2.4374
X3.7217Y-2.1646
X3.7217Y-2.4374
X3.8201Y-2.1646
X3.8201Y-2.4374
X3.8961Y-0.6937
X3.9945Y-0.6937
X4.0929Y-0.6937
X4.1654Y-2.4374
X4.1913Y-0.6937
X4.2638Y-2.4374
X4.2898Y-0.6937
X4.3622Y-2.4374
X4.3882Y-0.6937
T6
X0.7087Y-1.6634
X0.7087Y-1.7634
X0.7087Y-1.8634
X0.7087Y-1.9634
X0.7118Y-1.1291
X0.7118Y-1.2291
X0.7118Y-1.3291
X0.7118Y-1.4291
X0.878Y-1.6634
X0.878Y-1.7634
X0.878Y-1.8634
X0.878Y-1.9634
X1.9563Y-0.6917
X2.0547Y-0.6917
X4.7638Y-1.1331
X4.7638Y-1.2331
X4.7638Y-1.3331
X4.7638Y-1.4331
X4.7638Y-1.6496
X4.7638Y-1.7496
X4.7638Y-1.8496
X4.7638Y-1.9496
T7
X2.4795Y-0.7213
X2.6646Y-0.7213
X2.8496Y-0.7213
T8
X0.7874Y-0.7874
X0.7874Y-2.3622
X4.7244Y-0.7874
X4.7244Y-2.3622
T0
M30
