%TF.GenerationSoftware,KiCad,Pcbnew,(6.0.7-1)-1*%
%TF.CreationDate,2022-10-27T12:50:35+02:00*%
%TF.ProjectId,ESE_RuizHerbelinAsfary,4553455f-5275-4697-9a48-657262656c69,rev?*%
%TF.SameCoordinates,Original*%
%TF.FileFunction,Legend,Bot*%
%TF.FilePolarity,Positive*%
%FSLAX46Y46*%
G04 Gerber Fmt 4.6, Leading zero omitted, Abs format (unit mm)*
G04 Created by KiCad (PCBNEW (6.0.7-1)-1) date 2022-10-27 12:50:35*
%MOMM*%
%LPD*%
G01*
G04 APERTURE LIST*
%ADD10C,0.300000*%
%ADD11C,0.254000*%
G04 APERTURE END LIST*
D10*
%TO.C, *%
D11*
%TO.C,SW301*%
X102389000Y-42096000D02*
G75*
G03*
X102643000Y-42096000I127000J0D01*
G01*
X102643000Y-42096000D02*
G75*
G03*
X102389000Y-42096000I-127000J0D01*
G01*
%TO.C, *%
G36*
X28765109Y-51114669D02*
G01*
X28790260Y-51158523D01*
X28799721Y-51224745D01*
X28799955Y-51236286D01*
X28806656Y-51285561D01*
X28819721Y-51311926D01*
X28825128Y-51316013D01*
X28839721Y-51344256D01*
X28836875Y-51349251D01*
X28807075Y-51357688D01*
X28754721Y-51358075D01*
X28735927Y-51356365D01*
X28685631Y-51344222D01*
X28669721Y-51322195D01*
X28653774Y-51293667D01*
X28614721Y-51266104D01*
X28576071Y-51239188D01*
X28559721Y-51210834D01*
X28567644Y-51190533D01*
X28595191Y-51182353D01*
X28627883Y-51193992D01*
X28650160Y-51223306D01*
X28657000Y-51243141D01*
X28668962Y-51252885D01*
X28690871Y-51228306D01*
X28706412Y-51200194D01*
X28719085Y-51146926D01*
X28722981Y-51118918D01*
X28735721Y-51101926D01*
X28765109Y-51114669D01*
G37*
G36*
X28554116Y-51069653D02*
G01*
X28554391Y-51085455D01*
X28539992Y-51121419D01*
X28538290Y-51124440D01*
X28506044Y-51153069D01*
X28469633Y-51154248D01*
X28444753Y-51127049D01*
X28444433Y-51125769D01*
X28457287Y-51104207D01*
X28490963Y-51081835D01*
X28528795Y-51067402D01*
X28554116Y-51069653D01*
G37*
G36*
X36179721Y-47811926D02*
G01*
X36169721Y-47821926D01*
X36159721Y-47811926D01*
X36169721Y-47801926D01*
X36179721Y-47811926D01*
G37*
G36*
X35264502Y-50702507D02*
G01*
X35279721Y-50721926D01*
X35279140Y-50726706D01*
X35259721Y-50741926D01*
X35254941Y-50741344D01*
X35239721Y-50721926D01*
X35240303Y-50717145D01*
X35259721Y-50701926D01*
X35264502Y-50702507D01*
G37*
G36*
X36124346Y-50522694D02*
G01*
X36139721Y-50541926D01*
X36139492Y-50546452D01*
X36130902Y-50561926D01*
X36127694Y-50561005D01*
X36109721Y-50541926D01*
X36106596Y-50534178D01*
X36118541Y-50521926D01*
X36124346Y-50522694D01*
G37*
G36*
X35979721Y-47551926D02*
G01*
X35969721Y-47561926D01*
X35959721Y-47551926D01*
X35969721Y-47541926D01*
X35979721Y-47551926D01*
G37*
G36*
X34859721Y-49571926D02*
G01*
X34849721Y-49581926D01*
X34839721Y-49571926D01*
X34849721Y-49561926D01*
X34859721Y-49571926D01*
G37*
G36*
X36033909Y-48856618D02*
G01*
X36045865Y-48906926D01*
X36045892Y-48907090D01*
X36051589Y-48998495D01*
X36043675Y-49121552D01*
X36021965Y-49279173D01*
X36012331Y-49341665D01*
X36005389Y-49394222D01*
X36003646Y-49419173D01*
X36002353Y-49432228D01*
X35990267Y-49468201D01*
X35984697Y-49498815D01*
X35993897Y-49548201D01*
X35995458Y-49551969D01*
X36006459Y-49604402D01*
X36010144Y-49678359D01*
X36007502Y-49765051D01*
X35999520Y-49855689D01*
X35987184Y-49941484D01*
X35971483Y-50013648D01*
X35953403Y-50063391D01*
X35933933Y-50081926D01*
X35931056Y-50083346D01*
X35925939Y-50109083D01*
X35929846Y-50156926D01*
X35933130Y-50177770D01*
X35937097Y-50212153D01*
X35930818Y-50212254D01*
X35911461Y-50181926D01*
X35909978Y-50179510D01*
X35889341Y-50153148D01*
X35880430Y-50155578D01*
X35873307Y-50171079D01*
X35841569Y-50191339D01*
X35824002Y-50199808D01*
X35796426Y-50227883D01*
X35785615Y-50258738D01*
X35798577Y-50278211D01*
X35799308Y-50278467D01*
X35817098Y-50299318D01*
X35816839Y-50327673D01*
X35798541Y-50341926D01*
X35791307Y-50340355D01*
X35789721Y-50321926D01*
X35793446Y-50315089D01*
X35791762Y-50300908D01*
X35770554Y-50305548D01*
X35739860Y-50324886D01*
X35709721Y-50354795D01*
X35695283Y-50372447D01*
X35649255Y-50424653D01*
X35597989Y-50479066D01*
X35572441Y-50505874D01*
X35535896Y-50547300D01*
X35517989Y-50572122D01*
X35517143Y-50573805D01*
X35492694Y-50597676D01*
X35449721Y-50626393D01*
X35444422Y-50629406D01*
X35400583Y-50651890D01*
X35374094Y-50661393D01*
X35368939Y-50660824D01*
X35349737Y-50639718D01*
X35344088Y-50601471D01*
X35355465Y-50564207D01*
X35368097Y-50544044D01*
X35397219Y-50493459D01*
X35430846Y-50431926D01*
X35484166Y-50338240D01*
X35538902Y-50260610D01*
X35587024Y-50216122D01*
X35631011Y-50201926D01*
X35667155Y-50198439D01*
X35714993Y-50184259D01*
X35754019Y-50165003D01*
X35806674Y-50139834D01*
X35830168Y-50127205D01*
X35884523Y-50087683D01*
X35931921Y-50041326D01*
X35963453Y-49997606D01*
X35970212Y-49965991D01*
X35967797Y-49954640D01*
X35963652Y-49907338D01*
X35960789Y-49835845D01*
X35959721Y-49750671D01*
X35959714Y-49730280D01*
X35958979Y-49649646D01*
X35955596Y-49599355D01*
X35947542Y-49571359D01*
X35932795Y-49557604D01*
X35909333Y-49550041D01*
X35861843Y-49547719D01*
X35775764Y-49568375D01*
X35667589Y-49615171D01*
X35540806Y-49686812D01*
X35508091Y-49705443D01*
X35449622Y-49731640D01*
X35406986Y-49741926D01*
X35377681Y-49745562D01*
X35351027Y-49759813D01*
X35348297Y-49762805D01*
X35316397Y-49777051D01*
X35264847Y-49788233D01*
X35237372Y-49792526D01*
X35162341Y-49806439D01*
X35085264Y-49822889D01*
X35040962Y-49832206D01*
X34988312Y-49836556D01*
X34937763Y-49827148D01*
X34870264Y-49802146D01*
X34798012Y-49765925D01*
X34763023Y-49729662D01*
X34766877Y-49692877D01*
X34809018Y-49654226D01*
X34828522Y-49642490D01*
X34893670Y-49621294D01*
X34944395Y-49635139D01*
X34977248Y-49683426D01*
X34984126Y-49699548D01*
X35007920Y-49727696D01*
X35029998Y-49728558D01*
X35039721Y-49699411D01*
X35046697Y-49674994D01*
X35073543Y-49632674D01*
X35110888Y-49590363D01*
X35148302Y-49559449D01*
X35175355Y-49551320D01*
X35193640Y-49553899D01*
X35232256Y-49539822D01*
X35248786Y-49529173D01*
X35259721Y-49537810D01*
X35258483Y-49544909D01*
X35236526Y-49566324D01*
X35224197Y-49577199D01*
X35233363Y-49609853D01*
X35233675Y-49610410D01*
X35248611Y-49629075D01*
X35263399Y-49619776D01*
X35285535Y-49577923D01*
X35317443Y-49530437D01*
X35388698Y-49482327D01*
X35422558Y-49468731D01*
X35452472Y-49452066D01*
X35453163Y-49435208D01*
X35429721Y-49409068D01*
X35429615Y-49408962D01*
X35402481Y-49371347D01*
X35412200Y-49349188D01*
X35459018Y-49341926D01*
X35501171Y-49334901D01*
X35537469Y-49306134D01*
X35563267Y-49275372D01*
X35608173Y-49242754D01*
X35643852Y-49217505D01*
X35659721Y-49193178D01*
X35659737Y-49192644D01*
X35676075Y-49167554D01*
X35713930Y-49138298D01*
X35729273Y-49129269D01*
X35762038Y-49116501D01*
X35795409Y-49121568D01*
X35846499Y-49145383D01*
X35896419Y-49166147D01*
X35938522Y-49167119D01*
X35966678Y-49139537D01*
X35984337Y-49079640D01*
X35994955Y-48983665D01*
X35999827Y-48929979D01*
X36009858Y-48869702D01*
X36021563Y-48844729D01*
X36033909Y-48856618D01*
G37*
G36*
X33103738Y-49145798D02*
G01*
X33138416Y-49170352D01*
X33143655Y-49176905D01*
X33148490Y-49191907D01*
X33120553Y-49187938D01*
X33107423Y-49183865D01*
X33075602Y-49166419D01*
X33066300Y-49149512D01*
X33086092Y-49141926D01*
X33103738Y-49145798D01*
G37*
G36*
X33396658Y-49310981D02*
G01*
X33439721Y-49331926D01*
X33441218Y-49332786D01*
X33469453Y-49352395D01*
X33469721Y-49360508D01*
X33442785Y-49352870D01*
X33399721Y-49331926D01*
X33398225Y-49331065D01*
X33369990Y-49311456D01*
X33369721Y-49303343D01*
X33396658Y-49310981D01*
G37*
G36*
X25553055Y-48108592D02*
G01*
X25555945Y-48113661D01*
X25550544Y-48140595D01*
X25537609Y-48154455D01*
X25512306Y-48160714D01*
X25499721Y-48143106D01*
X25505755Y-48126150D01*
X25529663Y-48107084D01*
X25553055Y-48108592D01*
G37*
G36*
X35859721Y-45111926D02*
G01*
X35849721Y-45121926D01*
X35839721Y-45111926D01*
X35849721Y-45101926D01*
X35859721Y-45111926D01*
G37*
G36*
X36031164Y-47735333D02*
G01*
X36037728Y-47799257D01*
X36041146Y-47839396D01*
X36055013Y-47858923D01*
X36087896Y-47857380D01*
X36118800Y-47856070D01*
X36129566Y-47870048D01*
X36121640Y-47901931D01*
X36110784Y-47951926D01*
X36107273Y-47970583D01*
X36106649Y-47993443D01*
X36118808Y-47981926D01*
X36124042Y-47974539D01*
X36136232Y-47967250D01*
X36139415Y-47996298D01*
X36133523Y-48026354D01*
X36109721Y-48029158D01*
X36092768Y-48026883D01*
X36079721Y-48047646D01*
X36083121Y-48062781D01*
X36109721Y-48089158D01*
X36113132Y-48090732D01*
X36132831Y-48121449D01*
X36138143Y-48186298D01*
X36137173Y-48211298D01*
X36132772Y-48244942D01*
X36126476Y-48246926D01*
X36125568Y-48244744D01*
X36105751Y-48222922D01*
X36083055Y-48239532D01*
X36059251Y-48293351D01*
X36054722Y-48307849D01*
X36045801Y-48350972D01*
X36045209Y-48399375D01*
X36053444Y-48464223D01*
X36071006Y-48556680D01*
X36071028Y-48556785D01*
X36075413Y-48612820D01*
X36067501Y-48656680D01*
X36058265Y-48667485D01*
X36049997Y-48648642D01*
X36043988Y-48592433D01*
X36040883Y-48558413D01*
X36032164Y-48503196D01*
X36022073Y-48472433D01*
X36020975Y-48469879D01*
X36016373Y-48436107D01*
X36012193Y-48370111D01*
X36008689Y-48278206D01*
X36006115Y-48166706D01*
X36004725Y-48041926D01*
X36004623Y-48019868D01*
X36004887Y-47894273D01*
X36006613Y-47794019D01*
X36009655Y-47722768D01*
X36013866Y-47684183D01*
X36019101Y-47681926D01*
X36031164Y-47735333D01*
G37*
G36*
X36415519Y-47664469D02*
G01*
X36430018Y-47703277D01*
X36430044Y-47703393D01*
X36447819Y-47749820D01*
X36471607Y-47775417D01*
X36483674Y-47782760D01*
X36499721Y-47814065D01*
X36485196Y-47836932D01*
X36448624Y-47840629D01*
X36402032Y-47826235D01*
X36357449Y-47795333D01*
X36313465Y-47758676D01*
X36274721Y-47735961D01*
X36255814Y-47721123D01*
X36241322Y-47688376D01*
X36241727Y-47656351D01*
X36259721Y-47641926D01*
X36264440Y-47642432D01*
X36279721Y-47659810D01*
X36292202Y-47670881D01*
X36329707Y-47674810D01*
X36362519Y-47669210D01*
X36379707Y-47656926D01*
X36382721Y-47641840D01*
X36396970Y-47641426D01*
X36415519Y-47664469D01*
G37*
G36*
X29369082Y-43897573D02*
G01*
X29417225Y-43929846D01*
X29446832Y-43975843D01*
X29447204Y-44029856D01*
X29437944Y-44049276D01*
X29409581Y-44100373D01*
X29365454Y-44176281D01*
X29308581Y-44271883D01*
X29241982Y-44382065D01*
X29168675Y-44501714D01*
X29107720Y-44601270D01*
X29042992Y-44708766D01*
X28988858Y-44800656D01*
X28947970Y-44872361D01*
X28922981Y-44919303D01*
X28916542Y-44936905D01*
X28931102Y-44933397D01*
X28979495Y-44917605D01*
X29057404Y-44890616D01*
X29160443Y-44853991D01*
X29284230Y-44809290D01*
X29424380Y-44758074D01*
X29576510Y-44701905D01*
X29696693Y-44657607D01*
X29842841Y-44604563D01*
X29974937Y-44557532D01*
X30088306Y-44518134D01*
X30178272Y-44487987D01*
X30240160Y-44468711D01*
X30269294Y-44461926D01*
X30307999Y-44469949D01*
X30356653Y-44496926D01*
X30370822Y-44509234D01*
X30391240Y-44530623D01*
X30403880Y-44554067D01*
X30407273Y-44583122D01*
X30399952Y-44621341D01*
X30380446Y-44672280D01*
X30347289Y-44739492D01*
X30299011Y-44826533D01*
X30234143Y-44936958D01*
X30151218Y-45074320D01*
X30048767Y-45242175D01*
X29971460Y-45367818D01*
X29887244Y-45502919D01*
X29810028Y-45624949D01*
X29742546Y-45729673D01*
X29687531Y-45812855D01*
X29647715Y-45870259D01*
X29625832Y-45897651D01*
X29581349Y-45927821D01*
X29532762Y-45930286D01*
X29487220Y-45910085D01*
X29438155Y-45865484D01*
X29419721Y-45812173D01*
X29429093Y-45785747D01*
X29457043Y-45729722D01*
X29500816Y-45649513D01*
X29557636Y-45550070D01*
X29624730Y-45436345D01*
X29699322Y-45313286D01*
X29771385Y-45194530D01*
X29835792Y-45085467D01*
X29887483Y-44994707D01*
X29924305Y-44926134D01*
X29944101Y-44883630D01*
X29944718Y-44871078D01*
X29798270Y-44926749D01*
X29633364Y-44988360D01*
X29466431Y-45049744D01*
X29301856Y-45109365D01*
X29144025Y-45165685D01*
X28997325Y-45217165D01*
X28866140Y-45262268D01*
X28754857Y-45299456D01*
X28667862Y-45327190D01*
X28609539Y-45343933D01*
X28584276Y-45348147D01*
X28567289Y-45340874D01*
X28515886Y-45305102D01*
X28475852Y-45259457D01*
X28459721Y-45217124D01*
X28464224Y-45185879D01*
X28482379Y-45135611D01*
X28493440Y-45115771D01*
X28524913Y-45062337D01*
X28571699Y-44984570D01*
X28630786Y-44887343D01*
X28699163Y-44775529D01*
X28773816Y-44654002D01*
X28851735Y-44527635D01*
X28929906Y-44401302D01*
X29005319Y-44279876D01*
X29074961Y-44168231D01*
X29135820Y-44071240D01*
X29184884Y-43993776D01*
X29219141Y-43940714D01*
X29235579Y-43916926D01*
X29259988Y-43897037D01*
X29313104Y-43884733D01*
X29369082Y-43897573D01*
G37*
G36*
X28227632Y-48223606D02*
G01*
X28237644Y-48238362D01*
X28214721Y-48272009D01*
X28194654Y-48293459D01*
X28182006Y-48295354D01*
X28179721Y-48261926D01*
X28185290Y-48238599D01*
X28209721Y-48221926D01*
X28227632Y-48223606D01*
G37*
G36*
X29121816Y-50945956D02*
G01*
X29142170Y-50961926D01*
X29154015Y-50966662D01*
X29141435Y-50989861D01*
X29125273Y-51003115D01*
X29083986Y-51012731D01*
X29068962Y-51011459D01*
X29076190Y-51016545D01*
X29087826Y-51024947D01*
X29091190Y-51055311D01*
X29085654Y-51074535D01*
X29079721Y-51123561D01*
X29078815Y-51145327D01*
X29070809Y-51158782D01*
X29048861Y-51146246D01*
X29006260Y-51106125D01*
X29000817Y-51100913D01*
X28940308Y-51053657D01*
X28874721Y-51015187D01*
X28848687Y-51001855D01*
X28810532Y-50970130D01*
X28799721Y-50930987D01*
X28793616Y-50899189D01*
X28772221Y-50881926D01*
X28771260Y-50881889D01*
X28748729Y-50863138D01*
X28732415Y-50820393D01*
X28724316Y-50792412D01*
X28696195Y-50756208D01*
X28640355Y-50727531D01*
X28621830Y-50719417D01*
X28573877Y-50689547D01*
X28549137Y-50660083D01*
X28544408Y-50649150D01*
X28536139Y-50636495D01*
X28719721Y-50636495D01*
X28720935Y-50644751D01*
X28741592Y-50684540D01*
X28779721Y-50728686D01*
X28791102Y-50740224D01*
X28825765Y-50787956D01*
X28839721Y-50829167D01*
X28840003Y-50833743D01*
X28854231Y-50869684D01*
X28883282Y-50908622D01*
X28917877Y-50941506D01*
X28948736Y-50959284D01*
X28966579Y-50952903D01*
X28971269Y-50931719D01*
X28966269Y-50879763D01*
X28946133Y-50832283D01*
X28916891Y-50806980D01*
X28890487Y-50794520D01*
X28883001Y-50764185D01*
X28912424Y-50718940D01*
X28932512Y-50688734D01*
X28950411Y-50634655D01*
X28950356Y-50608342D01*
X28933087Y-50587177D01*
X28886304Y-50575245D01*
X28850451Y-50571763D01*
X28784510Y-50578666D01*
X28737590Y-50601472D01*
X28719721Y-50636495D01*
X28536139Y-50636495D01*
X28516526Y-50606477D01*
X28475934Y-50557944D01*
X28462204Y-50542958D01*
X28417235Y-50490226D01*
X28384658Y-50446926D01*
X28358183Y-50417186D01*
X28327421Y-50401926D01*
X28308038Y-50388146D01*
X28299721Y-50341926D01*
X28299720Y-50341210D01*
X28294512Y-50299315D01*
X28282221Y-50281926D01*
X28276337Y-50283719D01*
X28260454Y-50309860D01*
X28251306Y-50354554D01*
X28251059Y-50401533D01*
X28261882Y-50434529D01*
X28273170Y-50462179D01*
X28272036Y-50509823D01*
X28264385Y-50534391D01*
X28246679Y-50547837D01*
X28209235Y-50535082D01*
X28198844Y-50529669D01*
X28158295Y-50489094D01*
X28143969Y-50438088D01*
X28160641Y-50390818D01*
X28172753Y-50370978D01*
X28166026Y-50340230D01*
X28150251Y-50332381D01*
X28120425Y-50351078D01*
X28101580Y-50367576D01*
X28062273Y-50381619D01*
X28045609Y-50378986D01*
X28052026Y-50366619D01*
X28068937Y-50347505D01*
X28088912Y-50305231D01*
X28091263Y-50298169D01*
X28112160Y-50269375D01*
X28151607Y-50270612D01*
X28153897Y-50271175D01*
X28189659Y-50272706D01*
X28199721Y-50250167D01*
X28195632Y-50233313D01*
X28171377Y-50228523D01*
X28149526Y-50228002D01*
X28127801Y-50198012D01*
X28119721Y-50139795D01*
X28115786Y-50124978D01*
X28086649Y-50093027D01*
X28043593Y-50070110D01*
X28004028Y-50067157D01*
X27986470Y-50059330D01*
X27980028Y-50016926D01*
X27983550Y-50005653D01*
X27999721Y-50021926D01*
X28003483Y-50027584D01*
X28016661Y-50038282D01*
X28021442Y-50011926D01*
X28021992Y-49964292D01*
X28020022Y-49904678D01*
X28019818Y-49900656D01*
X28023037Y-49856940D01*
X28038322Y-49851060D01*
X28046024Y-49857734D01*
X28049514Y-49882262D01*
X28050801Y-49891331D01*
X28077247Y-49892402D01*
X28091026Y-49891163D01*
X28114154Y-49905402D01*
X28128236Y-49951043D01*
X28133809Y-49972754D01*
X28164524Y-50023987D01*
X28225177Y-50073516D01*
X28251997Y-50091786D01*
X28309407Y-50133099D01*
X28350914Y-50165830D01*
X28392357Y-50190474D01*
X28450914Y-50206300D01*
X28497463Y-50219808D01*
X28546173Y-50256391D01*
X28582257Y-50287036D01*
X28626716Y-50301926D01*
X28639187Y-50303675D01*
X28686184Y-50324710D01*
X28736499Y-50361926D01*
X28754605Y-50377665D01*
X28798075Y-50409331D01*
X28827070Y-50421926D01*
X28834279Y-50423173D01*
X28871684Y-50440569D01*
X28919721Y-50471926D01*
X28934343Y-50482139D01*
X28985520Y-50510524D01*
X29024311Y-50521926D01*
X29052378Y-50525091D01*
X29117039Y-50557533D01*
X29170284Y-50618643D01*
X29206412Y-50700454D01*
X29219721Y-50794998D01*
X29216788Y-50840828D01*
X29200185Y-50877106D01*
X29165384Y-50879254D01*
X29108394Y-50849216D01*
X29068992Y-50830513D01*
X29044097Y-50831403D01*
X29046580Y-50849930D01*
X29074721Y-50876551D01*
X29104557Y-50903581D01*
X29118418Y-50931719D01*
X29119721Y-50934365D01*
X29121816Y-50945956D01*
G37*
G36*
X36099721Y-48331926D02*
G01*
X36089721Y-48341926D01*
X36079721Y-48331926D01*
X36089721Y-48321926D01*
X36099721Y-48331926D01*
G37*
G36*
X31758656Y-45973234D02*
G01*
X31705513Y-46139481D01*
X31621174Y-46293686D01*
X31508064Y-46430884D01*
X31368601Y-46546113D01*
X31205210Y-46634409D01*
X31186450Y-46642109D01*
X31126540Y-46662885D01*
X31067808Y-46674408D01*
X30996579Y-46678598D01*
X30899179Y-46677375D01*
X30853462Y-46675828D01*
X30769884Y-46670111D01*
X30705595Y-46658853D01*
X30646144Y-46638900D01*
X30577079Y-46607100D01*
X30526275Y-46579934D01*
X30387096Y-46478534D01*
X30277574Y-46355366D01*
X30198324Y-46214930D01*
X30149961Y-46061730D01*
X30137848Y-45945716D01*
X30433980Y-45945716D01*
X30457713Y-46072366D01*
X30511998Y-46186218D01*
X30596005Y-46282038D01*
X30708904Y-46354588D01*
X30744002Y-46369415D01*
X30874315Y-46399068D01*
X31003585Y-46390313D01*
X31128330Y-46344288D01*
X31245066Y-46262130D01*
X31350310Y-46144978D01*
X31406512Y-46056371D01*
X31461678Y-45914675D01*
X31479526Y-45763363D01*
X31469518Y-45663209D01*
X31426222Y-45538773D01*
X31353064Y-45433617D01*
X31254813Y-45352550D01*
X31136239Y-45300383D01*
X31002111Y-45281926D01*
X30998226Y-45281950D01*
X30885934Y-45300522D01*
X30770190Y-45349325D01*
X30662762Y-45422007D01*
X30575415Y-45512219D01*
X30554390Y-45541330D01*
X30481489Y-45674962D01*
X30441629Y-45811503D01*
X30433980Y-45945716D01*
X30137848Y-45945716D01*
X30133103Y-45900266D01*
X30148364Y-45735042D01*
X30196361Y-45570558D01*
X30277709Y-45411318D01*
X30393026Y-45261823D01*
X30427201Y-45226893D01*
X30562840Y-45120118D01*
X30710460Y-45046675D01*
X30865200Y-45005562D01*
X31022203Y-44995781D01*
X31176610Y-45016331D01*
X31323561Y-45066211D01*
X31458197Y-45144421D01*
X31575660Y-45249962D01*
X31671090Y-45381832D01*
X31739629Y-45539032D01*
X31761673Y-45624468D01*
X31774744Y-45763363D01*
X31778183Y-45799909D01*
X31758656Y-45973234D01*
G37*
G36*
X27950826Y-50423276D02*
G01*
X27939721Y-50466376D01*
X27938142Y-50485303D01*
X27929504Y-50501926D01*
X27926337Y-50501632D01*
X27893791Y-50490420D01*
X27845868Y-50467959D01*
X27795556Y-50441108D01*
X27755845Y-50416728D01*
X27739721Y-50401679D01*
X27738241Y-50395826D01*
X27720201Y-50381926D01*
X27859721Y-50381926D01*
X27860303Y-50386706D01*
X27879721Y-50401926D01*
X27884502Y-50401344D01*
X27899721Y-50381926D01*
X27899140Y-50377145D01*
X27879721Y-50361926D01*
X27874941Y-50362507D01*
X27859721Y-50381926D01*
X27720201Y-50381926D01*
X27712564Y-50376042D01*
X27666984Y-50361283D01*
X27617239Y-50355409D01*
X27579063Y-50362278D01*
X27578270Y-50362694D01*
X27532182Y-50376291D01*
X27473536Y-50381926D01*
X27432656Y-50379236D01*
X27405837Y-50362253D01*
X27392268Y-50319656D01*
X27372722Y-50274700D01*
X27320752Y-50206804D01*
X27235941Y-50119656D01*
X27092067Y-49981926D01*
X26975894Y-49981926D01*
X26973755Y-49981922D01*
X26907082Y-49977770D01*
X26867050Y-49967269D01*
X26858113Y-49952656D01*
X26884721Y-49936164D01*
X26889613Y-49934043D01*
X26900536Y-49913149D01*
X26879495Y-49882819D01*
X26831033Y-49847569D01*
X26759694Y-49811914D01*
X26718938Y-49793237D01*
X26662931Y-49757011D01*
X26639319Y-49720221D01*
X26633429Y-49700129D01*
X26611911Y-49672109D01*
X26578632Y-49679253D01*
X26530026Y-49721608D01*
X26517093Y-49734313D01*
X26472837Y-49768292D01*
X26438429Y-49781926D01*
X26432038Y-49781531D01*
X26394542Y-49765023D01*
X26369131Y-49734461D01*
X26368467Y-49703955D01*
X26369702Y-49700750D01*
X26375101Y-49665561D01*
X26380884Y-49600378D01*
X26386431Y-49513171D01*
X26391124Y-49411907D01*
X26401593Y-49139581D01*
X26492920Y-49005753D01*
X26504292Y-48989265D01*
X26549615Y-48926880D01*
X26587512Y-48879611D01*
X26610735Y-48856631D01*
X26620638Y-48852931D01*
X26666350Y-48847456D01*
X26726867Y-48848803D01*
X26751787Y-48850366D01*
X26805373Y-48849951D01*
X26835555Y-48844098D01*
X26845364Y-48833240D01*
X26869726Y-48793196D01*
X26897727Y-48736780D01*
X26940854Y-48641634D01*
X27025288Y-48654439D01*
X27043140Y-48657620D01*
X27102004Y-48674326D01*
X27141296Y-48694585D01*
X27162512Y-48709972D01*
X27209313Y-48719145D01*
X27249381Y-48689009D01*
X27251555Y-48686078D01*
X27270224Y-48669212D01*
X27294044Y-48673939D01*
X27335842Y-48702220D01*
X27361754Y-48723848D01*
X27394336Y-48771212D01*
X27410920Y-48840137D01*
X27413859Y-48858326D01*
X27429452Y-48927964D01*
X27451910Y-49008661D01*
X27477308Y-49087898D01*
X27501721Y-49153159D01*
X27521224Y-49191926D01*
X27522552Y-49194344D01*
X27529445Y-49228655D01*
X27534418Y-49289565D01*
X27536471Y-49365671D01*
X27536554Y-49376704D01*
X27539752Y-49454793D01*
X27546575Y-49518759D01*
X27555714Y-49555671D01*
X27558705Y-49562046D01*
X27574838Y-49610527D01*
X27588819Y-49671316D01*
X27589968Y-49677192D01*
X27607901Y-49736190D01*
X27635889Y-49801077D01*
X27668124Y-49860938D01*
X27698802Y-49904860D01*
X27722117Y-49921926D01*
X27738860Y-49910021D01*
X27758983Y-49873868D01*
X27784771Y-49825572D01*
X27813702Y-49815009D01*
X27849434Y-49841608D01*
X27871704Y-49879692D01*
X27874123Y-49946137D01*
X27871327Y-49990913D01*
X27876510Y-50062916D01*
X27889486Y-50136276D01*
X27907641Y-50197208D01*
X27928357Y-50231926D01*
X27949047Y-50254230D01*
X27977345Y-50297274D01*
X27980995Y-50304393D01*
X27990493Y-50345033D01*
X27972900Y-50381926D01*
X27970612Y-50386724D01*
X27950826Y-50423276D01*
G37*
G36*
X35868136Y-42903496D02*
G01*
X35869721Y-42921926D01*
X35865617Y-42927911D01*
X35848541Y-42941926D01*
X35846545Y-42941406D01*
X35839721Y-42921926D01*
X35840535Y-42916444D01*
X35860902Y-42901926D01*
X35868136Y-42903496D01*
G37*
G36*
X33023513Y-49104108D02*
G01*
X33039721Y-49121298D01*
X33035475Y-49129574D01*
X33009721Y-49129158D01*
X32995361Y-49122682D01*
X32979721Y-49109786D01*
X32983037Y-49106205D01*
X33009721Y-49101926D01*
X33023513Y-49104108D01*
G37*
G36*
X35979721Y-43171926D02*
G01*
X35969721Y-43181926D01*
X35959721Y-43171926D01*
X35969721Y-43161926D01*
X35979721Y-43171926D01*
G37*
G36*
X33230877Y-49222825D02*
G01*
X33249721Y-49241926D01*
X33253447Y-49249007D01*
X33252082Y-49261926D01*
X33248566Y-49261026D01*
X33229721Y-49241926D01*
X33225996Y-49234844D01*
X33227361Y-49221926D01*
X33230877Y-49222825D01*
G37*
G36*
X28202920Y-48618010D02*
G01*
X28202889Y-48673823D01*
X28205901Y-48760196D01*
X28212294Y-48822973D01*
X28221426Y-48853980D01*
X28231827Y-48877034D01*
X28219552Y-48922241D01*
X28213867Y-48942872D01*
X28209331Y-48994010D01*
X28208515Y-49060795D01*
X28210965Y-49132103D01*
X28216229Y-49196811D01*
X28223854Y-49243793D01*
X28233386Y-49261926D01*
X28246224Y-49257903D01*
X28280576Y-49241468D01*
X28296137Y-49235795D01*
X28342528Y-49238837D01*
X28382634Y-49262134D01*
X28399721Y-49297777D01*
X28399789Y-49299040D01*
X28418578Y-49323281D01*
X28460630Y-49345239D01*
X28464849Y-49346768D01*
X28502730Y-49367622D01*
X28514284Y-49388238D01*
X28517209Y-49412634D01*
X28545847Y-49457911D01*
X28603941Y-49524150D01*
X28621087Y-49544853D01*
X28627048Y-49573349D01*
X28609588Y-49615435D01*
X28598025Y-49639384D01*
X28593848Y-49666810D01*
X28611149Y-49693139D01*
X28654963Y-49731216D01*
X28661789Y-49736676D01*
X28728033Y-49776891D01*
X28786922Y-49791926D01*
X28826973Y-49798559D01*
X28867328Y-49831621D01*
X28885305Y-49857625D01*
X28925056Y-49897990D01*
X28944950Y-49917323D01*
X28951830Y-49938515D01*
X28953097Y-49956634D01*
X28972138Y-49991848D01*
X28989195Y-50014124D01*
X29002231Y-50018528D01*
X29012059Y-49989065D01*
X29015078Y-49979490D01*
X29049580Y-49935610D01*
X29103560Y-49919393D01*
X29165626Y-49934859D01*
X29188343Y-49949569D01*
X29216810Y-49994190D01*
X29207635Y-50050551D01*
X29160849Y-50117468D01*
X29139677Y-50139591D01*
X29102931Y-50167218D01*
X29058791Y-50179276D01*
X28991018Y-50181926D01*
X28984181Y-50181909D01*
X28917802Y-50178330D01*
X28878623Y-50166137D01*
X28855080Y-50141926D01*
X28834526Y-50117183D01*
X28806445Y-50101926D01*
X28801607Y-50101209D01*
X28767451Y-50084255D01*
X28723248Y-50051824D01*
X28718401Y-50047872D01*
X28658975Y-50011022D01*
X28599048Y-49988791D01*
X28551726Y-49970740D01*
X28524723Y-49938892D01*
X28511709Y-49917267D01*
X28471499Y-49901926D01*
X28458802Y-49899958D01*
X28411157Y-49869223D01*
X28351680Y-49801926D01*
X28340761Y-49787651D01*
X28300708Y-49738967D01*
X28267931Y-49713420D01*
X28228897Y-49703557D01*
X28170070Y-49701926D01*
X28115905Y-49701042D01*
X28079286Y-49694292D01*
X28061804Y-49675642D01*
X28052149Y-49639062D01*
X28049434Y-49587611D01*
X28061248Y-49550086D01*
X28062146Y-49548981D01*
X28076698Y-49521919D01*
X28087592Y-49479019D01*
X28095230Y-49415456D01*
X28100012Y-49326404D01*
X28102340Y-49207037D01*
X28102615Y-49052530D01*
X28102612Y-49051415D01*
X28104884Y-48978679D01*
X28111187Y-48921216D01*
X28120177Y-48891377D01*
X28128629Y-48865952D01*
X28133545Y-48812305D01*
X28133673Y-48745371D01*
X28129476Y-48678447D01*
X28121416Y-48624825D01*
X28109957Y-48597800D01*
X28090570Y-48599646D01*
X28065666Y-48627800D01*
X28041139Y-48671926D01*
X28040430Y-48626926D01*
X28035132Y-48598883D01*
X28017582Y-48581926D01*
X28008112Y-48585612D01*
X28006319Y-48610270D01*
X28005831Y-48632017D01*
X27975993Y-48653805D01*
X27918086Y-48661926D01*
X27890072Y-48655579D01*
X27881070Y-48633228D01*
X27900133Y-48602785D01*
X27944721Y-48572756D01*
X27948140Y-48571071D01*
X27998837Y-48534974D01*
X28032532Y-48492470D01*
X28040980Y-48472595D01*
X28042735Y-48445506D01*
X28018836Y-48431926D01*
X28159721Y-48431926D01*
X28169721Y-48441926D01*
X28179721Y-48431926D01*
X28169721Y-48421926D01*
X28159721Y-48431926D01*
X28018836Y-48431926D01*
X28017711Y-48431287D01*
X27978907Y-48427169D01*
X27951223Y-48439469D01*
X27950576Y-48463307D01*
X27953421Y-48469671D01*
X27944112Y-48481926D01*
X27925180Y-48467534D01*
X27902433Y-48429890D01*
X27892694Y-48410279D01*
X27873283Y-48390999D01*
X27849054Y-48402480D01*
X27811488Y-48416783D01*
X27751912Y-48416155D01*
X27746836Y-48415393D01*
X27696566Y-48414210D01*
X27665460Y-48424187D01*
X27662602Y-48426526D01*
X27651426Y-48417114D01*
X27648834Y-48372198D01*
X27662884Y-48307769D01*
X27710455Y-48242005D01*
X27769721Y-48182783D01*
X27869721Y-48212954D01*
X27903373Y-48222487D01*
X27974549Y-48239383D01*
X28029721Y-48248458D01*
X28057437Y-48252293D01*
X28082182Y-48268078D01*
X28084391Y-48305135D01*
X28089174Y-48347425D01*
X28108959Y-48382106D01*
X28135123Y-48397266D01*
X28158746Y-48383504D01*
X28168995Y-48370713D01*
X28185224Y-48374324D01*
X28196240Y-48416493D01*
X28197358Y-48431926D01*
X28202115Y-48497597D01*
X28202920Y-48618010D01*
G37*
G36*
X27964663Y-43011497D02*
G01*
X28008037Y-43046926D01*
X28017145Y-43068007D01*
X28035966Y-43125385D01*
X28061194Y-43211308D01*
X28091183Y-43319933D01*
X28124286Y-43445420D01*
X28158856Y-43581926D01*
X28185640Y-43689229D01*
X28217935Y-43816868D01*
X28246702Y-43928650D01*
X28270444Y-44018827D01*
X28287662Y-44081651D01*
X28296857Y-44111373D01*
X28308351Y-44134345D01*
X28320854Y-44132642D01*
X28341498Y-44097858D01*
X28366118Y-44054954D01*
X28406375Y-43988778D01*
X28456507Y-43908527D01*
X28511372Y-43822222D01*
X28565830Y-43737887D01*
X28614737Y-43663544D01*
X28652954Y-43607216D01*
X28675339Y-43576926D01*
X28688744Y-43564477D01*
X28741781Y-43545300D01*
X28802690Y-43552526D01*
X28860179Y-43581236D01*
X28902954Y-43626506D01*
X28919721Y-43683418D01*
X28910368Y-43707257D01*
X28882579Y-43760779D01*
X28839205Y-43838876D01*
X28783112Y-43936782D01*
X28717168Y-44049731D01*
X28644241Y-44172958D01*
X28567197Y-44301698D01*
X28488905Y-44431185D01*
X28412231Y-44556654D01*
X28340042Y-44673338D01*
X28275206Y-44776473D01*
X28220590Y-44861293D01*
X28179061Y-44923032D01*
X28153487Y-44956926D01*
X28128103Y-44979071D01*
X28063852Y-45002277D01*
X27997268Y-44992174D01*
X27941173Y-44949228D01*
X27940311Y-44948124D01*
X27911615Y-44900506D01*
X27899721Y-44859461D01*
X27904812Y-44840182D01*
X27927525Y-44790228D01*
X27964272Y-44721931D01*
X28010461Y-44644214D01*
X28121201Y-44466036D01*
X28087707Y-44328981D01*
X28086891Y-44325656D01*
X28068579Y-44256086D01*
X28052356Y-44202983D01*
X28041647Y-44177606D01*
X28035514Y-44177215D01*
X27997932Y-44186432D01*
X27931280Y-44207589D01*
X27841028Y-44238822D01*
X27732643Y-44278270D01*
X27611595Y-44324070D01*
X27584851Y-44334357D01*
X27442708Y-44388245D01*
X27332153Y-44427816D01*
X27248505Y-44453751D01*
X27187085Y-44466727D01*
X27143213Y-44467424D01*
X27112209Y-44456521D01*
X27089393Y-44434696D01*
X27070085Y-44402629D01*
X27062232Y-44386830D01*
X27045238Y-44341164D01*
X27043264Y-44301120D01*
X27059576Y-44264059D01*
X27097440Y-44227343D01*
X27160121Y-44188331D01*
X27250885Y-44144385D01*
X27372996Y-44092865D01*
X27529721Y-44031132D01*
X27572583Y-44014509D01*
X27687810Y-43969319D01*
X27788507Y-43929108D01*
X27868964Y-43896200D01*
X27923473Y-43872918D01*
X27946325Y-43861585D01*
X27947272Y-43843468D01*
X27939389Y-43792146D01*
X27923192Y-43714429D01*
X27900048Y-43616801D01*
X27871325Y-43505746D01*
X27846884Y-43412944D01*
X27820099Y-43306413D01*
X27798822Y-43216227D01*
X27784785Y-43149784D01*
X27779721Y-43114483D01*
X27780420Y-43103159D01*
X27803463Y-43052525D01*
X27850061Y-43017941D01*
X27907900Y-43003050D01*
X27964663Y-43011497D01*
G37*
G36*
X28985982Y-51209295D02*
G01*
X28999721Y-51238592D01*
X28997842Y-51259182D01*
X28986388Y-51288592D01*
X28967080Y-51296975D01*
X28924248Y-51301926D01*
X28921523Y-51301910D01*
X28888492Y-51294542D01*
X28887582Y-51270290D01*
X28893124Y-51253807D01*
X28899721Y-51220290D01*
X28912127Y-51208215D01*
X28949721Y-51201926D01*
X28985982Y-51209295D01*
G37*
G36*
X27839721Y-49731926D02*
G01*
X27829721Y-49741926D01*
X27819721Y-49731926D01*
X27829721Y-49721926D01*
X27839721Y-49731926D01*
G37*
G36*
X26193055Y-44288592D02*
G01*
X26196184Y-44294608D01*
X26179721Y-44301926D01*
X26169134Y-44300482D01*
X26166388Y-44288592D01*
X26169320Y-44286199D01*
X26193055Y-44288592D01*
G37*
G36*
X36139721Y-48291926D02*
G01*
X36129721Y-48301926D01*
X36119721Y-48291926D01*
X36129721Y-48281926D01*
X36139721Y-48291926D01*
G37*
G36*
X33699721Y-49481926D02*
G01*
X33698278Y-49492513D01*
X33686388Y-49495259D01*
X33683995Y-49492327D01*
X33686388Y-49468592D01*
X33692404Y-49465463D01*
X33699721Y-49481926D01*
G37*
G36*
X33619721Y-49431926D02*
G01*
X33609721Y-49441926D01*
X33599721Y-49431926D01*
X33609721Y-49421926D01*
X33619721Y-49431926D01*
G37*
G36*
X37115612Y-48364353D02*
G01*
X37127550Y-48398864D01*
X37138366Y-48445250D01*
X37144911Y-48494373D01*
X37147305Y-48517925D01*
X37158332Y-48551117D01*
X37184628Y-48570599D01*
X37234436Y-48580790D01*
X37315998Y-48586111D01*
X37356496Y-48589609D01*
X37412467Y-48600986D01*
X37443375Y-48616327D01*
X37467213Y-48637144D01*
X37490633Y-48637108D01*
X37495598Y-48606926D01*
X37501896Y-48580176D01*
X37538925Y-48571926D01*
X37541598Y-48571968D01*
X37588195Y-48589460D01*
X37632617Y-48641926D01*
X37640174Y-48653641D01*
X37676808Y-48706755D01*
X37706977Y-48745489D01*
X37708601Y-48747438D01*
X37720217Y-48771892D01*
X37729112Y-48815118D01*
X37735838Y-48882422D01*
X37740947Y-48979110D01*
X37744993Y-49110489D01*
X37746484Y-49192223D01*
X37746710Y-49291611D01*
X37744997Y-49370738D01*
X37741513Y-49423033D01*
X37736430Y-49441926D01*
X37732514Y-49441367D01*
X37719721Y-49421926D01*
X37702517Y-49407826D01*
X37660902Y-49401926D01*
X37616526Y-49395855D01*
X37588611Y-49380129D01*
X37561347Y-49367881D01*
X37509507Y-49370646D01*
X37449428Y-49372652D01*
X37393072Y-49359813D01*
X37379673Y-49354225D01*
X37327374Y-49345193D01*
X37296806Y-49362352D01*
X37294203Y-49402982D01*
X37298161Y-49417062D01*
X37308630Y-49433304D01*
X37323644Y-49414206D01*
X37347474Y-49392516D01*
X37381040Y-49382508D01*
X37408560Y-49386695D01*
X37414905Y-49406374D01*
X37414829Y-49406600D01*
X37386716Y-49432393D01*
X37328007Y-49451145D01*
X37247821Y-49459932D01*
X37197189Y-49471435D01*
X37149294Y-49502398D01*
X37142765Y-49509403D01*
X37115006Y-49529269D01*
X37096222Y-49517398D01*
X37093810Y-49514186D01*
X37088002Y-49520301D01*
X37092249Y-49556926D01*
X37094957Y-49573342D01*
X37092287Y-49612715D01*
X37067212Y-49620968D01*
X37016259Y-49600073D01*
X37010958Y-49597361D01*
X36971701Y-49590058D01*
X36947604Y-49616330D01*
X36936025Y-49678772D01*
X36935679Y-49682939D01*
X36927439Y-49729920D01*
X36915351Y-49754626D01*
X36906936Y-49765865D01*
X36899721Y-49802402D01*
X36891727Y-49829466D01*
X36859689Y-49861943D01*
X36856466Y-49863828D01*
X36821391Y-49899163D01*
X36791555Y-49950621D01*
X36780063Y-49973855D01*
X36740240Y-50035001D01*
X36691744Y-50093902D01*
X36683820Y-50102620D01*
X36640100Y-50164418D01*
X36611040Y-50228904D01*
X36600468Y-50285093D01*
X36612215Y-50321998D01*
X36632477Y-50331608D01*
X36683045Y-50345572D01*
X36749721Y-50358647D01*
X36782996Y-50364227D01*
X36813823Y-50370541D01*
X36816995Y-50374466D01*
X36789425Y-50376461D01*
X36728029Y-50376986D01*
X36629721Y-50376500D01*
X36585438Y-50376474D01*
X36442435Y-50381942D01*
X36333419Y-50396779D01*
X36254344Y-50421751D01*
X36201167Y-50457623D01*
X36178629Y-50473730D01*
X36164609Y-50465570D01*
X36167422Y-50431877D01*
X36188136Y-50379095D01*
X36204702Y-50345394D01*
X36216970Y-50313708D01*
X36210447Y-50303522D01*
X36184721Y-50306049D01*
X36181392Y-50306520D01*
X36161090Y-50300898D01*
X36149704Y-50272445D01*
X36143449Y-50212588D01*
X36142816Y-50167217D01*
X36156501Y-50106370D01*
X36191459Y-50077181D01*
X36249745Y-50077035D01*
X36283005Y-50078322D01*
X36299721Y-50063113D01*
X36296602Y-50033940D01*
X36284882Y-49977663D01*
X36268295Y-49915322D01*
X36250963Y-49862037D01*
X36237002Y-49832926D01*
X36225809Y-49816327D01*
X36223009Y-49776522D01*
X36250682Y-49748789D01*
X36272912Y-49747928D01*
X36306210Y-49770506D01*
X36324786Y-49787673D01*
X36365825Y-49790653D01*
X36381800Y-49778927D01*
X36413655Y-49736899D01*
X36445476Y-49679035D01*
X36469940Y-49619393D01*
X36479721Y-49572030D01*
X36487372Y-49535269D01*
X36507782Y-49485677D01*
X36522973Y-49447223D01*
X36542663Y-49378662D01*
X36559451Y-49301670D01*
X36572429Y-49236793D01*
X36587882Y-49172121D01*
X36600518Y-49131926D01*
X36602473Y-49126855D01*
X36614227Y-49081949D01*
X36627863Y-49012725D01*
X36640815Y-48931926D01*
X36643798Y-48911810D01*
X36656968Y-48836869D01*
X36670217Y-48779436D01*
X36681080Y-48750608D01*
X36689900Y-48729766D01*
X36701898Y-48677928D01*
X36711852Y-48610608D01*
X36712490Y-48604999D01*
X36726623Y-48511783D01*
X36743915Y-48455761D01*
X36765658Y-48434300D01*
X36793143Y-48444765D01*
X36802519Y-48451383D01*
X36853825Y-48469017D01*
X36914686Y-48472332D01*
X36969282Y-48461839D01*
X37001797Y-48438047D01*
X37019184Y-48417995D01*
X37060425Y-48401926D01*
X37083342Y-48396447D01*
X37100989Y-48366926D01*
X37105703Y-48350855D01*
X37115612Y-48364353D01*
G37*
G36*
X26479721Y-47921926D02*
G01*
X26478278Y-47932513D01*
X26466388Y-47935259D01*
X26463995Y-47932327D01*
X26466388Y-47908592D01*
X26472404Y-47905463D01*
X26479721Y-47921926D01*
G37*
G36*
X32849421Y-47129729D02*
G01*
X32765922Y-47263766D01*
X32689232Y-47385068D01*
X32622127Y-47489337D01*
X32567381Y-47572270D01*
X32527768Y-47629566D01*
X32506063Y-47656926D01*
X32505036Y-47657870D01*
X32461022Y-47689017D01*
X32422901Y-47701926D01*
X32397257Y-47693170D01*
X32343204Y-47665820D01*
X32268320Y-47623799D01*
X32179068Y-47571118D01*
X32081914Y-47511786D01*
X31983322Y-47449817D01*
X31889757Y-47389220D01*
X31807683Y-47334008D01*
X31743565Y-47288191D01*
X31703868Y-47255780D01*
X31677186Y-47226463D01*
X31627880Y-47158760D01*
X31586231Y-47086582D01*
X31561447Y-47026339D01*
X31548320Y-46949621D01*
X31863588Y-46949621D01*
X31883190Y-47031550D01*
X31895314Y-47049108D01*
X31941921Y-47092727D01*
X32016124Y-47148523D01*
X32112845Y-47212491D01*
X32114956Y-47213815D01*
X32195777Y-47263611D01*
X32264605Y-47304340D01*
X32314210Y-47331834D01*
X32337360Y-47341926D01*
X32348641Y-47332112D01*
X32377093Y-47295362D01*
X32416195Y-47239320D01*
X32460466Y-47172469D01*
X32504428Y-47103296D01*
X32542601Y-47040285D01*
X32569506Y-46991922D01*
X32579664Y-46966692D01*
X32578050Y-46963037D01*
X32552341Y-46940584D01*
X32501369Y-46905649D01*
X32432981Y-46862802D01*
X32355024Y-46816614D01*
X32275345Y-46771656D01*
X32201791Y-46732498D01*
X32142208Y-46703713D01*
X32104444Y-46689870D01*
X32099499Y-46688962D01*
X32025131Y-46694457D01*
X31959155Y-46731302D01*
X31906772Y-46791466D01*
X31873183Y-46866916D01*
X31863588Y-46949621D01*
X31548320Y-46949621D01*
X31544455Y-46927032D01*
X31559548Y-46823668D01*
X31607234Y-46707049D01*
X31682643Y-46587854D01*
X31772439Y-46503081D01*
X31877877Y-46453469D01*
X32001452Y-46437310D01*
X32093421Y-46437310D01*
X32067449Y-46364618D01*
X32065611Y-46358851D01*
X32305073Y-46358851D01*
X32313820Y-46411933D01*
X32349875Y-46464682D01*
X32416589Y-46521978D01*
X32517309Y-46588699D01*
X32566363Y-46618833D01*
X32635153Y-46661006D01*
X32686928Y-46692643D01*
X32713165Y-46708528D01*
X32731117Y-46698860D01*
X32763314Y-46663443D01*
X32803392Y-46611064D01*
X32845189Y-46550638D01*
X32882544Y-46491082D01*
X32909295Y-46441313D01*
X32919282Y-46410247D01*
X32902588Y-46391455D01*
X32858519Y-46359505D01*
X32795452Y-46319235D01*
X32721759Y-46275469D01*
X32645817Y-46233030D01*
X32575998Y-46196744D01*
X32520678Y-46171434D01*
X32488231Y-46161926D01*
X32476412Y-46162764D01*
X32416910Y-46186847D01*
X32360587Y-46236474D01*
X32320002Y-46301248D01*
X32305073Y-46358851D01*
X32065611Y-46358851D01*
X32053683Y-46321435D01*
X32042732Y-46245995D01*
X32055174Y-46172158D01*
X32092423Y-46084021D01*
X32104025Y-46061971D01*
X32180538Y-45958331D01*
X32275022Y-45887255D01*
X32383333Y-45851093D01*
X32501324Y-45852196D01*
X32515408Y-45856158D01*
X32567630Y-45878495D01*
X32643457Y-45916303D01*
X32735860Y-45965565D01*
X32837809Y-46022266D01*
X32942275Y-46082392D01*
X33042228Y-46141927D01*
X33130640Y-46196856D01*
X33200481Y-46243163D01*
X33244721Y-46276834D01*
X33262075Y-46294945D01*
X33274717Y-46318416D01*
X33278168Y-46348097D01*
X33270907Y-46387439D01*
X33262431Y-46410247D01*
X33251413Y-46439893D01*
X33218163Y-46508910D01*
X33169636Y-46597940D01*
X33104311Y-46710435D01*
X33020666Y-46849845D01*
X32949442Y-46966692D01*
X32917178Y-47019622D01*
X32849421Y-47129729D01*
G37*
G36*
X35039721Y-49411926D02*
G01*
X35029721Y-49421926D01*
X35019721Y-49411926D01*
X35029721Y-49401926D01*
X35039721Y-49411926D01*
G37*
G36*
X35883471Y-50248263D02*
G01*
X35892729Y-50255462D01*
X35871388Y-50260347D01*
X35851103Y-50258932D01*
X35845138Y-50249842D01*
X35852214Y-50245879D01*
X35883471Y-50248263D01*
G37*
G36*
X35826495Y-42980384D02*
G01*
X35826708Y-43012566D01*
X35816100Y-43034522D01*
X35804163Y-43036782D01*
X35799721Y-43000745D01*
X35803777Y-42977970D01*
X35818848Y-42971386D01*
X35826495Y-42980384D01*
G37*
G36*
X35983677Y-50365981D02*
G01*
X35990261Y-50381052D01*
X35981263Y-50388699D01*
X35949081Y-50388912D01*
X35927125Y-50378304D01*
X35924865Y-50366367D01*
X35960902Y-50361926D01*
X35983677Y-50365981D01*
G37*
G36*
X27578410Y-48406404D02*
G01*
X27606649Y-48420323D01*
X27609809Y-48441784D01*
X27590259Y-48455139D01*
X27552232Y-48461417D01*
X27515917Y-48456776D01*
X27499721Y-48441298D01*
X27503220Y-48430317D01*
X27529721Y-48409158D01*
X27539983Y-48406094D01*
X27578410Y-48406404D01*
G37*
G36*
X34819721Y-49621926D02*
G01*
X34818278Y-49632513D01*
X34806388Y-49635259D01*
X34803995Y-49632327D01*
X34806388Y-49608592D01*
X34812404Y-49605463D01*
X34819721Y-49621926D01*
G37*
G36*
X30259721Y-46751926D02*
G01*
X30249721Y-46761926D01*
X30239721Y-46751926D01*
X30249721Y-46741926D01*
X30259721Y-46751926D01*
G37*
G36*
X36070192Y-48745730D02*
G01*
X36073489Y-48758641D01*
X36065783Y-48794063D01*
X36059742Y-48809002D01*
X36050596Y-48820637D01*
X36043544Y-48795360D01*
X36041972Y-48768448D01*
X36051853Y-48743292D01*
X36070192Y-48745730D01*
G37*
G36*
X35449519Y-50035500D02*
G01*
X35438327Y-50076791D01*
X35414175Y-50138393D01*
X35381210Y-50211315D01*
X35343581Y-50286571D01*
X35305436Y-50355171D01*
X35270923Y-50408128D01*
X35235390Y-50457348D01*
X35202156Y-50506655D01*
X35185484Y-50535757D01*
X35173214Y-50556239D01*
X35150669Y-50555113D01*
X35124879Y-50515259D01*
X35109413Y-50488903D01*
X35078542Y-50468863D01*
X35051383Y-50485347D01*
X35035382Y-50536582D01*
X35032634Y-50573479D01*
X35039894Y-50595635D01*
X35063845Y-50595052D01*
X35093818Y-50600061D01*
X35125764Y-50629577D01*
X35139721Y-50670611D01*
X35137900Y-50677065D01*
X35117056Y-50682925D01*
X35087327Y-50672984D01*
X35066954Y-50651926D01*
X35059232Y-50637893D01*
X35035442Y-50621926D01*
X35026834Y-50626188D01*
X35026954Y-50651926D01*
X35024967Y-50671536D01*
X34991887Y-50685216D01*
X34928267Y-50684233D01*
X34926277Y-50684206D01*
X34897350Y-50698595D01*
X34859780Y-50731863D01*
X34852907Y-50739451D01*
X34831898Y-50769676D01*
X34834807Y-50781926D01*
X34840329Y-50782208D01*
X34881151Y-50803522D01*
X34906912Y-50848882D01*
X34909178Y-50904400D01*
X34905615Y-50944992D01*
X34916952Y-50961926D01*
X34938565Y-50954115D01*
X34959557Y-50913043D01*
X34967888Y-50835371D01*
X34968696Y-50819683D01*
X34978226Y-50770616D01*
X34994711Y-50746922D01*
X35004087Y-50745998D01*
X35026960Y-50762863D01*
X35036954Y-50793635D01*
X35025729Y-50818944D01*
X35023643Y-50820638D01*
X35007383Y-50851552D01*
X34994690Y-50901926D01*
X34993918Y-50906709D01*
X34984345Y-50961840D01*
X34976597Y-51000155D01*
X34983313Y-51021643D01*
X35019306Y-51040959D01*
X35026211Y-51042966D01*
X35064596Y-51070743D01*
X35090040Y-51128912D01*
X35107925Y-51176175D01*
X35145830Y-51226041D01*
X35189538Y-51242997D01*
X35232567Y-51225480D01*
X35268433Y-51171926D01*
X35273780Y-51159803D01*
X35297348Y-51118574D01*
X35316368Y-51101926D01*
X35329253Y-51094358D01*
X35345516Y-51061926D01*
X35353650Y-51044909D01*
X35379877Y-51024928D01*
X35407140Y-51023614D01*
X35419721Y-51044632D01*
X35419779Y-51046025D01*
X35436539Y-51078116D01*
X35473517Y-51116403D01*
X35516706Y-51148477D01*
X35552100Y-51161926D01*
X35571035Y-51154566D01*
X35569721Y-51121926D01*
X35569209Y-51120282D01*
X35568481Y-51089906D01*
X35598374Y-51081926D01*
X35622886Y-51085192D01*
X35639721Y-51098592D01*
X35643081Y-51106233D01*
X35669721Y-51115259D01*
X35682726Y-51114994D01*
X35696819Y-51109084D01*
X35692336Y-51087712D01*
X35669208Y-51040932D01*
X35652697Y-50996640D01*
X35665300Y-50977960D01*
X35709721Y-50981660D01*
X35714970Y-50982794D01*
X35754143Y-50990116D01*
X35761127Y-50991675D01*
X35792476Y-51008013D01*
X35794547Y-51010000D01*
X35833355Y-51024724D01*
X35870156Y-51006935D01*
X35892657Y-50962250D01*
X35893205Y-50959607D01*
X35906681Y-50922585D01*
X35922157Y-50913430D01*
X35932206Y-50913172D01*
X35940285Y-50888106D01*
X35949279Y-50844556D01*
X35973592Y-50787280D01*
X36006106Y-50731280D01*
X36039688Y-50688716D01*
X36067204Y-50671751D01*
X36086079Y-50667932D01*
X36120253Y-50641751D01*
X36129702Y-50634738D01*
X36136960Y-50657741D01*
X36139415Y-50718398D01*
X36139721Y-50824871D01*
X35908601Y-51048398D01*
X35677481Y-51271926D01*
X35309841Y-51278872D01*
X35197360Y-51280356D01*
X35091834Y-51280439D01*
X35006094Y-51279112D01*
X34946874Y-51276483D01*
X34920907Y-51272658D01*
X34910087Y-51257985D01*
X34920513Y-51220447D01*
X34921561Y-51218449D01*
X34931379Y-51178974D01*
X34914908Y-51141531D01*
X34868260Y-51101230D01*
X34787547Y-51053183D01*
X34729174Y-51017472D01*
X34683077Y-50980873D01*
X34662845Y-50953374D01*
X34661313Y-50944417D01*
X34665364Y-50845399D01*
X34703974Y-50734008D01*
X34775699Y-50614578D01*
X34816266Y-50561382D01*
X34888753Y-50486348D01*
X34963147Y-50439387D01*
X35048455Y-50413871D01*
X35093116Y-50401259D01*
X35126990Y-50382657D01*
X35136528Y-50375107D01*
X35176517Y-50361926D01*
X35203070Y-50353755D01*
X35233455Y-50324358D01*
X35270584Y-50268442D01*
X35318594Y-50180729D01*
X35353792Y-50118572D01*
X35394046Y-50060609D01*
X35427124Y-50027152D01*
X35448164Y-50024075D01*
X35449519Y-50035500D01*
G37*
G36*
X30559721Y-46951926D02*
G01*
X30549721Y-46961926D01*
X30539721Y-46951926D01*
X30549721Y-46941926D01*
X30559721Y-46951926D01*
G37*
G36*
X28639721Y-49451926D02*
G01*
X28629721Y-49461926D01*
X28619721Y-49451926D01*
X28629721Y-49441926D01*
X28639721Y-49451926D01*
G37*
G36*
X33324346Y-49262694D02*
G01*
X33339721Y-49281926D01*
X33339492Y-49286452D01*
X33330902Y-49301926D01*
X33327694Y-49301005D01*
X33309721Y-49281926D01*
X33306596Y-49274178D01*
X33318541Y-49261926D01*
X33324346Y-49262694D01*
G37*
G36*
X38240289Y-42814950D02*
G01*
X38247738Y-42830215D01*
X38275808Y-42868555D01*
X38317496Y-42918021D01*
X38346916Y-42951849D01*
X38388824Y-43006907D01*
X38421043Y-43064307D01*
X38454512Y-43141926D01*
X38455335Y-43143953D01*
X38456418Y-43146620D01*
X38480935Y-43203393D01*
X38489469Y-43221926D01*
X38510938Y-43268553D01*
X38517394Y-43281926D01*
X38541014Y-43330857D01*
X38565746Y-43379062D01*
X38571701Y-43388805D01*
X38579721Y-43401926D01*
X38581131Y-43403572D01*
X38597327Y-43431543D01*
X38597521Y-43431926D01*
X38623124Y-43482489D01*
X38652935Y-43544784D01*
X38681174Y-43606804D01*
X38702255Y-43656926D01*
X38714878Y-43689447D01*
X38737188Y-43746926D01*
X38775019Y-43836220D01*
X38874883Y-44019328D01*
X39006455Y-44201926D01*
X39015572Y-44213977D01*
X39046449Y-44257065D01*
X39090050Y-44319387D01*
X39140035Y-44391926D01*
X39167479Y-44431333D01*
X39216658Y-44498548D01*
X39257359Y-44549963D01*
X39282798Y-44576792D01*
X39297485Y-44592806D01*
X39329101Y-44638513D01*
X39367922Y-44701784D01*
X39368003Y-44701926D01*
X39408170Y-44772383D01*
X39444070Y-44840073D01*
X39469846Y-44894618D01*
X39479721Y-44925782D01*
X39485075Y-44939520D01*
X39508094Y-44979048D01*
X39509392Y-44981046D01*
X39542507Y-45032020D01*
X39580882Y-45087467D01*
X39615785Y-45134424D01*
X39639783Y-45161926D01*
X39657741Y-45179690D01*
X39700671Y-45229012D01*
X39754527Y-45296138D01*
X39814177Y-45374064D01*
X39874488Y-45455785D01*
X39930330Y-45534296D01*
X39976571Y-45602594D01*
X40008079Y-45653673D01*
X40019721Y-45680529D01*
X40020525Y-45686524D01*
X40039721Y-45701926D01*
X40048922Y-45705310D01*
X40059721Y-45731926D01*
X40061978Y-45745726D01*
X40079721Y-45761926D01*
X40093595Y-45777811D01*
X40099722Y-45818381D01*
X40105000Y-45848592D01*
X40107122Y-45860739D01*
X40128787Y-45926703D01*
X40129599Y-45928592D01*
X40139625Y-45951926D01*
X40159722Y-45998700D01*
X40189130Y-46064784D01*
X40211260Y-46125458D01*
X40219722Y-46164157D01*
X40230207Y-46208245D01*
X40256580Y-46258838D01*
X40290080Y-46314039D01*
X40321462Y-46376926D01*
X40325075Y-46385032D01*
X40347479Y-46425464D01*
X40364604Y-46441926D01*
X40373202Y-46448863D01*
X40379721Y-46480745D01*
X40382920Y-46503716D01*
X40399721Y-46531926D01*
X40408396Y-46549000D01*
X40416566Y-46596752D01*
X40419721Y-46661925D01*
X40421513Y-46714195D01*
X40428005Y-46766168D01*
X40437609Y-46790620D01*
X40438951Y-46791585D01*
X40452859Y-46819118D01*
X40466144Y-46879692D01*
X40479204Y-46975626D01*
X40492439Y-47109237D01*
X40495150Y-47141019D01*
X40498293Y-47202332D01*
X40493290Y-47240494D01*
X40477207Y-47267570D01*
X40447109Y-47295627D01*
X40445976Y-47296597D01*
X40391197Y-47343853D01*
X40339721Y-47388831D01*
X40293843Y-47427283D01*
X40247928Y-47462442D01*
X40239650Y-47469147D01*
X40201743Y-47506862D01*
X40146640Y-47567389D01*
X40079897Y-47644365D01*
X40007072Y-47731425D01*
X39933725Y-47822205D01*
X39914381Y-47848038D01*
X39891686Y-47885448D01*
X39873561Y-47928590D01*
X39859271Y-47982359D01*
X39848080Y-48051649D01*
X39839252Y-48141356D01*
X39832053Y-48256375D01*
X39825748Y-48401600D01*
X39819600Y-48581926D01*
X39811739Y-48794504D01*
X39801918Y-48981408D01*
X39789863Y-49136430D01*
X39774972Y-49263708D01*
X39756645Y-49367382D01*
X39734281Y-49451594D01*
X39707278Y-49520483D01*
X39675038Y-49578190D01*
X39656115Y-49608989D01*
X39616069Y-49682065D01*
X39579652Y-49756926D01*
X39557865Y-49801801D01*
X39532135Y-49845162D01*
X39515253Y-49861926D01*
X39509023Y-49863837D01*
X39474495Y-49882321D01*
X39419273Y-49916243D01*
X39351958Y-49960417D01*
X39339108Y-49968932D01*
X39251281Y-50021241D01*
X39159580Y-50067887D01*
X39081901Y-50099647D01*
X39024779Y-50121014D01*
X38938409Y-50160702D01*
X38867759Y-50201156D01*
X38829479Y-50225090D01*
X38759582Y-50253894D01*
X38682461Y-50261926D01*
X38617077Y-50269287D01*
X38555370Y-50298666D01*
X38536543Y-50317938D01*
X38499549Y-50355806D01*
X38442282Y-50446340D01*
X38413723Y-50501226D01*
X38401863Y-50530434D01*
X38369281Y-50610678D01*
X38356583Y-50661926D01*
X38346995Y-50700623D01*
X38340274Y-50727752D01*
X38324491Y-50862912D01*
X38319721Y-51026626D01*
X38319721Y-51284720D01*
X38054721Y-51280393D01*
X38035503Y-51280057D01*
X37936893Y-51277587D01*
X37853353Y-51274305D01*
X37793193Y-51270599D01*
X37764721Y-51266857D01*
X37762438Y-51265909D01*
X37743238Y-51243640D01*
X37741821Y-51215674D01*
X37759721Y-51201926D01*
X37762096Y-51201439D01*
X37774618Y-51178903D01*
X37779721Y-51133106D01*
X37779799Y-51126986D01*
X37786196Y-51078520D01*
X37799721Y-51051926D01*
X37812172Y-51033806D01*
X37819721Y-50991926D01*
X37815345Y-50959564D01*
X37799721Y-50931926D01*
X37796134Y-50928448D01*
X37784439Y-50894783D01*
X37779721Y-50841926D01*
X37779397Y-50827798D01*
X37772587Y-50778189D01*
X37759721Y-50751926D01*
X37747096Y-50733093D01*
X37739721Y-50690745D01*
X37735823Y-50663228D01*
X37784625Y-50663228D01*
X37789721Y-50681926D01*
X37793830Y-50687846D01*
X37812082Y-50701926D01*
X37814818Y-50700623D01*
X37809721Y-50681926D01*
X37805613Y-50676005D01*
X37787361Y-50661926D01*
X37839721Y-50661926D01*
X37840535Y-50667407D01*
X37860902Y-50681926D01*
X37868136Y-50680355D01*
X37869721Y-50661926D01*
X37865617Y-50655940D01*
X37848541Y-50641926D01*
X37846545Y-50642445D01*
X37839721Y-50661926D01*
X37787361Y-50661926D01*
X37784625Y-50663228D01*
X37735823Y-50663228D01*
X37735226Y-50659013D01*
X37721113Y-50641926D01*
X37708139Y-50632093D01*
X37696113Y-50596926D01*
X37687153Y-50570481D01*
X37642488Y-50525728D01*
X37634497Y-50522155D01*
X37749863Y-50522155D01*
X37753781Y-50527400D01*
X37780902Y-50541926D01*
X37792118Y-50540869D01*
X37796834Y-50530434D01*
X37768683Y-50514294D01*
X37753082Y-50510789D01*
X37749863Y-50522155D01*
X37634497Y-50522155D01*
X37565942Y-50491500D01*
X37462379Y-50469624D01*
X37336664Y-50461926D01*
X37302925Y-50461553D01*
X37228426Y-50457816D01*
X37174047Y-50450919D01*
X37149721Y-50441926D01*
X37134187Y-50433361D01*
X37087645Y-50423991D01*
X37023541Y-50419297D01*
X36909721Y-50416668D01*
X37049721Y-50397940D01*
X37125343Y-50388932D01*
X37195815Y-50382578D01*
X37242332Y-50380704D01*
X37255276Y-50378365D01*
X37773194Y-50378365D01*
X37774489Y-50416926D01*
X37779333Y-50426250D01*
X37801861Y-50441926D01*
X37808412Y-50440185D01*
X37819995Y-50416926D01*
X37822497Y-50393433D01*
X37832327Y-50346926D01*
X37835596Y-50317938D01*
X37821410Y-50301926D01*
X37810113Y-50305956D01*
X37787514Y-50335380D01*
X37773194Y-50378365D01*
X37255276Y-50378365D01*
X37281226Y-50373676D01*
X37327793Y-50332061D01*
X37356738Y-50300825D01*
X37412160Y-50281926D01*
X37486335Y-50267701D01*
X37573700Y-50224551D01*
X37656873Y-50158625D01*
X37675485Y-50141087D01*
X37708157Y-50114440D01*
X37722221Y-50109552D01*
X37722629Y-50111523D01*
X37729721Y-50141926D01*
X37732576Y-50157116D01*
X37737221Y-50199594D01*
X37747980Y-50225177D01*
X37789721Y-50246821D01*
X37806851Y-50249466D01*
X37833525Y-50242687D01*
X37839721Y-50207837D01*
X37844305Y-50171066D01*
X37863744Y-50115611D01*
X37880266Y-50071887D01*
X37890569Y-50011926D01*
X37895520Y-49960918D01*
X37906362Y-49901926D01*
X37912140Y-49874176D01*
X37907829Y-49877050D01*
X37903739Y-49884462D01*
X37884362Y-49893592D01*
X37867151Y-49872723D01*
X37859721Y-49829397D01*
X37859956Y-49818600D01*
X37869008Y-49790253D01*
X37896898Y-49791029D01*
X37901839Y-49792336D01*
X37942829Y-49784859D01*
X37970889Y-49753477D01*
X37972587Y-49712180D01*
X37963657Y-49698117D01*
X37930349Y-49681926D01*
X37928924Y-49681819D01*
X37912578Y-49661335D01*
X37901911Y-49612805D01*
X37896871Y-49546984D01*
X37897409Y-49474626D01*
X37903475Y-49406482D01*
X37915020Y-49353306D01*
X37931995Y-49325852D01*
X37941303Y-49320070D01*
X37953820Y-49298801D01*
X37939756Y-49261990D01*
X37934404Y-49249460D01*
X37923583Y-49187178D01*
X37924671Y-49104057D01*
X37925468Y-49044408D01*
X37915118Y-48937556D01*
X37893903Y-48822197D01*
X37865001Y-48714493D01*
X37831589Y-48630605D01*
X37830403Y-48628283D01*
X37806111Y-48565421D01*
X37789501Y-48496926D01*
X37787097Y-48483203D01*
X37774628Y-48439531D01*
X37761148Y-48421926D01*
X37751111Y-48417199D01*
X37735444Y-48385596D01*
X37728174Y-48337289D01*
X37732578Y-48287667D01*
X37744776Y-48261167D01*
X37763998Y-48254568D01*
X37774548Y-48253818D01*
X37770516Y-48224430D01*
X37767855Y-48214380D01*
X37764937Y-48172391D01*
X37771495Y-48135137D01*
X37784186Y-48114370D01*
X37799672Y-48121845D01*
X37802150Y-48125480D01*
X37826745Y-48136845D01*
X37849630Y-48118570D01*
X37859721Y-48078632D01*
X37859882Y-48074972D01*
X37874230Y-48030143D01*
X37904721Y-47980464D01*
X37917918Y-47963578D01*
X37963161Y-47904911D01*
X38009721Y-47843729D01*
X38031852Y-47817001D01*
X38071157Y-47780658D01*
X38099721Y-47768077D01*
X38120171Y-47760993D01*
X38136378Y-47724899D01*
X38140657Y-47704742D01*
X38159174Y-47685422D01*
X38202259Y-47686564D01*
X38224244Y-47688370D01*
X38263336Y-47681620D01*
X38277565Y-47664087D01*
X38259369Y-47641708D01*
X38252423Y-47636077D01*
X38244200Y-47604936D01*
X38261539Y-47570611D01*
X38298208Y-47548116D01*
X38315392Y-47539637D01*
X38336165Y-47506048D01*
X38349846Y-47441021D01*
X38355488Y-47409786D01*
X38373218Y-47352442D01*
X38394180Y-47318225D01*
X38440092Y-47265212D01*
X38487473Y-47180578D01*
X38527807Y-47080003D01*
X38557043Y-46975609D01*
X38571131Y-46879520D01*
X38566022Y-46803858D01*
X38564346Y-46773581D01*
X38587389Y-46761926D01*
X38604811Y-46758785D01*
X38619284Y-46738195D01*
X38600595Y-46712465D01*
X38592501Y-46701503D01*
X38594067Y-46667813D01*
X38597092Y-46645464D01*
X38573772Y-46647604D01*
X38549993Y-46649593D01*
X38511729Y-46631076D01*
X38479399Y-46607729D01*
X38437392Y-46608481D01*
X38386918Y-46644559D01*
X38357222Y-46666706D01*
X38308594Y-46681954D01*
X38235712Y-46684808D01*
X38194652Y-46682341D01*
X38145222Y-46673935D01*
X38123138Y-46662175D01*
X38101922Y-46648090D01*
X38058055Y-46641926D01*
X38040329Y-46640749D01*
X38004847Y-46622630D01*
X38002425Y-46586414D01*
X38034178Y-46537001D01*
X38054250Y-46513319D01*
X38051172Y-46504855D01*
X38014178Y-46512594D01*
X37974994Y-46517099D01*
X37960300Y-46499402D01*
X37971861Y-46453561D01*
X37986059Y-46435588D01*
X38024958Y-46421926D01*
X38046490Y-46415786D01*
X38092287Y-46386757D01*
X38142017Y-46341926D01*
X38152761Y-46330672D01*
X38198973Y-46284682D01*
X38225240Y-46266263D01*
X38237009Y-46273278D01*
X38239721Y-46303592D01*
X38240449Y-46317256D01*
X38250849Y-46339676D01*
X38268187Y-46333101D01*
X38285512Y-46303381D01*
X38295870Y-46256363D01*
X38295982Y-46255078D01*
X38309952Y-46197790D01*
X38340870Y-46171561D01*
X38363279Y-46161312D01*
X38379721Y-46142213D01*
X38381097Y-46130786D01*
X38391861Y-46093561D01*
X38394450Y-46073853D01*
X38371861Y-46061926D01*
X38356062Y-46059325D01*
X38339721Y-46041926D01*
X38339211Y-46035557D01*
X38325319Y-46021434D01*
X38302764Y-46031941D01*
X38285516Y-46061926D01*
X38284911Y-46064129D01*
X38268094Y-46094218D01*
X38248887Y-46101540D01*
X38239721Y-46080932D01*
X38239850Y-46078808D01*
X38250206Y-46045219D01*
X38272071Y-45997382D01*
X38272885Y-45995807D01*
X38292241Y-45953212D01*
X38292170Y-45951926D01*
X38579721Y-45951926D01*
X38589721Y-45961926D01*
X38599721Y-45951926D01*
X38589721Y-45941926D01*
X38579721Y-45951926D01*
X38292170Y-45951926D01*
X38291214Y-45934608D01*
X38383259Y-45934608D01*
X38399721Y-45941926D01*
X38410309Y-45940482D01*
X38413055Y-45928592D01*
X38410123Y-45926199D01*
X38386388Y-45928592D01*
X38383259Y-45934608D01*
X38291214Y-45934608D01*
X38290919Y-45929261D01*
X38268250Y-45908377D01*
X38243207Y-45895740D01*
X38220901Y-45899522D01*
X38202687Y-45908982D01*
X38154291Y-45921000D01*
X38088419Y-45931055D01*
X38032647Y-45938814D01*
X37973829Y-45950402D01*
X37940670Y-45961339D01*
X37940297Y-45961564D01*
X37903558Y-45965218D01*
X37851973Y-45950761D01*
X37834146Y-45943288D01*
X37799569Y-45935060D01*
X37772127Y-45948233D01*
X37735958Y-45987882D01*
X37705460Y-46021143D01*
X37678512Y-46037031D01*
X37656958Y-46026926D01*
X37647149Y-46018859D01*
X37609626Y-46003972D01*
X37574960Y-46005545D01*
X37559721Y-46024065D01*
X37555797Y-46033649D01*
X37530740Y-46035084D01*
X37513816Y-46032635D01*
X37512830Y-46052815D01*
X37508449Y-46077502D01*
X37479313Y-46098830D01*
X37439574Y-46107506D01*
X37404721Y-46097173D01*
X37393914Y-46085739D01*
X37379721Y-46049477D01*
X37374752Y-46030378D01*
X37353878Y-46023805D01*
X37331388Y-46046926D01*
X37320799Y-46060311D01*
X37306767Y-46043062D01*
X37306708Y-46042930D01*
X37283185Y-46009535D01*
X37244994Y-45969835D01*
X37203866Y-45931972D01*
X37172949Y-45902693D01*
X37152467Y-45882778D01*
X37123177Y-45854608D01*
X38383259Y-45854608D01*
X38399721Y-45861926D01*
X38410309Y-45860482D01*
X38413055Y-45848592D01*
X38410123Y-45846199D01*
X38386388Y-45848592D01*
X38383259Y-45854608D01*
X37123177Y-45854608D01*
X37114721Y-45846475D01*
X37093439Y-45818708D01*
X37079721Y-45777209D01*
X37075769Y-45751006D01*
X37056349Y-45703958D01*
X37047960Y-45687279D01*
X37046038Y-45649978D01*
X37066349Y-45596207D01*
X37070118Y-45587962D01*
X37091144Y-45528110D01*
X37099721Y-45478215D01*
X37110760Y-45439595D01*
X37159721Y-45395107D01*
X37166013Y-45391289D01*
X37204144Y-45362781D01*
X37219721Y-45341201D01*
X37223039Y-45334257D01*
X37251540Y-45310255D01*
X37299721Y-45281925D01*
X37321909Y-45269441D01*
X37363301Y-45237804D01*
X37379721Y-45211519D01*
X37382433Y-45198002D01*
X37404721Y-45180520D01*
X37411811Y-45176216D01*
X37391271Y-45164048D01*
X37360955Y-45138895D01*
X37349279Y-45091474D01*
X37359071Y-45032883D01*
X37378725Y-44988791D01*
X37428179Y-44988791D01*
X37436597Y-45009994D01*
X37445382Y-45013148D01*
X37470342Y-45000921D01*
X37476871Y-44981046D01*
X37464534Y-44964546D01*
X37437646Y-44976001D01*
X37428179Y-44988791D01*
X37378725Y-44988791D01*
X37386254Y-44971900D01*
X37426753Y-44917301D01*
X37476490Y-44877865D01*
X37531388Y-44862370D01*
X37538307Y-44862215D01*
X37578247Y-44853733D01*
X37581486Y-44831134D01*
X37548487Y-44792533D01*
X37547182Y-44791310D01*
X37513618Y-44749108D01*
X37505271Y-44725998D01*
X37631306Y-44725998D01*
X37641594Y-44741926D01*
X37652123Y-44734437D01*
X37659721Y-44701926D01*
X37658295Y-44678756D01*
X37652054Y-44661926D01*
X37645537Y-44669615D01*
X37633927Y-44701926D01*
X37631306Y-44725998D01*
X37505271Y-44725998D01*
X37499721Y-44710632D01*
X37504640Y-44686617D01*
X37523721Y-44697925D01*
X37533188Y-44706612D01*
X37566781Y-44720053D01*
X37596621Y-44698035D01*
X37626473Y-44638377D01*
X37644566Y-44583070D01*
X37647664Y-44548099D01*
X37634527Y-44543152D01*
X37606289Y-44571957D01*
X37588109Y-44595441D01*
X37579436Y-44599708D01*
X37583169Y-44572078D01*
X37604046Y-44536639D01*
X37646248Y-44505372D01*
X37697139Y-44471009D01*
X37714469Y-44429637D01*
X37692147Y-44384606D01*
X37672480Y-44355977D01*
X37659722Y-44315351D01*
X37649490Y-44282853D01*
X37619721Y-44241926D01*
X37592508Y-44210343D01*
X37579722Y-44185667D01*
X37578132Y-44180432D01*
X37557195Y-44151412D01*
X37519722Y-44111925D01*
X37506546Y-44098729D01*
X37473114Y-44058549D01*
X37459721Y-44030993D01*
X37455975Y-44019788D01*
X37430866Y-43983993D01*
X37389934Y-43939734D01*
X37367727Y-43916706D01*
X37333509Y-43873467D01*
X37319934Y-43843920D01*
X37314521Y-43826194D01*
X37283261Y-43783781D01*
X37232475Y-43733977D01*
X37171736Y-43684924D01*
X37110613Y-43644766D01*
X37058678Y-43621644D01*
X37021213Y-43614352D01*
X36953008Y-43612125D01*
X36894259Y-43622025D01*
X36859721Y-43642504D01*
X36845929Y-43654676D01*
X36805878Y-43683331D01*
X36750806Y-43719424D01*
X36707924Y-43748232D01*
X36678064Y-43772571D01*
X36675806Y-43781925D01*
X36694102Y-43784676D01*
X36699960Y-43798542D01*
X36679316Y-43817076D01*
X36638158Y-43832269D01*
X36580214Y-43838899D01*
X36512560Y-43833044D01*
X36459483Y-43814573D01*
X36433382Y-43786271D01*
X36431869Y-43780704D01*
X36425367Y-43768051D01*
X36422042Y-43793826D01*
X36410768Y-43829824D01*
X36379016Y-43872564D01*
X36354155Y-43904157D01*
X36348151Y-43935044D01*
X36348218Y-43935228D01*
X36340729Y-43962603D01*
X36312246Y-44009226D01*
X36268856Y-44065111D01*
X36249982Y-44087676D01*
X36201188Y-44154852D01*
X36182821Y-44201602D01*
X36194219Y-44231470D01*
X36234721Y-44247997D01*
X36235814Y-44248224D01*
X36244436Y-44252566D01*
X36283471Y-44272225D01*
X36322228Y-44314504D01*
X36343510Y-44362294D01*
X36338739Y-44402830D01*
X36333941Y-44411255D01*
X36328089Y-44421530D01*
X36324695Y-44441701D01*
X36322906Y-44452333D01*
X36349340Y-44461926D01*
X36372145Y-44449189D01*
X36391641Y-44411398D01*
X36392706Y-44407351D01*
X36422893Y-44354112D01*
X36475170Y-44334034D01*
X36549880Y-44346979D01*
X36583681Y-44360858D01*
X36615794Y-44385659D01*
X36642764Y-44427839D01*
X36673096Y-44497808D01*
X36681821Y-44521926D01*
X36692891Y-44552525D01*
X36696894Y-44568592D01*
X36709298Y-44618372D01*
X36708522Y-44651298D01*
X36708368Y-44657808D01*
X36701598Y-44678003D01*
X36697813Y-44718534D01*
X36697371Y-44731619D01*
X36678813Y-44776105D01*
X36641729Y-44830663D01*
X36594069Y-44886496D01*
X36543785Y-44934811D01*
X36498827Y-44966812D01*
X36467144Y-44973704D01*
X36449512Y-44975710D01*
X36429305Y-45003236D01*
X36418717Y-45024889D01*
X36401427Y-45032979D01*
X36388879Y-45037179D01*
X36358114Y-45065586D01*
X36319149Y-45112689D01*
X36311145Y-45123255D01*
X36268329Y-45172372D01*
X36231010Y-45195890D01*
X36187185Y-45201926D01*
X36184164Y-45201906D01*
X36136757Y-45196322D01*
X36110882Y-45183803D01*
X36095165Y-45175117D01*
X36056711Y-45176918D01*
X36027238Y-45178529D01*
X35986731Y-45151218D01*
X35968998Y-45132702D01*
X35959721Y-45137475D01*
X35955381Y-45147790D01*
X35929721Y-45149158D01*
X35913249Y-45136382D01*
X35899721Y-45098605D01*
X35895662Y-45077593D01*
X35878845Y-45072467D01*
X35864340Y-45075878D01*
X35830852Y-45062863D01*
X35816181Y-45053346D01*
X35768236Y-45030146D01*
X35706728Y-45005853D01*
X35696571Y-45002099D01*
X35603910Y-44957355D01*
X35507830Y-44895525D01*
X35418481Y-44824570D01*
X35346011Y-44752456D01*
X35300567Y-44687143D01*
X35298048Y-44681793D01*
X35278841Y-44621395D01*
X36003739Y-44621395D01*
X36019320Y-44651442D01*
X36042893Y-44673722D01*
X36069302Y-44678789D01*
X36079721Y-44651298D01*
X36079717Y-44650778D01*
X36064883Y-44621169D01*
X36034046Y-44603634D01*
X36006009Y-44608971D01*
X36003739Y-44621395D01*
X35278841Y-44621395D01*
X35269150Y-44590920D01*
X35267553Y-44574608D01*
X36043259Y-44574608D01*
X36059721Y-44581926D01*
X36070309Y-44580482D01*
X36073055Y-44568592D01*
X36070123Y-44566199D01*
X36046388Y-44568592D01*
X36043259Y-44574608D01*
X35267553Y-44574608D01*
X35262396Y-44521926D01*
X36129721Y-44521926D01*
X36134513Y-44535577D01*
X36168541Y-44541926D01*
X36202571Y-44536832D01*
X36219721Y-44521926D01*
X36212755Y-44510528D01*
X36180902Y-44501926D01*
X36157931Y-44505124D01*
X36129721Y-44521926D01*
X35262396Y-44521926D01*
X35259775Y-44495150D01*
X35267209Y-44431312D01*
X35906833Y-44431312D01*
X35910707Y-44445916D01*
X35927247Y-44448996D01*
X35965790Y-44442588D01*
X35978284Y-44437683D01*
X36112344Y-44437683D01*
X36118103Y-44449107D01*
X36151163Y-44457459D01*
X36182816Y-44455269D01*
X36199721Y-44441701D01*
X36197174Y-44434626D01*
X36172158Y-44423465D01*
X36136995Y-44424167D01*
X36112344Y-44437683D01*
X35978284Y-44437683D01*
X36003031Y-44427968D01*
X36019721Y-44411255D01*
X36015512Y-44396229D01*
X35998718Y-44360051D01*
X35973093Y-44333510D01*
X35949779Y-44341466D01*
X35939721Y-44381439D01*
X35935982Y-44402533D01*
X35915707Y-44426597D01*
X35906833Y-44431312D01*
X35267209Y-44431312D01*
X35269955Y-44407735D01*
X35299721Y-44341926D01*
X35300560Y-44340851D01*
X35327753Y-44301762D01*
X35339277Y-44276972D01*
X35345146Y-44262249D01*
X35370512Y-44220485D01*
X35377950Y-44209599D01*
X36040003Y-44209599D01*
X36042563Y-44250936D01*
X36051861Y-44290290D01*
X36065139Y-44313354D01*
X36091834Y-44317727D01*
X36131865Y-44286926D01*
X36149924Y-44268048D01*
X36155355Y-44252566D01*
X36131438Y-44245102D01*
X36109431Y-44233828D01*
X36106407Y-44198522D01*
X36107977Y-44170451D01*
X36086626Y-44170346D01*
X36071656Y-44175721D01*
X36048086Y-44181926D01*
X36044796Y-44183941D01*
X36040003Y-44209599D01*
X35377950Y-44209599D01*
X35410185Y-44162418D01*
X35457864Y-44096877D01*
X35507251Y-44032692D01*
X35552048Y-43978695D01*
X35552136Y-43978594D01*
X35598977Y-43922915D01*
X35631367Y-43874654D01*
X35652044Y-43824327D01*
X35663747Y-43762455D01*
X35669213Y-43679553D01*
X35671181Y-43566141D01*
X35672264Y-43501161D01*
X35677089Y-43398282D01*
X35685264Y-43329270D01*
X35696506Y-43297141D01*
X35711570Y-43269150D01*
X35719721Y-43220212D01*
X35726387Y-43172357D01*
X35747144Y-43113641D01*
X35774566Y-43060784D01*
X35795980Y-43145148D01*
X35801087Y-43167221D01*
X35808761Y-43218225D01*
X35806797Y-43246658D01*
X35805672Y-43257569D01*
X35815676Y-43297797D01*
X35837961Y-43352647D01*
X35850455Y-43381078D01*
X35871431Y-43440092D01*
X35879721Y-43481708D01*
X35883501Y-43505165D01*
X35899721Y-43521926D01*
X35905728Y-43520899D01*
X35919721Y-43499786D01*
X35920987Y-43496926D01*
X36180082Y-43496926D01*
X36180311Y-43506069D01*
X36184721Y-43519293D01*
X36185945Y-43518852D01*
X36212127Y-43513142D01*
X36259721Y-43504293D01*
X36265106Y-43503325D01*
X36308575Y-43490824D01*
X36328318Y-43465862D01*
X36333452Y-43431926D01*
X36819721Y-43431926D01*
X36829721Y-43441926D01*
X36839721Y-43431926D01*
X36829721Y-43421926D01*
X36819721Y-43431926D01*
X36333452Y-43431926D01*
X36336063Y-43414670D01*
X36337976Y-43391369D01*
X36606860Y-43391369D01*
X36609750Y-43412507D01*
X36634119Y-43419106D01*
X36689186Y-43417146D01*
X36751987Y-43407512D01*
X36776833Y-43388805D01*
X36762619Y-43362554D01*
X36709006Y-43330246D01*
X36673196Y-43313665D01*
X36640946Y-43305369D01*
X36624667Y-43321641D01*
X36621826Y-43331926D01*
X36612099Y-43367146D01*
X36606860Y-43391369D01*
X36337976Y-43391369D01*
X36342405Y-43337414D01*
X36261424Y-43404670D01*
X36231493Y-43431283D01*
X36194630Y-43470851D01*
X36180082Y-43496926D01*
X35920987Y-43496926D01*
X35924036Y-43490038D01*
X35949721Y-43489158D01*
X35965975Y-43491554D01*
X35979721Y-43472964D01*
X35977745Y-43461506D01*
X35954721Y-43436514D01*
X35953579Y-43436098D01*
X35942490Y-43420885D01*
X35962356Y-43389847D01*
X35966646Y-43384696D01*
X35994130Y-43331926D01*
X36399721Y-43331926D01*
X36409721Y-43341926D01*
X36419721Y-43331926D01*
X36409721Y-43321926D01*
X36399721Y-43331926D01*
X35994130Y-43331926D01*
X36011057Y-43299426D01*
X36016095Y-43271926D01*
X36439721Y-43271926D01*
X36449721Y-43281926D01*
X36459721Y-43271926D01*
X36459319Y-43271524D01*
X36583995Y-43271524D01*
X36584036Y-43271926D01*
X36586388Y-43295259D01*
X36592404Y-43298388D01*
X36599721Y-43281926D01*
X36598278Y-43271338D01*
X36586388Y-43268592D01*
X36583995Y-43271524D01*
X36459319Y-43271524D01*
X36449721Y-43261926D01*
X36439721Y-43271926D01*
X36016095Y-43271926D01*
X36027162Y-43211524D01*
X36523995Y-43211524D01*
X36526388Y-43235259D01*
X36532404Y-43238388D01*
X36539721Y-43221926D01*
X36538278Y-43211338D01*
X36526388Y-43208592D01*
X36523995Y-43211524D01*
X36027162Y-43211524D01*
X36030656Y-43192455D01*
X37943584Y-43192455D01*
X37952592Y-43192279D01*
X37968436Y-43167788D01*
X37969859Y-43163994D01*
X37974056Y-43143953D01*
X37957240Y-43156592D01*
X37945827Y-43171298D01*
X37943584Y-43192455D01*
X36030656Y-43192455D01*
X36032585Y-43181926D01*
X36036779Y-43124800D01*
X36044346Y-42997968D01*
X36046268Y-42905276D01*
X36042084Y-42842692D01*
X36031330Y-42806182D01*
X36013545Y-42791713D01*
X35988267Y-42795251D01*
X35974036Y-42804997D01*
X35967699Y-42833866D01*
X35970456Y-42846209D01*
X35961122Y-42871060D01*
X35947547Y-42867240D01*
X35932506Y-42836701D01*
X35929480Y-42806965D01*
X35940232Y-42785259D01*
X35946038Y-42782199D01*
X35951213Y-42771926D01*
X36059721Y-42771926D01*
X36069721Y-42781926D01*
X36079721Y-42771926D01*
X36069721Y-42761926D01*
X36059721Y-42771926D01*
X35951213Y-42771926D01*
X35959721Y-42755039D01*
X35960652Y-42750140D01*
X35981036Y-42719465D01*
X35988805Y-42711926D01*
X36119721Y-42711926D01*
X36129721Y-42721926D01*
X36139721Y-42711926D01*
X36129721Y-42701926D01*
X36119721Y-42711926D01*
X35988805Y-42711926D01*
X36009416Y-42691926D01*
X36079721Y-42691926D01*
X36089721Y-42701926D01*
X36099721Y-42691926D01*
X36089721Y-42681926D01*
X36079721Y-42691926D01*
X36009416Y-42691926D01*
X36019721Y-42681926D01*
X36056555Y-42645650D01*
X36075222Y-42603467D01*
X36079721Y-42540129D01*
X36079906Y-42526804D01*
X36088532Y-42441853D01*
X36107631Y-42359587D01*
X36133855Y-42289310D01*
X36163855Y-42240322D01*
X36194281Y-42221925D01*
X36205856Y-42224271D01*
X36209721Y-42241925D01*
X36206596Y-42249673D01*
X36218541Y-42261926D01*
X36224346Y-42261157D01*
X36239721Y-42241926D01*
X36252135Y-42228772D01*
X36289721Y-42221926D01*
X36322606Y-42226891D01*
X36339721Y-42241926D01*
X36343630Y-42251556D01*
X36371150Y-42261926D01*
X36385689Y-42264191D01*
X36421677Y-42283381D01*
X36448677Y-42311793D01*
X36452872Y-42336772D01*
X36465386Y-42340991D01*
X36511838Y-42344723D01*
X36586621Y-42347240D01*
X36683590Y-42348344D01*
X36796597Y-42347838D01*
X36883102Y-42347227D01*
X36990002Y-42347995D01*
X37065254Y-42350698D01*
X37106085Y-42355218D01*
X37109721Y-42361433D01*
X37104227Y-42364224D01*
X37104362Y-42372905D01*
X37140551Y-42378220D01*
X37214721Y-42380520D01*
X37219959Y-42380582D01*
X37291659Y-42384147D01*
X37341219Y-42391700D01*
X37359721Y-42401926D01*
X37361555Y-42406211D01*
X37388883Y-42417428D01*
X37438541Y-42421926D01*
X37453555Y-42422325D01*
X37503977Y-42430030D01*
X37531284Y-42444453D01*
X37555666Y-42455652D01*
X37613886Y-42458851D01*
X37708470Y-42453734D01*
X37774991Y-42448746D01*
X37834142Y-42447409D01*
X37875349Y-42453879D01*
X37910904Y-42470453D01*
X37953100Y-42499428D01*
X37975073Y-42516403D01*
X38035129Y-42571475D01*
X38081320Y-42625147D01*
X38084875Y-42630143D01*
X38133279Y-42690775D01*
X38134356Y-42691926D01*
X38153062Y-42711926D01*
X38183949Y-42744950D01*
X38193589Y-42754362D01*
X38209280Y-42771926D01*
X38226650Y-42791369D01*
X38240289Y-42814950D01*
G37*
G36*
X35189233Y-50764770D02*
G01*
X35193291Y-50775260D01*
X35188052Y-50809063D01*
X35168046Y-50830814D01*
X35136818Y-50841290D01*
X35110351Y-50837713D01*
X35104245Y-50818354D01*
X35107087Y-50811845D01*
X35132228Y-50783658D01*
X35165271Y-50764397D01*
X35189233Y-50764770D01*
G37*
G36*
X35733055Y-49048592D02*
G01*
X35736184Y-49054608D01*
X35719721Y-49061926D01*
X35709134Y-49060482D01*
X35706388Y-49048592D01*
X35709320Y-49046199D01*
X35733055Y-49048592D01*
G37*
G36*
X36251749Y-44162846D02*
G01*
X36269721Y-44181926D01*
X36272847Y-44189673D01*
X36260902Y-44201926D01*
X36255097Y-44201157D01*
X36239721Y-44181926D01*
X36239951Y-44177399D01*
X36248541Y-44161926D01*
X36251749Y-44162846D01*
G37*
G36*
X28239721Y-48291926D02*
G01*
X28229721Y-48301926D01*
X28219721Y-48291926D01*
X28229721Y-48281926D01*
X28239721Y-48291926D01*
G37*
G36*
X35619721Y-49191926D02*
G01*
X35609721Y-49201926D01*
X35599721Y-49191926D01*
X35609721Y-49181926D01*
X35619721Y-49191926D01*
G37*
G36*
X35453055Y-49208592D02*
G01*
X35456184Y-49214608D01*
X35439721Y-49221926D01*
X35429134Y-49220482D01*
X35426388Y-49208592D01*
X35429320Y-49206199D01*
X35453055Y-49208592D01*
G37*
G36*
X29358170Y-47201926D02*
G01*
X29375246Y-47203884D01*
X29410721Y-47220258D01*
X29422543Y-47229365D01*
X29464042Y-47255500D01*
X29519721Y-47286903D01*
X29566310Y-47312031D01*
X29646738Y-47355707D01*
X29725172Y-47398570D01*
X29783868Y-47428981D01*
X29836861Y-47452801D01*
X29867172Y-47461926D01*
X29881535Y-47465666D01*
X29923971Y-47487379D01*
X29976661Y-47522008D01*
X30007385Y-47543519D01*
X30051092Y-47571139D01*
X30074662Y-47581837D01*
X30077039Y-47581896D01*
X30117934Y-47593368D01*
X30178571Y-47620190D01*
X30246674Y-47655957D01*
X30309962Y-47694263D01*
X30356159Y-47728701D01*
X30385756Y-47749217D01*
X30425116Y-47761926D01*
X30441036Y-47764099D01*
X30469721Y-47781926D01*
X30477127Y-47789926D01*
X30511384Y-47801926D01*
X30535319Y-47809371D01*
X30583909Y-47834755D01*
X30642448Y-47871926D01*
X30691314Y-47902225D01*
X30750587Y-47930864D01*
X30792802Y-47941926D01*
X30835294Y-47951708D01*
X30883587Y-47981234D01*
X30917637Y-48005553D01*
X30942750Y-48010054D01*
X30947773Y-48007792D01*
X30959721Y-48018293D01*
X30973805Y-48034067D01*
X31015340Y-48061252D01*
X31074721Y-48092720D01*
X31129684Y-48119629D01*
X31194752Y-48152192D01*
X31239721Y-48175523D01*
X31282208Y-48197638D01*
X31347064Y-48230345D01*
X31419721Y-48266285D01*
X31426251Y-48269498D01*
X31489724Y-48302515D01*
X31536331Y-48329874D01*
X31556388Y-48345933D01*
X31563840Y-48353750D01*
X31596388Y-48362370D01*
X31634033Y-48373897D01*
X31679721Y-48401926D01*
X31679992Y-48402137D01*
X31721607Y-48429748D01*
X31751661Y-48441481D01*
X31780107Y-48453191D01*
X31819721Y-48481926D01*
X31861474Y-48509361D01*
X31902782Y-48521926D01*
X31923113Y-48525250D01*
X31939721Y-48541926D01*
X31942928Y-48550967D01*
X31969220Y-48561926D01*
X31979912Y-48563872D01*
X32022337Y-48580101D01*
X32081816Y-48608119D01*
X32147655Y-48642258D01*
X32209159Y-48676851D01*
X32255634Y-48706229D01*
X32276388Y-48724726D01*
X32281790Y-48731871D01*
X32312002Y-48741926D01*
X32316310Y-48742460D01*
X32352991Y-48755873D01*
X32411160Y-48783663D01*
X32480335Y-48820911D01*
X32501061Y-48832496D01*
X32561686Y-48864303D01*
X32604171Y-48883371D01*
X32620358Y-48885911D01*
X32627521Y-48885744D01*
X32649027Y-48908928D01*
X32671556Y-48929279D01*
X32698532Y-48932661D01*
X32711543Y-48930352D01*
X32731958Y-48950543D01*
X32740516Y-48965207D01*
X32760205Y-48971627D01*
X32775916Y-48971617D01*
X32806681Y-48991742D01*
X32827624Y-49009155D01*
X32856007Y-49021926D01*
X32860899Y-49022192D01*
X32896553Y-49032954D01*
X32933957Y-49053430D01*
X32960194Y-49075314D01*
X32962349Y-49090301D01*
X32960139Y-49090620D01*
X32930598Y-49081568D01*
X32873406Y-49057846D01*
X32794918Y-49022570D01*
X32701490Y-48978857D01*
X32599477Y-48929823D01*
X32495236Y-48878584D01*
X32395123Y-48828257D01*
X32305492Y-48781957D01*
X32232700Y-48742803D01*
X32183102Y-48713909D01*
X32163055Y-48698391D01*
X32147691Y-48687913D01*
X32108055Y-48681926D01*
X32076785Y-48677145D01*
X32059721Y-48661926D01*
X32057046Y-48653411D01*
X32031779Y-48641926D01*
X32011245Y-48636340D01*
X31960343Y-48615861D01*
X31889328Y-48583866D01*
X31806779Y-48544085D01*
X31764866Y-48523362D01*
X31648179Y-48466330D01*
X31520721Y-48404780D01*
X31391818Y-48343160D01*
X31270800Y-48285914D01*
X31166992Y-48237489D01*
X31089721Y-48202329D01*
X31088204Y-48201654D01*
X30996859Y-48160144D01*
X30879110Y-48105286D01*
X30744185Y-48041444D01*
X30601313Y-47972985D01*
X30459721Y-47904274D01*
X30380475Y-47866422D01*
X30306365Y-47832838D01*
X30251736Y-47810110D01*
X30224721Y-47801785D01*
X30215500Y-47800419D01*
X30199721Y-47781926D01*
X30199100Y-47777010D01*
X30179504Y-47761926D01*
X30176646Y-47761648D01*
X30143217Y-47750989D01*
X30090751Y-47729473D01*
X30033307Y-47703426D01*
X29984944Y-47679173D01*
X29959721Y-47663040D01*
X29937747Y-47649052D01*
X29884707Y-47619830D01*
X29805512Y-47577962D01*
X29705035Y-47525991D01*
X29588147Y-47466462D01*
X29459721Y-47401920D01*
X29419312Y-47381737D01*
X29290855Y-47317530D01*
X29165778Y-47254945D01*
X29052184Y-47198042D01*
X29000130Y-47171926D01*
X29259721Y-47171926D01*
X29269721Y-47181926D01*
X29279721Y-47171926D01*
X29269721Y-47161926D01*
X29259721Y-47171926D01*
X29000130Y-47171926D01*
X28958177Y-47150878D01*
X28891859Y-47117513D01*
X28827385Y-47092916D01*
X28751859Y-47090858D01*
X28724943Y-47095604D01*
X28659044Y-47105532D01*
X28572855Y-47117371D01*
X28478038Y-47129478D01*
X28410484Y-47138356D01*
X28330572Y-47150557D01*
X28271624Y-47161602D01*
X28243038Y-47169876D01*
X28228321Y-47189042D01*
X28220434Y-47235596D01*
X28227818Y-47288253D01*
X28249721Y-47329068D01*
X28265958Y-47351845D01*
X28277401Y-47395497D01*
X28273815Y-47417387D01*
X28266728Y-47401042D01*
X28264693Y-47396274D01*
X28245856Y-47382250D01*
X28204186Y-47370477D01*
X28133971Y-47359693D01*
X28029498Y-47348637D01*
X27897992Y-47333076D01*
X27803230Y-47314351D01*
X27748191Y-47292762D01*
X27719135Y-47276454D01*
X27655320Y-47247298D01*
X27583695Y-47219852D01*
X27536265Y-47201320D01*
X27470117Y-47168475D01*
X27424962Y-47137454D01*
X27405818Y-47121275D01*
X27349517Y-47081373D01*
X27285643Y-47042769D01*
X27277609Y-47038280D01*
X27190799Y-46976193D01*
X27135245Y-46908255D01*
X27119598Y-46854608D01*
X28023259Y-46854608D01*
X28039721Y-46861926D01*
X28050309Y-46860482D01*
X28053055Y-46848592D01*
X28050123Y-46846199D01*
X28026388Y-46848592D01*
X28023259Y-46854608D01*
X27119598Y-46854608D01*
X27115203Y-46839540D01*
X27115541Y-46834608D01*
X27943259Y-46834608D01*
X27959721Y-46841926D01*
X27970309Y-46840482D01*
X27973055Y-46828592D01*
X27970123Y-46826199D01*
X27946388Y-46828592D01*
X27943259Y-46834608D01*
X27115541Y-46834608D01*
X27122223Y-46736988D01*
X27149312Y-46658478D01*
X27199519Y-46599271D01*
X27201066Y-46597984D01*
X27275203Y-46550016D01*
X27347603Y-46536195D01*
X27431828Y-46553871D01*
X27481625Y-46568412D01*
X27510563Y-46566385D01*
X27531512Y-46546094D01*
X27532432Y-46544816D01*
X27545238Y-46508706D01*
X27530378Y-46469838D01*
X27484818Y-46423884D01*
X27405521Y-46366518D01*
X27405262Y-46366346D01*
X27340640Y-46326065D01*
X27288432Y-46303498D01*
X27231184Y-46293434D01*
X27151443Y-46290661D01*
X27105230Y-46289811D01*
X27015505Y-46283119D01*
X26950248Y-46267049D01*
X26898604Y-46238075D01*
X26849721Y-46192672D01*
X26829097Y-46171497D01*
X26741712Y-46103962D01*
X26638494Y-46061574D01*
X26598300Y-46056178D01*
X26560597Y-46070246D01*
X26511282Y-46109277D01*
X26488809Y-46130457D01*
X26453601Y-46170168D01*
X26439721Y-46196299D01*
X26432299Y-46215588D01*
X26402895Y-46245791D01*
X26384358Y-46261084D01*
X26337147Y-46330100D01*
X26318143Y-46415611D01*
X26318081Y-46417572D01*
X26313928Y-46448395D01*
X26306476Y-46446926D01*
X26303354Y-46440062D01*
X26282925Y-46421399D01*
X26266403Y-46434176D01*
X26264617Y-46471926D01*
X26264455Y-46507942D01*
X26240122Y-46524954D01*
X26184721Y-46523418D01*
X26168076Y-46533475D01*
X26159721Y-46571049D01*
X26165811Y-46604483D01*
X26187650Y-46621926D01*
X26211392Y-46633439D01*
X26250675Y-46666349D01*
X26292652Y-46709237D01*
X26326081Y-46750522D01*
X26339721Y-46778621D01*
X26336155Y-46790259D01*
X26314721Y-46820452D01*
X26314496Y-46820693D01*
X26305540Y-46836319D01*
X26323433Y-46841002D01*
X26374382Y-46836401D01*
X26392642Y-46834204D01*
X26434834Y-46831715D01*
X26447870Y-46839884D01*
X26439773Y-46861830D01*
X26434138Y-46876478D01*
X26438124Y-46900156D01*
X26463312Y-46923847D01*
X26514065Y-46950119D01*
X26594747Y-46981539D01*
X26709721Y-47020674D01*
X26778034Y-47043798D01*
X26906527Y-47091453D01*
X27016647Y-47137905D01*
X27103355Y-47180767D01*
X27161610Y-47217657D01*
X27186374Y-47246190D01*
X27187145Y-47266912D01*
X27167657Y-47303639D01*
X27151094Y-47326442D01*
X27139721Y-47373027D01*
X27133419Y-47402529D01*
X27103929Y-47428592D01*
X27100401Y-47431710D01*
X27100195Y-47431776D01*
X27066686Y-47452123D01*
X27016919Y-47493059D01*
X26961588Y-47545795D01*
X26956771Y-47550705D01*
X26903897Y-47602087D01*
X26866619Y-47629503D01*
X26834735Y-47638491D01*
X26798045Y-47634590D01*
X26746820Y-47631502D01*
X26706958Y-47644219D01*
X26676639Y-47655389D01*
X26634822Y-47637361D01*
X26610100Y-47623818D01*
X26550514Y-47597647D01*
X26481443Y-47572299D01*
X26438508Y-47555537D01*
X26373359Y-47520760D01*
X26329206Y-47485428D01*
X26325263Y-47480857D01*
X26299751Y-47454893D01*
X26273949Y-47444149D01*
X26234969Y-47446578D01*
X26169922Y-47460132D01*
X26164874Y-47461255D01*
X26093234Y-47474176D01*
X26045499Y-47474152D01*
X26008508Y-47461276D01*
X25994605Y-47455354D01*
X25956224Y-47448696D01*
X25921596Y-47451638D01*
X25902757Y-47462100D01*
X25911741Y-47478001D01*
X25933045Y-47501457D01*
X25955866Y-47552539D01*
X25962057Y-47603864D01*
X25962292Y-47620634D01*
X25987556Y-47659298D01*
X26046999Y-47683533D01*
X26137798Y-47691926D01*
X26187811Y-47692641D01*
X26229485Y-47698008D01*
X26248928Y-47712175D01*
X26256416Y-47739241D01*
X26268891Y-47770825D01*
X26301416Y-47796574D01*
X26331041Y-47816690D01*
X26335955Y-47857522D01*
X26309711Y-47909893D01*
X26304825Y-47916149D01*
X26278889Y-47935963D01*
X26251223Y-47923171D01*
X26222429Y-47908876D01*
X26191954Y-47920552D01*
X26180381Y-47960809D01*
X26179721Y-47963106D01*
X26174352Y-47985300D01*
X26147849Y-48001926D01*
X26127401Y-48009398D01*
X26105516Y-48041926D01*
X26101141Y-48058651D01*
X26091703Y-48077438D01*
X26071040Y-48076615D01*
X26026023Y-48059003D01*
X25975511Y-48044982D01*
X25915798Y-48040398D01*
X25915448Y-48040425D01*
X25861007Y-48031819D01*
X25805798Y-48005387D01*
X25766023Y-47981724D01*
X25698088Y-47957404D01*
X25638534Y-47953808D01*
X25599017Y-47972774D01*
X25582589Y-47987845D01*
X25547786Y-48001926D01*
X25545610Y-48002104D01*
X25518048Y-48021190D01*
X25489601Y-48062158D01*
X25487953Y-48065355D01*
X25472881Y-48099869D01*
X25472052Y-48129113D01*
X25488206Y-48165874D01*
X25524088Y-48222939D01*
X25540573Y-48246954D01*
X25593361Y-48307063D01*
X25639721Y-48334091D01*
X25716336Y-48355995D01*
X25767268Y-48387489D01*
X25791338Y-48431245D01*
X25793382Y-48438701D01*
X25815411Y-48472808D01*
X25860709Y-48481926D01*
X25902578Y-48487302D01*
X25929721Y-48501926D01*
X25941645Y-48512349D01*
X25979235Y-48521926D01*
X26000265Y-48525360D01*
X26023711Y-48543893D01*
X26032490Y-48552233D01*
X26071829Y-48566564D01*
X26130377Y-48577031D01*
X26132429Y-48577268D01*
X26207666Y-48594376D01*
X26274162Y-48623708D01*
X26321615Y-48659425D01*
X26339721Y-48695687D01*
X26351273Y-48712557D01*
X26384763Y-48721236D01*
X26421945Y-48716886D01*
X26444055Y-48698925D01*
X26444312Y-48698191D01*
X26464119Y-48685808D01*
X26510668Y-48695574D01*
X26513554Y-48696537D01*
X26551132Y-48710666D01*
X26553853Y-48721844D01*
X26524668Y-48739278D01*
X26496802Y-48763121D01*
X26479721Y-48807419D01*
X26474777Y-48845695D01*
X26457348Y-48903791D01*
X26432672Y-48960929D01*
X26406378Y-49004490D01*
X26384095Y-49021851D01*
X26366461Y-49037873D01*
X26361995Y-49086926D01*
X26362047Y-49088040D01*
X26355794Y-49139914D01*
X26336881Y-49212322D01*
X26309283Y-49289952D01*
X26303350Y-49304585D01*
X26277103Y-49374319D01*
X26265186Y-49423589D01*
X26265609Y-49466021D01*
X26276383Y-49515239D01*
X26281582Y-49535901D01*
X26294535Y-49601224D01*
X26299721Y-49651032D01*
X26304679Y-49684540D01*
X26321984Y-49713324D01*
X26333124Y-49740031D01*
X26337439Y-49805356D01*
X26334433Y-49909504D01*
X26332975Y-50033866D01*
X26345821Y-50137901D01*
X26374632Y-50211314D01*
X26420278Y-50257632D01*
X26430135Y-50263385D01*
X26465734Y-50271273D01*
X26507493Y-50251547D01*
X26515815Y-50246605D01*
X26574468Y-50234813D01*
X26630150Y-50256548D01*
X26670541Y-50307578D01*
X26691766Y-50335812D01*
X26736804Y-50361485D01*
X26767118Y-50370301D01*
X26771050Y-50384882D01*
X26765753Y-50391926D01*
X26746804Y-50417126D01*
X26745690Y-50418445D01*
X26690161Y-50456149D01*
X26600424Y-50482211D01*
X26570191Y-50488592D01*
X26555778Y-50491634D01*
X26502107Y-50506589D01*
X26474274Y-50519373D01*
X26470524Y-50528089D01*
X26466594Y-50561070D01*
X26465084Y-50620078D01*
X26466036Y-50707890D01*
X26469491Y-50827284D01*
X26475491Y-50981037D01*
X26484078Y-51171926D01*
X26489721Y-51291926D01*
X26339721Y-51303645D01*
X26311185Y-51305619D01*
X26211154Y-51310271D01*
X26097510Y-51313131D01*
X25989721Y-51313645D01*
X25789721Y-51311926D01*
X25783344Y-51151926D01*
X25782600Y-51134949D01*
X25774742Y-51043579D01*
X25760071Y-50979514D01*
X25736268Y-50931926D01*
X25701831Y-50889988D01*
X25647195Y-50837814D01*
X25587191Y-50790144D01*
X25532535Y-50755381D01*
X25493945Y-50741926D01*
X25478436Y-50739815D01*
X25449721Y-50721926D01*
X25433539Y-50710002D01*
X25392958Y-50701926D01*
X25368209Y-50695633D01*
X25317112Y-50664384D01*
X25259981Y-50615055D01*
X25206923Y-50556777D01*
X25168045Y-50498684D01*
X25164951Y-50494608D01*
X26423259Y-50494608D01*
X26439721Y-50501926D01*
X26450309Y-50500482D01*
X26453055Y-50488592D01*
X26450123Y-50486199D01*
X26426388Y-50488592D01*
X26423259Y-50494608D01*
X25164951Y-50494608D01*
X25133339Y-50452956D01*
X25082059Y-50413134D01*
X25045223Y-50391926D01*
X26419721Y-50391926D01*
X26429721Y-50401926D01*
X26439721Y-50391926D01*
X26429721Y-50381926D01*
X26419721Y-50391926D01*
X25045223Y-50391926D01*
X25042687Y-50390466D01*
X24998761Y-50359360D01*
X24942360Y-50313643D01*
X24865148Y-50246926D01*
X24861830Y-50244058D01*
X24820010Y-50214206D01*
X24788941Y-50201926D01*
X24775160Y-50197845D01*
X24751861Y-50170290D01*
X24750554Y-50157651D01*
X24748807Y-50107615D01*
X24747261Y-50023018D01*
X24745914Y-49907097D01*
X24744760Y-49763086D01*
X24743797Y-49594222D01*
X24743021Y-49403740D01*
X24742428Y-49194874D01*
X24742013Y-48970862D01*
X24741775Y-48734939D01*
X24741708Y-48490339D01*
X24741809Y-48240299D01*
X24742075Y-47988054D01*
X24742136Y-47951926D01*
X26059721Y-47951926D01*
X26060302Y-47959896D01*
X26076812Y-47981302D01*
X26105844Y-47969136D01*
X26110912Y-47960809D01*
X26104658Y-47935159D01*
X26078541Y-47921926D01*
X26069895Y-47925301D01*
X26059721Y-47951926D01*
X24742136Y-47951926D01*
X24742501Y-47736840D01*
X24743084Y-47489891D01*
X24743254Y-47434608D01*
X25863259Y-47434608D01*
X25879721Y-47441926D01*
X25890309Y-47440482D01*
X25893055Y-47428592D01*
X25890123Y-47426199D01*
X25866388Y-47428592D01*
X25863259Y-47434608D01*
X24743254Y-47434608D01*
X24743820Y-47250445D01*
X24744705Y-47021736D01*
X24745736Y-46806999D01*
X24746908Y-46609471D01*
X24748219Y-46432387D01*
X24749665Y-46278982D01*
X24751241Y-46152493D01*
X24752943Y-46056153D01*
X24754770Y-45993200D01*
X24756715Y-45966868D01*
X24758063Y-45962680D01*
X24782959Y-45915964D01*
X24821260Y-45866868D01*
X24840832Y-45844075D01*
X24885811Y-45783183D01*
X24928151Y-45716940D01*
X24950064Y-45682709D01*
X24997311Y-45622543D01*
X25041246Y-45580840D01*
X25048425Y-45575609D01*
X25083689Y-45545459D01*
X25096986Y-45525825D01*
X25096741Y-45524056D01*
X25101226Y-45478232D01*
X25128833Y-45461926D01*
X25136653Y-45460835D01*
X25177120Y-45444465D01*
X25227548Y-45414692D01*
X25237169Y-45408490D01*
X25295876Y-45376250D01*
X25374377Y-45338595D01*
X25458436Y-45302444D01*
X25619721Y-45237429D01*
X25619721Y-45120619D01*
X25621479Y-45071461D01*
X25629757Y-44999369D01*
X25642532Y-44947867D01*
X25643970Y-44944344D01*
X25685304Y-44846365D01*
X25721922Y-44769217D01*
X25762205Y-44696527D01*
X25814534Y-44611926D01*
X25819950Y-44603461D01*
X25903752Y-44483007D01*
X25979248Y-44394726D01*
X26044665Y-44340428D01*
X26098231Y-44321926D01*
X26148622Y-44321926D01*
X26099172Y-44356207D01*
X26081918Y-44369311D01*
X26041892Y-44406129D01*
X26005801Y-44445954D01*
X25982220Y-44478836D01*
X25979721Y-44494825D01*
X25980172Y-44495079D01*
X25974157Y-44512105D01*
X25948538Y-44545314D01*
X25915382Y-44588522D01*
X25883286Y-44641926D01*
X25874791Y-44658994D01*
X25844999Y-44715554D01*
X25810522Y-44778082D01*
X25800987Y-44795688D01*
X25759369Y-44903773D01*
X25746589Y-45007059D01*
X25764078Y-45095749D01*
X25775494Y-45117252D01*
X25824171Y-45177351D01*
X25890862Y-45237432D01*
X25962217Y-45286373D01*
X26024888Y-45313053D01*
X26066587Y-45330924D01*
X26101142Y-45364579D01*
X26101251Y-45364780D01*
X26129591Y-45393022D01*
X26183139Y-45429081D01*
X26250392Y-45465201D01*
X26251544Y-45465752D01*
X26318790Y-45500216D01*
X26372660Y-45531959D01*
X26401587Y-45554173D01*
X26416414Y-45567905D01*
X26450638Y-45581926D01*
X26469756Y-45588276D01*
X26514036Y-45613702D01*
X26568363Y-45651926D01*
X26608680Y-45681472D01*
X26653113Y-45710639D01*
X26677197Y-45721926D01*
X26677340Y-45721927D01*
X26703975Y-45733436D01*
X26743687Y-45760752D01*
X26757886Y-45770932D01*
X26815744Y-45804278D01*
X26881385Y-45834328D01*
X26908174Y-45845767D01*
X26958507Y-45872761D01*
X26985715Y-45895501D01*
X26994863Y-45906845D01*
X27025715Y-45922491D01*
X27026607Y-45922557D01*
X27055958Y-45934551D01*
X27107015Y-45963143D01*
X27169292Y-46002491D01*
X27174169Y-46005721D01*
X27234874Y-46044236D01*
X27282508Y-46071548D01*
X27307126Y-46081926D01*
X27320576Y-46086970D01*
X27362933Y-46109525D01*
X27425312Y-46146032D01*
X27499721Y-46191926D01*
X27551783Y-46223875D01*
X27622304Y-46264131D01*
X27676975Y-46291701D01*
X27707020Y-46301926D01*
X27708125Y-46301952D01*
X27743904Y-46317160D01*
X27783460Y-46351926D01*
X27785476Y-46354214D01*
X27822647Y-46387988D01*
X27852270Y-46401926D01*
X27852356Y-46401926D01*
X27887484Y-46411954D01*
X27942142Y-46436969D01*
X28002742Y-46469646D01*
X28055691Y-46502658D01*
X28087400Y-46528678D01*
X28090278Y-46531814D01*
X28127161Y-46557509D01*
X28179721Y-46582132D01*
X28186017Y-46584562D01*
X28241393Y-46610168D01*
X28281296Y-46635219D01*
X28301641Y-46650481D01*
X28325608Y-46661925D01*
X28344498Y-46670372D01*
X28390829Y-46694602D01*
X28456668Y-46730334D01*
X28534246Y-46773268D01*
X28615794Y-46819102D01*
X28632400Y-46828592D01*
X28667396Y-46848592D01*
X28693542Y-46863534D01*
X28759721Y-46902264D01*
X28773266Y-46909732D01*
X28820443Y-46933375D01*
X28879721Y-46961301D01*
X28941977Y-46990922D01*
X29018324Y-47031117D01*
X29072217Y-47064523D01*
X29096388Y-47086926D01*
X29111744Y-47096468D01*
X29151388Y-47101926D01*
X29182658Y-47106706D01*
X29199721Y-47121926D01*
X29206127Y-47133064D01*
X29237273Y-47141926D01*
X29260233Y-47146253D01*
X29299721Y-47171926D01*
X29317653Y-47187564D01*
X29358170Y-47201926D01*
G37*
G36*
X36293055Y-44128592D02*
G01*
X36296184Y-44134608D01*
X36279721Y-44141926D01*
X36269134Y-44140482D01*
X36266388Y-44128592D01*
X36269320Y-44126199D01*
X36293055Y-44128592D01*
G37*
%TD*%
M02*
